<?xml version="1.0" encoding="utf-8"?>
<!-- Generator: Adobe Illustrator 24.0.3, SVG Export Plug-In . SVG Version: 6.00 Build 0)  -->
<svg version="1.1" id="Layer_1" xmlns="http://www.w3.org/2000/svg" xmlns:xlink="http://www.w3.org/1999/xlink" x="0px" y="0px"
	 viewBox="0 0 201.66928 60" style="enable-background:new 0 0 201.66928 60;" xml:space="preserve">
<style type="text/css">
	.st0{fill-rule:evenodd;clip-rule:evenodd;fill:#85664E;}
	.st1{fill-rule:evenodd;clip-rule:evenodd;}
</style>
<g>
	<path class="st0" d="M55.24463,25.06848L52.01569,11.3894L39.04108,5.34247l-0.01855,0.00867L27.59296,0L14.61841,6.04694
		l-0.01099,0.04663L3.22894,11.44812L0,25.06848L4.03491,30L0,34.93152l3.22894,13.67902l11.44635,5.33472l0.00183,0.00775
		L27.65167,60l12.91583-5.98828l0.01825-0.07739l11.37122-5.32379l3.22894-13.67902l-4.00549-4.89569L55.24463,25.06848z
		 M53.77692,24.77496l-3.45947,4.20612L46.20355,23.953h-5.92419l3.45844-4.22699L40.909,7.74243l9.9325,4.64502L53.77692,24.77496z
		 M39.04108,53.1311l-9.84344-4.60339l2.94611-12.48077h6.41864l3.76642,4.57928l-2.85724,12.30359L39.04108,53.1311z
		 M15.83862,52.96045l-2.92279-12.33423l3.76636-4.57928h6.4187L26.047,48.52771l-9.84344,4.60339L15.83862,52.96045z
		 M16.15698,6.87457l9.88416,4.62244L23.10089,23.953h-6.44086l-3.7442-4.57922l2.87671-12.3288L16.15698,6.87457z
		 M39.39337,7.04498L42.3288,19.4325L38.61072,23.953h-6.5257l-2.94025-12.45599l9.88416-4.62244L39.39337,7.04498z
		 M34.16827,29.35419h-4.92725l3.28345-3.99213h4.92731L34.16827,29.35419z M27.94519,12.38745l2.87671,12.38751l-3.21729,3.94
		l-3.2406-3.94l2.87671-12.38751l0.35223-0.16473L27.94519,12.38745z M22.72015,25.30334l3.33179,4.05084h-4.97565l-3.31213-4.05084
		H22.72015z M19.84723,30.06329l-3.81128,4.63336H9.62817L5.76526,30l3.86292-4.69666h6.32458L19.84723,30.06329z
		 M21.07629,30.70447h4.90375l-3.25989,3.99219h-4.92737L21.07629,30.70447z M27.24072,47.61255l-2.87671-12.3288l3.28247-3.99091
		l3.23413,3.93219l-2.87671,12.38751l-0.38159,0.17847L27.24072,47.61255z M32.52448,34.69666l-3.28351-3.99219h4.92731
		l3.28351,3.99219H32.52448z M35.3371,29.99347l3.78937-4.63141h6.48999l3.8363,4.67029l-3.8363,4.66431h-6.43127L35.3371,29.99347z
		 M37.39417,6.11005l-9.79773,4.56635l-9.77905-4.57837l9.77557-4.57159L37.39417,6.11005z M1.46771,24.77496l2.87671-12.38751
		l9.86646-4.61414l-2.82141,11.9527L14.8479,23.953H8.98242l-4.08466,4.99231L1.46771,24.77496z M4.40314,47.61255L1.46771,35.22504
		l3.43011-4.17041l4.08459,4.99231h5.94281l-3.47711,4.22705l2.82147,11.9527L4.40314,47.61255z M17.78766,53.91925l9.83466-4.58362
		l9.86407,4.59729l-9.83472,4.59937L17.78766,53.91925z M53.7182,35.22504l-2.87671,12.38751l-9.85089,4.60687l2.80591-11.88672
		l-3.50653-4.28577h5.97223l4.0575-4.95917L53.7182,35.22504z"/>
	<g>
		<g>
			<path class="st1" d="M183.76321,27.82779l-15.26419,29.88258h2.93542l3.69862-7.39726h14.14873l-0.82191-1.52642h-12.5636
				l9.15851-18.61057l13.67906,27.53425h2.93542l-15.32291-29.88258H183.76321z"/>
		</g>
		<g>
			<path class="st1" d="M164.74168,27.71037h-28.00392v1.58513h12.62231v28.41487h2.75929V29.2955h12.62231V27.71037z"/>
		</g>
		<g>
			<path class="st1" d="M78.26419,27.82779L63,57.71037h2.93542l3.69863-7.39726h14.14873l-0.82191-1.52642h-12.5636
				l9.15851-18.61057l13.67906,27.53425h2.93542l-15.3229-29.88258H78.26419z"/>
		</g>
		<g>
			<path class="st1" d="M108.26419,27.71037v30h25.24461v-1.58513h-22.48532V27.71037H108.26419z"/>
		</g>
		<g>
			<path class="st1" d="M87.83365,15.96869v-3.87476h0.6458v4.22701c-1.05675,0.93933-2.58318,1.52642-4.10959,1.52642
				c-3.34637,0-6.04697-2.64188-6.04697-5.87084s2.70059-5.81213,6.04697-5.81213c1.58513,0,3.05284,0.58709,4.10959,1.52642
				l-0.41096,0.52837c-0.99803-0.88063-2.28963-1.409-3.69862-1.409c-2.93542,0-5.34247,2.28963-5.34247,5.16634
				s2.40704,5.16634,5.34247,5.16634C85.66144,17.14286,86.89432,16.7319,87.83365,15.96869z M125.58316,6.16438h0.7045v6.86889
				c0,3.05284-1.70255,4.81409-4.69667,4.81409c-2.93542,0-4.69667-1.76125-4.69667-4.81409V6.16438h0.7045v6.86889
				c0,2.58317,1.46771,4.10959,3.99217,4.10959s3.99217-1.52642,3.99217-4.10959V6.16438z M158.75342,6.16438
				c-3.34637,0-6.04697,2.58317-6.04697,5.81213s2.70059,5.87084,6.04697,5.87084s6.04697-2.64188,6.04697-5.87084
				S162.09979,6.16438,158.75342,6.16438z M107.32484,17.84736h-0.82191l-2.75929-3.87476
				c-0.35225,0.05871-0.6458,0.05871-0.99805,0.05871H99.3405v3.87476H98.636V6.22309h4.10959
				c2.87671,0,4.52055,1.409,4.52055,3.81605c0,1.99609-0.99805,3.28767-2.87672,3.75734L107.32484,17.84736z M136.44423,6.22309
				v11.62427h0.7045V13.9726h3.40509c2.87671,0,4.46184-1.409,4.46184-3.93346c0-2.40705-1.64383-3.81605-4.46184-3.81605H136.44423
				z M99.34052,13.2681V6.86889h3.46379c2.40704,0,3.81606,1.11546,3.81606,3.17025c0,2.1135-1.40901,3.22896-3.81606,3.22896
				H99.34052z M140.55382,6.86889h-3.40509v6.39922h3.40509c2.40704,0,3.81604-1.11546,3.81604-3.22896
				C144.36986,7.98434,142.96086,6.86889,140.55382,6.86889z M164.09589,12.03522c0-2.87671-2.40704-5.16634-5.34247-5.16634
				c-2.87671,0-5.34245,2.28963-5.34245,5.16634s2.40706,5.16634,5.34245,5.16634
				C161.68884,17.20156,164.09589,14.91194,164.09589,12.03522z"/>
		</g>
	</g>
</g>
</svg>
