<?xml version="1.0" encoding="utf-8"?>
<!-- Generator: Adobe Illustrator 24.0.3, SVG Export Plug-In . SVG Version: 6.00 Build 0)  -->
<svg version="1.1" id="Layer_1" xmlns="http://www.w3.org/2000/svg" xmlns:xlink="http://www.w3.org/1999/xlink" x="0px" y="0px"
	 viewBox="0 0 400 200" style="enable-background:new 0 0 400 200;" xml:space="preserve">
<style type="text/css">
	.st0{fill:#FFFFFF;}
</style>
<g>
	<rect width="400" height="200"/>
</g>
<g>
	<path class="st0" d="M139.76611,76.82764l-16.15503-7.5293l-0.02283,0.01062L109.35669,62.646l-16.15491,7.5293l-0.01379,0.05835
		l-14.16748,6.66724L75,93.85986L80.0238,100L75,106.14014l4.02051,17.03223l14.2522,6.64252l0.0022,0.00934l16.15491,7.5293
		l16.08191-7.45605l0.02271-0.09631l14.15857-6.62878l4.02051-17.03223l-4.9873-6.09552l5.0603-6.18475L139.76611,76.82764z
		 M123.61121,128.80127l-12.25641-5.73206l3.66815-15.53992h7.99231l4.68945,5.70166l-3.55774,15.31976L123.61121,128.80127z
		 M94.72119,128.58838l-3.63928-15.35742l4.68945-5.70166h7.99225l3.66821,15.53986l-12.25641,5.73163L94.72119,128.58838z
		 M95.11804,71.20605l12.30652,5.75549l-3.66095,15.50916H95.7439l-4.66199-5.70166l3.58191-15.35059L95.11804,71.20605z
		 M109.79541,78.07031l3.58179,15.42383l-4.00592,4.90576l-4.03497-4.90576l3.58191-15.42383l0.4386-0.20514L109.79541,78.07031z
		 M103.28955,94.15186l4.1485,5.04395h-6.19537l-4.12421-5.04395H103.28955z M99.71234,100.07867l-4.74536,5.76898h-7.9787
		l-4.80981-5.84778l4.80981-5.84802h7.87476L99.71234,100.07867z M101.24268,100.87695h6.10583l-4.05896,4.9707h-6.13513
		L101.24268,100.87695z M108.91821,121.92969l-3.58191-15.35059l4.0871-4.96936l4.02692,4.89612l-3.58191,15.42383l-0.4751,0.22217
		L108.91821,121.92969z M115.49707,105.84766l-4.08838-4.9707h6.13525l4.08826,4.9707H115.49707z M118.99915,99.99176
		l4.71826-5.76666h8.08093l4.77661,5.81512l-4.77661,5.80743h-8.00787L118.99915,99.99176z M117.54395,99.1958h-6.13513
		l4.08826-4.9707h6.13525L117.54395,99.1958z M114.94989,92.4707l-3.66095-15.50916l12.30664-5.75549l0.45422,0.2124
		l3.65491,15.42383l-4.62939,5.62842H114.94989z M109.35681,64.54688l12.20349,5.70728l-12.19922,5.68567l-12.1759-5.70056
		L109.35681,64.54688z M76.82751,93.49414l3.58191-15.42383l12.28491-5.74536l-3.51306,14.88257l4.30627,5.26318H86.1842
		l-5.08582,6.21594L76.82751,93.49414z M80.48254,121.92969l-3.65503-15.42383l4.27075-5.19263l5.08594,6.21606h7.39954
		l-4.32935,5.26318l3.51312,14.88226L80.48254,121.92969z M97.14801,129.78229l12.2453-5.70709l12.28186,5.72418l-12.24536,5.7265
		L97.14801,129.78229z M141.88599,106.50586l-3.58179,15.42383l-12.26575,5.73645l3.49377-14.8009l-4.36584-5.33594h7.43591
		l5.05219-6.17487L141.88599,106.50586z M132.5293,92.4707h-7.37646l4.30627-5.26318l-3.52216-14.92108l12.36725,5.78387
		l3.65491,15.42383l-4.3075,5.23706L132.5293,92.4707z"/>
	<polygon class="st0" points="321.34503,134.50293 325,134.50293 305.92108,97.29529 302.70471,97.29529 283.69885,134.50293 
		287.35382,134.50293 291.95911,125.29242 309.57605,125.29242 308.55267,123.39178 292.90936,123.39178 304.31287,100.2193 	"/>
	<polygon class="st0" points="244.15204,99.1228 259.86841,99.1228 259.86841,134.50293 263.30414,134.50293 263.30414,99.1228 
		279.02051,99.1228 279.02051,97.14911 244.15204,97.14911 	"/>
	<polygon class="st0" points="171.34503,97.29529 152.33917,134.50293 155.99414,134.50293 160.59943,125.29242 
		178.21637,125.29242 177.19299,123.39178 161.54974,123.39178 172.95325,100.2193 189.98541,134.50293 193.64038,134.50293 
		174.5614,97.29529 	"/>
	<polygon class="st0" points="212.13452,97.14911 208.69885,97.14911 208.69885,134.50293 240.13159,134.50293 240.13159,132.52924 
		212.13452,132.52924 	"/>
	<path class="st0" d="M225.29236,84.86865c3.72815,0,5.84802-2.19287,5.84802-5.99414v-8.55273h-0.8772v8.55273
		c0,3.21631-1.82751,5.1167-4.97083,5.1167c-3.14319,0-4.9707-1.90039-4.9707-5.1167v-8.55273h-0.8772v8.55273
		C219.44446,82.67578,221.63745,84.86865,225.29236,84.86865z"/>
	<path class="st0" d="M178.94739,84.86865c1.90051,0,3.80115-0.73096,5.11694-1.90088v-5.26318h-0.80408v4.82471
		c-1.16968,0.9502-2.70471,1.46191-4.31287,1.46191c-3.65503,0-6.6521-2.85059-6.6521-6.43262s2.99707-6.43262,6.6521-6.43262
		c1.75427,0,3.36255,0.65771,4.60522,1.75439l0.51172-0.6582c-1.3158-1.16943-3.14331-1.90039-5.11694-1.90039
		c-4.16675,0-7.5293,3.21631-7.5293,7.23682S174.78064,84.86865,178.94739,84.86865z"/>
	<path class="st0" d="M271.56433,70.32178c-4.16675,0-7.5293,3.21631-7.5293,7.23682s3.36255,7.31006,7.5293,7.31006
		c4.16663,0,7.52917-3.28955,7.52917-7.31006S275.73096,70.32178,271.56433,70.32178z M271.56433,84.06445
		c-3.65503,0-6.6521-2.85107-6.6521-6.43311c0-3.58154,3.07019-6.43262,6.6521-6.43262c3.65491,0,6.65198,2.85107,6.65198,6.43262
		C278.21631,81.21338,275.21924,84.06445,271.56433,84.06445z"/>
	<path class="st0" d="M244.6637,80.04395h4.23975c3.58191,0,5.55554-1.75439,5.55554-4.89746
		c0-2.99707-2.04675-4.75146-5.55554-4.75146h-5.11694v14.47363h0.8772V80.04395z M244.6637,71.19873h4.23975
		c2.99707,0,4.75146,1.38867,4.75146,3.94727c0,2.63184-1.75439,4.02051-4.75146,4.02051h-4.23975V71.19873z"/>
	<path class="st0" d="M207.45618,75.146c0-2.99707-2.04675-4.75146-5.62866-4.75146h-5.11694v14.54688h0.8772V80.1167h4.23975
		c0.4386,0,0.80408,0,1.24268-0.07324l3.43567,4.82471h1.02344l-3.65503-5.04395
		C206.2135,79.23975,207.45618,77.63135,207.45618,75.146z M201.90063,79.1665h-4.31287v-7.96777h4.31287
		c2.99707,0,4.75146,1.38867,4.75146,3.94727C206.6521,77.77783,204.89771,79.1665,201.90063,79.1665z"/>
</g>
</svg>
