<?xml version="1.0" encoding="utf-8"?>
<!-- Generator: Adobe Illustrator 24.0.3, SVG Export Plug-In . SVG Version: 6.00 Build 0)  -->
<svg version="1.1" id="Layer_1" xmlns="http://www.w3.org/2000/svg" xmlns:xlink="http://www.w3.org/1999/xlink" x="0px" y="0px"
	 viewBox="0 0 100 114.48035" style="enable-background:new 0 0 100 114.48035;" xml:space="preserve">
<style type="text/css">
	.st0{filter:url(#Adobe_OpacityMaskFilter);}
	.st1{fill:#FFFFFF;}
	.st2{mask:url(#mask-2_1_);}
	.st3{fill-rule:evenodd;clip-rule:evenodd;fill:#FFFFFF;}
</style>
<g>
	<defs>
		<filter id="Adobe_OpacityMaskFilter" filterUnits="userSpaceOnUse" x="0" y="0" width="100" height="114.48035">
			<feColorMatrix  type="matrix" values="1 0 0 0 0  0 1 0 0 0  0 0 1 0 0  0 0 0 1 0"/>
		</filter>
	</defs>
	<mask maskUnits="userSpaceOnUse" x="0" y="0" width="100" height="114.48035" id="mask-2_1_">
		<rect class="st0" width="100" height="114.48035"/>
		<g>
			<rect id="rect-1_1_" y="0" class="st1" width="100" height="114.42725"/>
		</g>
	</mask>
	<g class="st2">
		<g>
			<g>
				<g>
					<path class="st3" d="M5.0155,84.70593c2.72443,0,5.01544,1.64526,5.01544,4.29895c0,1.11462-0.37152,2.06995-1.05261,2.75989
						l1.17645,1.1145L8.73065,93.8877l-1.17645-1.1145c-0.74304,0.31836-1.60992,0.53076-2.5387,0.53076
						C2.29102,93.30396,0,91.60559,0,89.00488C0,86.4043,2.29102,84.70593,5.0155,84.70593z M6.00623,89.00488l1.42413,1.32678
						c0.24768-0.37146,0.37152-0.79602,0.37152-1.32678c0-1.69836-1.42413-2.49451-2.78638-2.49451
						s-2.78638,0.74304-2.78638,2.49451c0,1.69836,1.42413,2.49438,2.78638,2.49438c0.30957,0,0.68109-0.05298,0.99072-0.15918
						l-1.42413-1.32678L6.00623,89.00488z"/>
				</g>
				<g>
					<path class="st3" d="M25.32508,84.8651h-2.16718v5.14816c0,1.00841-0.68111,1.48607-1.67183,1.48607
						c-1.05263,0-1.67183-0.47766-1.67183-1.48607V84.8651h-2.16718v5.30739c0,2.06988,1.73375,3.18443,3.83901,3.18443
						s3.83901-1.11456,3.83901-3.18443V84.8651L25.32508,84.8651z"/>
				</g>
				<g>
					<path class="st3" d="M39.56656,86.61654V84.8651h-6.13003v8.27953h6.13003v-1.75144h-3.96285v-1.59222h3.59133v-1.59222
						h-3.59133v-1.59222H39.56656z"/>
				</g>
				<g>
					<path class="st3" d="M54.36533,90.70323c0-1.16763-0.92879-2.17603-2.78638-2.49448l-1.30031-0.2123
						c-0.68111-0.10615-0.92879-0.37151-0.92879-0.7961c0-0.47767,0.49535-0.90226,1.30031-0.90226
						c1.17647,0,1.54799,0.63689,1.60991,1.06148l1.9195-0.47766c-0.18576-0.95533-1.11455-2.2291-3.52941-2.2291
						c-1.85759,0-3.46749,1.11455-3.46749,2.65369c0,1.2207,0.99071,2.17603,2.60062,2.4414l1.30031,0.2123
						c0.61919,0.10615,1.05263,0.42459,1.05263,0.84918c0,0.53074-0.49536,0.84918-1.36223,0.84918
						c-1.30031,0-1.91951-0.68996-1.98143-1.433l-1.98142,0.42459c0.12384,1.16763,1.30031,2.65369,3.96285,2.65369
						C53.12693,93.35693,54.36533,92.03008,54.36533,90.70323L54.36533,90.70323z"/>
				</g>
				<g>
					<path class="st3" d="M68.11146,86.61654V84.8651h-6.13004v8.27953h6.13004v-1.75144h-3.96285v-1.59222h3.59133v-1.59222
						h-3.59133v-1.59222H68.11146z"/>
				</g>
				<g>
					<path class="st3" d="M75.72755,87.35957c0,1.2207,0.99072,2.17603,2.60062,2.4414l1.30032,0.2123
						c0.61919,0.10615,1.05263,0.42459,1.05263,0.84918c0,0.53074-0.49535,0.84918-1.36223,0.84918
						c-1.30031,0-1.9195-0.68996-1.98142-1.43299l-1.98142,0.42459c0.12383,1.16763,1.30031,2.65369,3.96284,2.65369
						c2.29102,0,3.59133-1.32685,3.59133-2.60062c0-1.16763-0.92879-2.17603-2.78638-2.49447l-1.30031-0.2123
						c-0.68111-0.10615-0.92879-0.37152-0.92879-0.79611c0-0.47766,0.49535-0.90225,1.30031-0.90225
						c1.17647,0,1.54799,0.63689,1.60991,1.06148l1.9195-0.47767c-0.18576-0.95533-1.11455-2.2291-3.52941-2.2291
						C77.33746,84.70589,75.72755,85.82043,75.72755,87.35957L75.72755,87.35957z"/>
				</g>
				<g>
					<path class="st3" d="M89.96906,89.00488c0-2.60059,2.29102-4.29895,5.0155-4.29895c2.66254,0,5.01544,1.69836,5.01544,4.29895
						c0,2.60071-2.29102,4.29907-5.01544,4.29907C92.26007,93.30396,89.96906,91.60559,89.96906,89.00488z M92.19812,89.00488
						c0,1.69836,1.42413,2.49438,2.78638,2.49438c1.30029,0,2.72449-0.74304,2.78638-2.49438
						c0-1.69836-1.42413-2.49451-2.78638-2.49451S92.19812,87.25342,92.19812,89.00488z"/>
				</g>
				<g>
					<path class="st3" d="M14.24146,105.0863c1.05261,0,1.98145,0.68994,1.98145,1.75146c0,0.42456-0.18579,0.84912-0.43347,1.1145
						l0.49536,0.42456l-0.55725,0.42468l-0.49536-0.42468c-0.30957,0.1593-0.6192,0.2124-0.99072,0.2124
						c-1.11456,0-2.04333-0.69006-2.04333-1.75146C12.19812,105.77625,13.12689,105.0863,14.24146,105.0863z M14.61304,106.83765
						l0.55725,0.53076c0.06195-0.1593,0.12384-0.31848,0.18579-0.53076c0-0.68994-0.55731-1.00842-1.11456-1.00842
						c-0.55731,0-1.11456,0.31848-1.11456,1.00842s0.55725,1.00842,1.11456,1.00842c0.12384,0,0.24768,0,0.37152-0.0531
						l-0.55731-0.53076L14.61304,106.83765z"/>
				</g>
				<g>
					<path class="st3" d="M21.42415,107.26228c0,0.42459-0.24768,0.58381-0.68111,0.58381
						c-0.43344,0-0.68111-0.2123-0.68111-0.58381v-2.06989h-0.86687v2.12296c0,0.84918,0.68111,1.27377,1.54799,1.27377
						s1.54799-0.42459,1.54799-1.27377v-2.12296h-0.86687V107.26228L21.42415,107.26228z"/>
				</g>
				<g>
					<path class="st3" d="M28.04954,105.88235v-0.68996h-2.47678v3.29058h2.47678v-0.68996h-1.60991v-0.63689h1.42415v-0.63689
						h-1.42415v-0.63689H28.04954z"/>
				</g>
				<g>
					<path class="st3" d="M32.81734,106.51924l-0.49536-0.10615c-0.24768-0.05308-0.37152-0.15923-0.37152-0.31844
						c0-0.15923,0.18576-0.37152,0.55728-0.37152c0.49536,0,0.61919,0.26537,0.61919,0.42459l0.80495-0.2123
						c-0.06192-0.37151-0.43344-0.90225-1.42415-0.90225c-0.74303,0-1.36223,0.42459-1.36223,1.06148
						c0,0.47766,0.37152,0.84918,1.05263,0.95533l0.55727,0.10615c0.24768,0.05307,0.43344,0.15922,0.43344,0.31844
						c0,0.2123-0.18576,0.37151-0.55727,0.37151c-0.55728,0-0.74304-0.26537-0.80495-0.58381l-0.80495,0.15922
						c0.06192,0.47767,0.49536,1.06148,1.60991,1.06148c0.92879,0,1.42415-0.53074,1.42415-1.06148
						C33.93189,107.04998,33.56037,106.62539,32.81734,106.51924L32.81734,106.51924z"/>
				</g>
				<g>
					<path class="st3" d="M36.71826,106.89075c0-1.06152,0.92877-1.75146,2.04333-1.75146s1.98145,0.63684,1.98145,1.75146
						c0,1.0614-0.86688,1.75146-1.98145,1.75146S36.71826,107.95215,36.71826,106.89075z M37.64703,106.83765
						c0,0.68994,0.55725,1.00842,1.11456,1.00842c0.55725,0,1.11456-0.31848,1.11456-1.00842s-0.55731-1.00842-1.11456-1.00842
						C38.20428,105.82922,37.64703,106.14771,37.64703,106.83765z"/>
				</g>
				<g>
					<path class="st3" d="M45.44892,106.51924l-0.49536-0.10615c-0.24768-0.05308-0.37152-0.15923-0.37152-0.31844
						c0-0.15923,0.18576-0.37152,0.55728-0.37152c0.49535,0,0.61919,0.26537,0.61919,0.42459l0.80495-0.2123
						c-0.06192-0.37151-0.43344-0.90225-1.42415-0.90225c-0.74303,0-1.36223,0.42459-1.36223,1.06148
						c0,0.47766,0.37152,0.84918,1.05263,0.95533l0.55728,0.10615c0.24768,0.05307,0.43344,0.15922,0.43344,0.31844
						c0,0.2123-0.18576,0.37151-0.55728,0.37151c-0.55727,0-0.74303-0.26537-0.80495-0.58381l-0.80495,0.15922
						c0.06192,0.47767,0.49535,1.06148,1.60991,1.06148c0.92879,0,1.42415-0.53074,1.42415-1.06148
						C46.56347,107.04998,46.19195,106.62539,45.44892,106.51924L45.44892,106.51924z"/>
				</g>
				<g>
					<path class="st3" d="M55.66563,105.19239l-0.80495,1.2207l-0.80495-1.2207h-0.99072l1.30031,1.91066v1.37992h0.86687v-1.37992
						l1.36223-1.91066H55.66563z"/>
				</g>
				<g>
					<path class="st3" d="M64.82972,107.52764l-0.92879-2.33525h-0.92879l1.42415,3.29058h0.86687l1.42415-3.29058h-0.92879
						L64.82972,107.52764z"/>
				</g>
				<g>
					<rect x="69.59753" y="105.19239" class="st1" width="0.86687" height="3.29058"/>
				</g>
				<g>
					<path class="st3" d="M76.28483,107.2092l-1.48607-2.01681h-1.05263v3.29058h0.86687v-2.17603l1.6099,2.17603h0.92879v-3.29058
						h-0.86687V107.2092z"/>
				</g>
				<g>
					<path class="st3" d="M80.18573,106.89075c0-1.06152,0.92877-1.75146,2.04333-1.75146
						c1.05261,0,1.98145,0.63684,1.98145,1.75146c0,1.0614-0.86688,1.75146-1.98145,1.75146S80.18573,107.95215,80.18573,106.89075z
						 M81.11456,106.83765c0,0.68994,0.55725,1.00842,1.11456,1.00842c0.49536,0,1.11456-0.31848,1.11456-1.00842
						s-0.55731-1.00842-1.11456-1.00842C81.67181,105.82922,81.11456,106.14771,81.11456,106.83765z"/>
				</g>
				<g>
					<path class="st3" d="M88.91641,106.51924l-0.49536-0.10615c-0.24767-0.05308-0.37151-0.15923-0.37151-0.31844
						c0-0.15923,0.18575-0.37152,0.55727-0.37152c0.49535,0,0.61919,0.26537,0.61919,0.42459l0.80495-0.2123
						c-0.06192-0.37151-0.43343-0.90225-1.42415-0.90225c-0.74303,0-1.36223,0.42459-1.36223,1.06148
						c0,0.47766,0.37151,0.84918,1.05263,0.95533l0.55728,0.10615c0.24767,0.05307,0.43343,0.15922,0.43343,0.31844
						c0,0.2123-0.18576,0.37151-0.55727,0.37151c-0.55727,0-0.74303-0.26537-0.80495-0.58381l-0.80495,0.15922
						c0.06192,0.47767,0.49535,1.06148,1.60991,1.06148c0.92879,0,1.42415-0.53074,1.42415-1.06148
						C90.03096,107.04998,89.59753,106.62539,88.91641,106.51924L88.91641,106.51924z"/>
				</g>
				<g>
					<path class="st3" d="M19.93808,112.99425h1.42415v-0.63688h-1.42415v-0.63689h1.60991v-0.68996h-2.47678v3.29058h2.47678
						v-0.68996h-1.60991V112.99425z"/>
				</g>
				<g>
					<path class="st3" d="M27.18266,113.04733l-1.42415-2.01681h-1.05263v3.29058h0.86687v-2.17603l1.60991,2.17603h0.86687
						v-3.29058h-0.86687V113.04733z"/>
				</g>
				<g>
					<path class="st3" d="M36.03715,112.99425h1.42415v-0.63688h-1.42415v-0.63689h1.54799v-0.68996h-2.41486v3.29058h2.41486
						v-0.68996h-1.54799V112.99425z"/>
				</g>
				<g>
					<path class="st3" d="M41.67183,111.03052h-0.86687v3.29058h2.5387v-0.68996h-1.67183V111.03052z"/>
				</g>
				<g>
					<path class="st3" d="M49.78328,111.72048h1.23839v2.60062h0.86687v-2.60062h1.17647v-0.68996h-3.28173V111.72048z"/>
				</g>
				<g>
					<path class="st3" d="M56.90403,112.99425h1.42415v-0.63688h-1.42415v-0.63689h1.54799v-0.68996h-2.41486v3.29058h2.47678
						v-0.68996h-1.60991V112.99425z"/>
				</g>
				<g>
					<path class="st3" d="M61.2384,114.32104l1.48608-3.29053h0.92877l1.42413,3.29053h-0.92877l-0.24768-0.68994h-1.48608
						l-0.24768,0.68994H61.2384z M63.28174,111.82666l-0.49536,1.1676h0.92877L63.28174,111.82666z"/>
				</g>
				<g>
					<path class="st3" d="M67.43034,111.72048h1.17647v2.60062h0.86687v-2.60062h1.23839v-0.68996h-3.28173V111.72048z"/>
				</g>
				<g>
					<path class="st3" d="M75.23218,110.97742c0.74304,0,1.2384,0.47766,1.2384,1.06152c0,0.47766-0.30957,0.79602-0.80493,0.90222
						l0.80493,1.32678h-0.92877l-0.68115-1.2207h-0.30957v1.2207H73.6842v-3.29053H75.23218z M74.55109,112.4635h0.49536
						c0.37152,0,0.55725-0.1593,0.55725-0.37158c0-0.26538-0.18573-0.42456-0.55725-0.42456h-0.49536V112.4635z"/>
				</g>
				<g>
					<path class="st3" d="M79.25696,112.72888c0-1.06152,0.92877-1.75146,2.04333-1.75146s2.04333,0.63684,1.98145,1.75146
						c0,1.0614-0.86688,1.75146-1.98145,1.75146S79.25696,113.79028,79.25696,112.72888z M80.18573,112.67578
						c0,0.68994,0.55725,1.00842,1.11456,1.00842c0.55725,0,1.11456-0.31848,1.11456-1.00842s-0.55731-1.00842-1.11456-1.00842
						C80.74298,111.66736,80.18573,111.98584,80.18573,112.67578z"/>
				</g>
				<g>
					<path class="st3" d="M80.80499,0v69.79211H19.19507V0H80.80499z M31.26935,61.30029h-9.9071v6.63428h17.64703v-8.49182h9.90717
						v1.91064h-7.73993v6.58118h37.39935v-6.58118h-8.79254v-1.91064h8.79254v-6.58118h-8.79254v-1.91064h8.79254v-6.58118H60.99072
						v16.98364H58.7616v-8.49182h-8.79254v-1.91064h8.79254v-6.58118h-3.83899v-1.91064h23.65326v-6.58118h-8.79254v-1.91064
						h8.79254V10.34937H60.99072v6.63428h8.7926v1.85754h-8.7926v5.67896h8.7926v1.91064H58.7616V10.40247H40.06195V8.49182
						h38.57587V1.91064H32.13623v8.49182H29.9071V1.91064h-8.54486v15.073h19.81427v10.40247H27.67804v-1.91064h11.33124v-6.63428
						H21.36224v15.1261h27.5542v-5.46667h2.16718v5.46667h8.85449v1.85754H41.2384v16.08142h-2.22913v-7.5365h-8.85449v-1.91064
						h8.85449v-6.63428H21.36224v23.56482h7.73993v-5.41357h2.16718V61.30029z"/>
				</g>
			</g>
		</g>
	</g>
</g>
</svg>
