<?xml version="1.0" encoding="utf-8"?>
<!-- Generator: Adobe Illustrator 24.0.3, SVG Export Plug-In . SVG Version: 6.00 Build 0)  -->
<svg version="1.1" id="Layer_1" xmlns="http://www.w3.org/2000/svg" xmlns:xlink="http://www.w3.org/1999/xlink" x="0px" y="0px"
	 viewBox="0 0 94.4474 30.32199" style="enable-background:new 0 0 94.4474 30.32199;" xml:space="preserve">
<style type="text/css">
	.st0{fill-rule:evenodd;clip-rule:evenodd;}
</style>
<g>
	<g>
		<g>
			<g>
				<path class="st0" d="M22.02869,8.24903L30.26111,0v30.32199h-8.23242V8.24903z M19.26953,8.24903l-0.04529,0.04538V8.24903
					H19.26953z M19.22424,8.29441v22.02758h-8.23242v-13.7786L19.22424,8.29441z M55.63721,26.69604
					c0.31653-0.72519,0.45227-1.54102,0.45227-2.44751c0-0.99714-0.18091-1.8583-0.58801-2.62881
					c-0.4071-0.67986-0.90466-1.22375-1.49268-1.677c-0.58813-0.40791-1.2666-0.77051-2.03552-0.99713
					c-0.76904-0.22662-1.49268-0.45325-2.26172-0.63454c-0.72375-0.1813-1.35693-0.36259-1.85449-0.49857
					s-0.90466-0.27195-1.17615-0.45325c-0.27136-0.13597-0.45227-0.31727-0.58801-0.54389S45.912,16.3621,45.912,16.04482
					c0-0.22662,0.04517-0.45324,0.13574-0.63454c0.09045-0.1813,0.22607-0.36259,0.45227-0.54389s0.49756-0.31727,0.8595-0.40792
					c0.31653-0.09064,0.76892-0.13597,1.26648-0.13597c0.85938,0,1.67358,0.1813,2.35217,0.49857
					c0.67847,0.31727,1.31177,0.81584,1.94495,1.45038l2.71411-2.67413c-0.90479-0.95181-1.8999-1.677-3.03064-2.22089
					c-1.13086-0.49857-2.39746-0.77052-3.89014-0.77052c-0.90466,0-1.80933,0.09065-2.62354,0.36259
					c-0.85938,0.22662-1.53796,0.58922-2.17114,1.08778c-0.6333,0.49857-1.08569,1.08778-1.44751,1.76765
					c-0.36194,0.67986-0.54285,1.45038-0.54285,2.31154c0,0.95181,0.18091,1.72233,0.45239,2.35686
					c0.27136,0.63454,0.67847,1.17844,1.22131,1.58635c0.54272,0.40792,1.17603,0.77052,1.89978,1.04247
					c0.72375,0.27194,1.53796,0.54389,2.39734,0.72519c0.90466,0.22662,1.62842,0.40792,2.17126,0.58922
					c0.54272,0.1813,0.94983,0.40791,1.26648,0.58922c0.27136,0.18129,0.49756,0.40791,0.58801,0.63454
					c0.13574,0.22662,0.18091,0.49857,0.18091,0.81584c0,0.72519-0.27136,1.26908-0.81409,1.58635
					c-0.49768,0.31727-1.35706,0.49857-2.48792,0.49857c-0.94983,0-1.80933-0.1813-2.62354-0.49857
					c-0.81421-0.36259-1.53796-0.90649-2.21643-1.677l-2.71399,2.44752c0.72375,1.08778,1.71887,1.90362,3.03064,2.53816
					c1.31177,0.58922,2.75928,0.90649,4.34241,0.90649c1.31177,0,2.39734-0.1813,3.34729-0.45325
					c0.90466-0.27194,1.67358-0.67986,2.30688-1.22375S55.36572,27.42124,55.63721,26.69604z M76.89685,26.51475
					c0.31665-0.77052,0.49756-1.63168,0.49756-2.62881c0-1.04246-0.27136-1.90363-0.76892-2.62881
					c-0.49756-0.67986-1.13086-1.17843-1.89978-1.54102c0.63318-0.40792,1.13074-0.90649,1.49268-1.54103
					c0.36182-0.63454,0.54272-1.35973,0.54272-2.17557c0-1.63168-0.54272-2.85544-1.6283-3.7166
					c-1.08569-0.86116-2.53308-1.26908-4.3877-1.26908h-8.6848v19.03622h8.59436c0.99512,0,1.94507-0.13597,2.75928-0.40791
					c0.81409-0.27195,1.53784-0.67987,2.12585-1.17844C76.12793,27.9198,76.5802,27.28526,76.89685,26.51475z M88.88379,14.77575
					v15.2743h-3.79968v-15.2743h-5.42798v-3.76192h14.70081v3.76192C94.35694,14.77575,88.88379,14.77575,88.88379,14.77575z
					 M72.91638,16.36209c0-0.58922-0.18091-1.04246-0.54285-1.35973c-0.36182-0.31728-0.94983-0.45325-1.80933-0.45325h-4.83997
					v3.62595h5.02087c0.81421,0,1.35706-0.1813,1.67371-0.49857C72.78064,17.3139,72.91638,16.86065,72.91638,16.36209z M0,24.79242
					l8.23242-8.24903v13.7786H0V24.79242z M70.79028,21.52907c1.80933,0,2.71399,0.81584,2.71399,2.44752
					c0,0.72519-0.22607,1.35973-0.67847,1.81297c-0.45227,0.45324-1.13086,0.67986-2.03552,0.67986h-5.02087v-4.94035
					C65.76941,21.52907,70.79028,21.52907,70.79028,21.52907z"/>
			</g>
		</g>
	</g>
</g>
</svg>
