<?xml version="1.0" encoding="utf-8"?>
<!-- Generator: Adobe Illustrator 24.0.3, SVG Export Plug-In . SVG Version: 6.00 Build 0)  -->
<svg version="1.1" id="Layer_1" xmlns="http://www.w3.org/2000/svg" xmlns:xlink="http://www.w3.org/1999/xlink" x="0px" y="0px"
	 viewBox="0 0 52.32204 54" style="enable-background:new 0 0 52.32204 54;" xml:space="preserve">
<style type="text/css">
	.st0{filter:url(#Adobe_OpacityMaskFilter);}
	.st1{fill:#FFFFFF;}
	.st2{mask:url(#mask-2_1_);}
	.st3{fill-rule:evenodd;clip-rule:evenodd;}
</style>
<defs>
	<filter id="Adobe_OpacityMaskFilter" filterUnits="userSpaceOnUse" x="0.00002" y="0" width="52.32202" height="53.75652">
		<feColorMatrix  type="matrix" values="1 0 0 0 0  0 1 0 0 0  0 0 1 0 0  0 0 0 1 0"/>
	</filter>
</defs>
<mask maskUnits="userSpaceOnUse" x="0.00002" y="0" width="52.32202" height="53.75652" id="mask-2_1_">
	<rect class="st0" width="52.32204" height="54"/>
	<g>
		<rect id="rect-1_1_" class="st1" width="52.32198" height="54"/>
	</g>
</mask>
<g class="st2">
	<g>
		<g>
			<g>
				<path class="st3" d="M2.62417,48.14049c1.42554,0,2.62427,1.00634,2.62427,2.62948c0,0.68171-0.19446,1.26604-0.55078,1.68806
					l0.6156,0.68172l-0.74524,0.61678l-0.61548-0.68171c-0.38879,0.19477-0.84241,0.32462-1.32837,0.32462
					c-1.42542,0-2.62415-1.0388-2.62415-2.62947C0.00002,49.17929,1.19875,48.14049,2.62417,48.14049z M3.14248,50.76997
					l0.74524,0.81157c0.12952-0.22724,0.19434-0.48694,0.19434-0.81157c0-1.0388-0.74512-1.52574-1.45789-1.52574
					s-1.45789,0.45448-1.45789,1.52574c0,1.03881,0.74512,1.52575,1.45789,1.52575c0.16199,0,0.35632-0.03246,0.51831-0.09739
					l-0.74512-0.81157L3.14248,50.76997z"/>
			</g>
			<g>
				<path class="st3" d="M13.25058,48.23788h-1.13391v3.14888c0,0.61679-0.35637,0.90895-0.87473,0.90895
					c-0.55076,0-0.87473-0.29216-0.87473-0.90895v-3.14888H9.23329v3.24627c0,1.26604,0.90713,1.94776,2.00865,1.94776
					s2.00865-0.68172,2.00865-1.94776V48.23788L13.25058,48.23788z"/>
			</g>
			<g>
				<path class="st3" d="M20.70201,49.30915v-1.07127h-3.20735v5.06417h3.20735v-1.07127h-2.07344V51.2569h1.87906v-0.97388
					h-1.87906v-0.97388H20.70201z"/>
			</g>
			<g>
				<path class="st3" d="M28.44501,51.80877c0-0.71418-0.48596-1.33097-1.45789-1.52574l-0.68035-0.12985
					c-0.35637-0.06493-0.48596-0.22724-0.48596-0.48694c0-0.29216,0.25918-0.55186,0.68035-0.55186
					c0.61555,0,0.80994,0.38955,0.84233,0.64925l1.00432-0.29216c-0.09719-0.58433-0.58315-1.36343-1.84666-1.36343
					c-0.97193,0-1.81426,0.68172-1.81426,1.62313c0,0.74664,0.51836,1.33097,1.36069,1.49328l0.68035,0.12985
					c0.32397,0.06493,0.55076,0.2597,0.55076,0.5194c0,0.32463-0.25918,0.5194-0.71275,0.5194
					c-0.68035,0-1.00432-0.42201-1.03672-0.87649l-1.03672,0.2597c0.06479,0.71418,0.68035,1.62313,2.07344,1.62313
					C27.79706,53.4319,28.44501,52.62034,28.44501,51.80877L28.44501,51.80877z"/>
			</g>
			<g>
				<path class="st3" d="M35.63726,49.30915v-1.07127h-3.20735v5.06417h3.20735v-1.07127h-2.07344V51.2569h1.87906v-0.97388
					h-1.87906v-0.97388H35.63726z"/>
			</g>
			<g>
				<path class="st3" d="M39.62215,49.76362c0,0.74664,0.51836,1.33097,1.36069,1.49328l0.68035,0.12985
					c0.32397,0.06493,0.55076,0.2597,0.55076,0.5194c0,0.32463-0.25918,0.5194-0.71275,0.5194
					c-0.68035,0-1.00432-0.42201-1.03672-0.87649l-1.03672,0.2597c0.0648,0.71418,0.68035,1.62313,2.07344,1.62313
					c1.19871,0,1.87906-0.81157,1.87906-1.59067c0-0.71418-0.48596-1.33097-1.45789-1.52574l-0.68035-0.12985
					c-0.35637-0.06493-0.48597-0.22724-0.48597-0.48694c0-0.29216,0.25918-0.55187,0.68035-0.55187
					c0.61555,0,0.80994,0.38955,0.84233,0.64925l1.00432-0.29216c-0.09719-0.58433-0.58316-1.36343-1.84666-1.36343
					C40.46449,48.14049,39.62215,48.82221,39.62215,49.76362L39.62215,49.76362z"/>
			</g>
			<g>
				<path class="st3" d="M47.07363,50.76997c0-1.59068,1.19873-2.62948,2.62415-2.62948c1.39319,0,2.62427,1.0388,2.62427,2.62948
					c0,1.59067-1.19873,2.62947-2.62427,2.62947C48.27236,53.39944,47.07363,52.36063,47.07363,50.76997z M48.23989,50.76997
					c0,1.03881,0.74512,1.52575,1.45789,1.52575c0.6803,0,1.42554-0.45448,1.45789-1.52575
					c0-1.0388-0.74512-1.52574-1.45789-1.52574S48.23989,49.6987,48.23989,50.76997z"/>
			</g>
			<g>
				<path class="st3" d="M42.27871,0v42.68839H10.04323V0H42.27871z M16.36074,37.49437h-5.18359v4.05783h9.23328v-5.19403h5.18359
					v1.16866h-4.04968v4.02538h19.56812v-4.02538h-4.60046v-1.16866h4.60046V32.3328h-4.60046v-1.16866h4.60046v-4.02537h-9.20093
					v10.38805h-1.16626V32.3328H26.1448v-1.16866h4.60046v-4.02537H28.7366v-1.16866h12.37585v-4.02537h-4.60046V20.7761h4.60046
					V6.33022h-9.20093v4.05783h4.60046v1.13619h-4.60046v3.4735h4.60046v1.16865h-5.76672V6.36268H20.9612V5.19402H41.1448V1.16866
					H16.81435v5.19402h-1.16638V1.16866h-4.47083v9.21939h10.36719v6.36268h-7.06262v-1.16866h5.92871v-4.05783h-9.23328v9.25186
					h14.41687v-3.34366h1.13391v3.34366h4.63281v1.13619h-9.78394v9.83618h-1.16638v-4.6097h-4.63281v-1.16866h4.63281v-4.05783
					h-9.23328v14.41342h4.04968v-3.3112h1.13391V37.49437z"/>
			</g>
		</g>
	</g>
</g>
</svg>
