<?xml version="1.0" encoding="utf-8"?>
<!-- Generator: Adobe Illustrator 24.0.3, SVG Export Plug-In . SVG Version: 6.00 Build 0)  -->
<svg version="1.1" id="Layer_1" xmlns="http://www.w3.org/2000/svg" xmlns:xlink="http://www.w3.org/1999/xlink" x="0px" y="0px"
	 viewBox="0 0 95.34431 47.14286" style="enable-background:new 0 0 95.34431 47.14286;" xml:space="preserve">
<style type="text/css">
	.st0{filter:url(#Adobe_OpacityMaskFilter);}
	.st1{fill:#FFFFFF;}
	.st2{mask:url(#mask-2_1_);}
	.st3{fill-rule:evenodd;clip-rule:evenodd;fill:#FFFFFF;}
</style>
<defs>
	<filter id="Adobe_OpacityMaskFilter" filterUnits="userSpaceOnUse" x="0.00001" y="0" width="95.26197" height="47.14286">
		<feColorMatrix  type="matrix" values="1 0 0 0 0  0 1 0 0 0  0 0 1 0 0  0 0 0 1 0"/>
	</filter>
</defs>
<mask maskUnits="userSpaceOnUse" x="0.00001" y="0" width="95.26197" height="47.14286" id="mask-2_1_">
	<rect class="st0" width="95.34431" height="47.14286"/>
	<g>
		<rect id="rect-1_1_" class="st1" width="95.34431" height="47.14286"/>
	</g>
</mask>
<g class="st2">
	<g>
		<g>
			<g>
				<path class="st3" d="M81.1003,4.30496h9.7979V0L81.1003,4.30496z"/>
			</g>
			<g>
				<path class="st3" d="M30.62874,47.14286V7.76305h5.76347v39.30924h-5.76347V47.14286z"/>
			</g>
			<g>
				<path class="st3" d="M14.16169,26.67665l2.14072-5.0813l3.2934-7.3396c0.24701-0.56458,0.41168-1.12915,0.41168-1.76428
					c0-0.77637-0.08234-1.55261-0.41168-2.18774c0,0-0.08234-0.14124-0.16467-0.35291
					c-0.49399-0.70569-1.39969-2.11719-5.10477-2.11719H0.00001v39.3092h11.77396c8.6452,0,11.52695-3.52856,11.52695-11.07996
					C23.30091,30.6288,20.00748,27.52358,14.16169,26.67665z M13.83231,9.17446c0,0,1.56439,0,1.39972,1.55261
					c0,0.21167-0.08234,0.42346-0.16467,0.63513l-0.41168,0.91748c0,0.07056,0,0.07056-0.08234,0.14111l-2.05838,4.86963
					l-7.16318,16.9375V9.17446H13.83231z M11.85627,45.73146c1.15271,0,2.22308-0.42346,2.96408-1.19971
					c1.56439-1.62329,2.38773-4.37561,2.47006-8.11597c0-4.37549-1.39969-6.77503-3.86975-7.83362L6.09281,45.73146H11.85627z"/>
			</g>
			<g>
				<path class="st3" d="M52.28293,45.80197c-0.41167-0.07057-0.98802-0.35287-0.90569-1.27032
					c0-0.14115,0.08233-0.35287,0.08233-0.49401L66.44461,8.89222V7.76305H44.79042v1.41146h13.99701
					c0.24701,0,1.23503,0.21172,1.07036,1.34089c0,0.14115-0.08234,0.35287-0.08234,0.49401l-0.08233,0.28229L44.79042,45.80197
					v1.34089h21.9012v-1.34089H52.28293L52.28293,45.80197z"/>
			</g>
			<g>
				<path class="st3" d="M78.79491,7.6219v27.94696c0,7.41018,2.14072,10.30368,7.24551,10.30368
					c3.70509,0,7.82185-0.70573,7.82185-10.5154V7.6219h1.3997v27.66467c0,8.82164-4.03443,11.78571-10.20958,11.78571
					c-8.23354,0-12.02096-3.24636-12.02096-12.70317V7.6219H78.79491L78.79491,7.6219z"/>
			</g>
		</g>
	</g>
</g>
</svg>
