<?xml version="1.0" encoding="utf-8"?>
<!-- Generator: Adobe Illustrator 24.0.3, SVG Export Plug-In . SVG Version: 6.00 Build 0)  -->
<svg version="1.1" id="Layer_1" xmlns="http://www.w3.org/2000/svg" xmlns:xlink="http://www.w3.org/1999/xlink" x="0px" y="0px"
	 viewBox="0 0 52.32198 50.9936" style="enable-background:new 0 0 52.32198 50.9936;" xml:space="preserve">
<style type="text/css">
	.st0{fill-rule:evenodd;clip-rule:evenodd;}
</style>
<g>
	<path class="st0" d="M15.07477,33.90596c-0.72229,0.62939-1.50745,0.94409-2.38684,0.94409
		c-2.10413,0-3.5802-1.54199-3.5802-3.77625c0-2.26581,1.41321-3.77631,3.51746-3.77631c0.8479,0,1.66443,0.28326,2.26111,0.81824
		l0.25134,0.22028l0.87927-1.00702l-0.21985-0.22028c-0.78503-0.72382-1.88428-1.13287-3.1405-1.13287
		c-2.8894,0-4.99353,2.17133-4.99353,5.16089c0,2.95807,2.10413,5.12939,4.99353,5.12939c1.85291,0,2.98352-1.03845,3.32898-1.35315
		l0.18848-0.22028l-0.84802-1.00702L15.07477,33.90596z"/>
	<path class="st0" d="M20.35101,32.55281h3.36035l1.4447,3.52454h1.50745l-4.0199-9.91272h-1.25623l-3.86292,9.91272h1.4447
		L20.35101,32.55281z M20.88483,31.19966l1.13062-2.86365l1.16199,2.86365H20.88483z"/>
	<path class="st0" d="M32.53632,30.72761c-0.34546-0.18878-0.69092-0.34613-1.03638-0.47205
		c-0.34546-0.12585-0.65942-0.2832-0.97351-0.44055c-0.53394-0.3147-0.78516-0.69232-0.78516-1.22729
		c0-0.81818,0.50244-1.29022,1.31897-1.29022c1.16211,0,1.38196,0.9126,1.41333,1.47906l0.03137,0.3147h1.35046v-0.3147
		c0-0.81818-0.25122-1.54199-0.75378-2.04547c-0.47107-0.50354-1.16199-0.75525-2.00989-0.75525
		c-1.60168,0-2.7323,1.10138-2.79517,2.64337c0,1.06995,0.47107,1.88812,1.38184,2.4231
		c0.37695,0.18884,0.75378,0.34619,1.13062,0.50348c0.34546,0.12592,0.65955,0.25177,0.97363,0.44061
		c0.59668,0.3147,0.8479,0.75525,0.8479,1.41608c0,0.9126-0.59668,1.5105-1.53882,1.5105
		c-1.06787,0-1.63318-0.62933-1.63318-1.85663v-0.3147h-1.41321v0.3147c0,1.98254,1.16199,3.17834,3.07776,3.17834
		c1.72729,0,2.98352-1.1958,2.98352-2.89514C34.10663,32.20668,33.57281,31.32551,32.53632,30.72761z"/>
	<path class="st0" d="M44.659,36.07734l-4.0199-9.91272h-1.25623l-3.86292,9.91272h1.4447l1.38184-3.52454h3.36035l1.4447,3.52454
		H44.659z M38.88031,31.19966l1.13062-2.86365l1.16199,2.86365H38.88031z"/>
	<path class="st0" d="M2.26129,40.8921H0.00006v9.94415h1.41321v-4.43713h0.84802c1.75867,0,2.92078-1.10138,2.92078-2.80072
		C5.18207,41.86763,4.1142,40.8921,2.26129,40.8921z M3.73724,43.62989c0,0.9126-0.50244,1.41608-1.47607,1.41608h-0.8479v-2.80072
		h0.8479C3.26617,42.24525,3.73724,42.7173,3.73724,43.62989z"/>
	<path class="st0" d="M9.61017,40.92353l-3.86292,9.91272h1.4447l1.38184-3.52454h3.36035l1.4447,3.52454h1.50745l-4.0199-9.91272
		H9.61017z M9.10773,45.95857l1.13062-2.86365l1.16199,2.86365H9.10773z"/>
	<polygon class="st0" points="18.24677,40.8921 16.83356,40.8921 16.83356,50.83625 21.26178,50.83625 21.26178,49.45161 
		18.24677,49.45161 	"/>
	<path class="st0" d="M27.51141,40.70326c-2.8894,0-4.99353,2.17139-4.99353,5.16089c0,2.95807,2.10413,5.12946,4.99353,5.12946
		c2.85791,0,5.0249-2.20282,4.99353-5.12946C32.50494,42.87465,30.4007,40.70326,27.51141,40.70326z M31.06024,45.86415
		c0,2.23431-1.44458,3.77631-3.54883,3.77631c-2.10413,0-3.54883-1.54199-3.54883-3.77631
		c0-2.20282,1.47607-3.77625,3.54883-3.77625C29.61566,42.0879,31.09174,43.62989,31.06024,45.86415z"/>
	<path class="st0" d="M37.27863,40.8921H35.0174v9.94415h1.41321v-4.43713h0.84802c1.75867,0,2.92078-1.10138,2.92078-2.80072
		C40.1994,41.86763,39.13153,40.8921,37.27863,40.8921z M36.43073,42.24525h0.8479c1.005,0,1.47607,0.47205,1.47607,1.38464
		s-0.50244,1.41608-1.47607,1.41608h-0.8479V42.24525z"/>
	<path class="st0" d="M47.04584,40.70326c-2.8894,0-4.99353,2.17139-4.99353,5.16089c0,2.95807,2.10413,5.12946,4.99353,5.12946
		c2.85791,0,5.0249-2.20282,4.99353-5.12946C52.03937,42.87465,49.93512,40.70326,47.04584,40.70326z M50.62604,45.86415
		c0,2.23431-1.44458,3.77631-3.54883,3.77631c-2.10413,0-3.54883-1.54199-3.54883-3.77631
		c0-2.20282,1.47607-3.77625,3.54883-3.77625S50.62604,43.62989,50.62604,45.86415z"/>
	<polygon class="st0" points="52.32196,38.68928 50.78302,38.68928 49.36981,40.98646 50.90875,40.98646 	"/>
	<path class="st0" d="M32.01624,5.93953c-0.72729-2.55615-3.07349-4.43427-5.85516-4.43427
		c-2.78491,0-5.133,1.88245-5.85748,4.44299c-2.51257,0.75323-4.34943,3.08746-4.34943,5.84735
		c0,2.76617,1.8454,5.10419,4.36676,5.85187c0.74622,2.52637,3.07947,4.37549,5.84015,4.37549
		c2.75079,0,5.07819-1.83569,5.83301-4.3656c2.54071-0.73535,4.40515-3.08173,4.40515-5.86176
		C36.39923,9.02357,34.54578,6.68202,32.01624,5.93953z M26.16095,2.16609c2.36707,0,4.37982,1.51575,5.13806,3.61285
		c-0.32379-0.05347-0.65375-0.08832-0.99243-0.08832c-1.59448,0-3.04297,0.62134-4.12988,1.62885
		c-1.08685-1.00751-2.53534-1.62885-4.12976-1.62885c-0.34827,0-0.68756,0.03607-1.02002,0.09253
		C21.78827,3.67671,23.79803,2.16609,26.16095,2.16609z M31.62555,7.61024c0,1.44757-0.56531,2.83221-1.60168,3.87067
		l-0.21985,0.22028l0.21985,0.22028c1.03638,1.00702,1.60168,2.39166,1.60168,3.96509c0,0.42059-0.05194,0.82843-0.14178,1.22192
		c-0.37958,0.0838-0.77271,0.13123-1.17719,0.13123c-1.41669,0-2.70428-0.54657-3.67584-1.43457
		c0.93658-1.07373,1.50885-2.47424,1.50885-4.00952c0-1.552-0.58527-2.96588-1.54016-4.04401
		c0.97504-0.90503,2.27527-1.46307,3.70715-1.46307c0.40649,0,0.80139,0.04803,1.18274,0.13263
		C31.57599,6.80476,31.62555,7.20179,31.62555,7.61024z M20.69635,15.88655c0-1.44757,0.56531-2.83221,1.63306-3.90216
		l0.25134-0.22028l-0.25134-0.22028c-1.03638-1.03845-1.63306-2.4231-1.63306-3.90216c0-0.41742,0.05103-0.82245,0.13959-1.21326
		c0.39008-0.08875,0.79425-0.13989,1.21088-0.13989c1.43188,0,2.73212,0.55804,3.70715,1.46307
		c-0.9549,1.07812-1.54016,2.492-1.54016,4.04401c0,1.53528,0.57233,2.93579,1.50891,4.00952
		c-0.97156,0.888-2.25922,1.43457-3.6759,1.43457c-0.41663,0-0.8208-0.05115-1.21088-0.13989
		C20.74738,16.709,20.69635,16.30397,20.69635,15.88655z M24.84198,11.76411c0-1.36761,0.50543-2.61609,1.33472-3.57635
		c0.82928,0.96027,1.33472,2.20874,1.33472,3.57635s-0.50543,2.61609-1.33472,3.57635
		C25.34741,14.3802,24.84198,13.13173,24.84198,11.76411z M16.58221,11.76411c0-2.35327,1.48932-4.35687,3.57147-5.13025
		c-0.05145,0.31873-0.08539,0.64331-0.08539,0.97638c0,1.57343,0.56531,3.021,1.60168,4.15387
		c-1.03638,1.13287-1.60168,2.61194-1.60168,4.15393c0,0.33307,0.03394,0.65759,0.08539,0.97632
		C18.07153,16.12098,16.58221,14.11738,16.58221,11.76411z M26.16095,21.36213c-2.33789,0-4.33026-1.47876-5.10962-3.55035
		c0.32477,0.05377,0.65582,0.08881,0.99561,0.08881c1.59442,0,3.04291-0.62134,4.12976-1.62885
		c1.08691,1.00751,2.5354,1.62885,4.12988,1.62885c0.32812,0,0.64789-0.03345,0.9621-0.08368
		C30.48792,19.88581,28.49695,21.36213,26.16095,21.36213z M32.16278,16.90791c0.05536-0.33276,0.09094-0.67242,0.09094-1.02136
		c0-1.63635-0.56531-3.08392-1.57031-4.18536c1.005-1.13287,1.57031-2.54895,1.57031-4.09094
		c0-0.33734-0.03448-0.66602-0.08722-0.98859c2.09955,0.76428,3.60468,2.77667,3.60468,5.14246
		C35.77118,14.13124,34.26428,16.14466,32.16278,16.90791z"/>
</g>
</svg>
