<?xml version="1.0" encoding="utf-8"?>
<!-- Generator: Adobe Illustrator 24.0.3, SVG Export Plug-In . SVG Version: 6.00 Build 0)  -->
<svg version="1.1" id="Layer_1" xmlns="http://www.w3.org/2000/svg" xmlns:xlink="http://www.w3.org/1999/xlink" x="0px" y="0px"
	 viewBox="0 0 89.24311 30.44597" style="enable-background:new 0 0 89.24311 30.44597;" xml:space="preserve">
<style type="text/css">
	.st0{filter:url(#Adobe_OpacityMaskFilter);}
	.st1{fill:#FFFFFF;}
	.st2{mask:url(#mask-2_1_);}
	.st3{fill-rule:evenodd;clip-rule:evenodd;}
</style>
<defs>
	<filter id="Adobe_OpacityMaskFilter" filterUnits="userSpaceOnUse" x="0" y="0" width="89.20331" height="30.44597">
		<feColorMatrix  type="matrix" values="1 0 0 0 0  0 1 0 0 0  0 0 1 0 0  0 0 0 1 0"/>
	</filter>
</defs>
<mask maskUnits="userSpaceOnUse" x="0" y="0" width="89.20331" height="30.44597" id="mask-2_1_">
	<rect class="st0" width="89.24311" height="30.44597"/>
	<g>
		<rect id="rect-1_1_" y="0.0399" class="st1" width="89.24311" height="30.24645"/>
	</g>
</mask>
<g class="st2">
	<g>
		<g>
			<g>
				<path class="st3" d="M48.70343,0.19951h0.1593c0.43805,0,1.71234,0.0399,2.5885,1.27689
					c0.83624,0.99757,0.83624,2.35428,0.79645,3.51146l-0.11951,7.50176v1.07738c-0.03979,0.43893-0.11945,1.67593-0.99554,2.51389
					c-0.3186,0.27932-0.677,0.47884-1.07526,0.63844c-0.1991,0.0399-0.31854,0.0798-0.47784,0.11971v0.11971
					c0,0.23942,0.07965,0.27932,0.11945,0.31922c0.07965,0.07981,0.27881,0.11971,0.5177,0.11971c0.3186,0,0.63721,0,0.95575-0.0399
					l0.39825,0.35912l-0.03986,1.91534l-0.3584,0.35913h-0.7168c-0.59735,0-1.0354-0.03991-1.35394-0.11971
					c-1.83191-0.39902-1.99115-1.91534-2.03101-3.11243c-0.47784-0.15961-0.7168-0.27932-0.99554-0.47884
					c-0.8761-0.63844-1.27435-1.71583-1.23456-3.19224v-0.0798l0.11951-7.86089c0-0.59854,0.03979-1.4365,0.1593-2.03505
					c0.07965-0.35913,0.27875-1.3168,1.19464-2.07495C46.95123,0.47883,47.74768,0.19951,48.70343,0.19951z M49.06183,14.36507
					c0.27875-0.19952,0.3584-0.71825,0.3584-1.67593l0.11945-8.41953V3.71098c-0.03979-0.59855-0.1991-0.95767-0.83624-0.95767
					h-0.03986c-0.27875,0-0.63715,0.07981-0.79645,0.47884v0.0399c-0.03979,0.15961-0.07965,0.35913-0.07965,0.51874
					l-0.1593,9.25749c-0.03278,0.55877,0.0155,0.79264,0.03351,0.88004c0.00385,0.01871,0.00635,0.0307,0.00635,0.03773v0.0399
					c0.07965,0.19952,0.23895,0.43893,0.79645,0.47884h0.03986C48.74323,14.48478,48.94238,14.44487,49.06183,14.36507z"/>
			</g>
			<g>
				<path class="st3" d="M61.96443,15.00352c0.23894-0.67835,0.31858-1.59612,0.35841-1.95525l0.79646-11.89109l-0.35841-0.39903
					l-2.03097-0.11971l-0.39823,0.35913l-0.79646,12.01079c-0.07965,1.03748-0.11947,1.43651-0.43805,1.67593
					c-0.11947,0.07981-0.27876,0.11971-0.43805,0.11971h-0.11947c-0.5177-0.0399-0.63717-0.27932-0.71681-0.51874
					c-0.11947-0.35913-0.07965-0.79806-0.03983-1.23699l0.75664-12.21031l-0.35841-0.39903l-2.03097-0.11971l-0.39823,0.35913
					L54.9556,12.92856c-0.07965,0.91777,0,1.43651,0.15929,1.99515c0.55752,1.91534,2.38937,2.23457,3.14601,2.31437h0.31858
					C59.57505,17.23808,61.28744,16.95876,61.96443,15.00352L61.96443,15.00352z"/>
			</g>
			<g>
				<path class="st3" d="M36.71671,7.54166c0.31858,0.47884,0.63717,0.91777,0.91592,1.3168
					c0.35841,0.47884,0.71681,0.99757,1.07522,1.51631c0.59734,0.87786,0.75664,1.43651,0.75664,2.47398v0.0399
					c0.03982,0.91777-0.03983,1.3966-0.59734,1.3966h-0.03983c-0.19911,0-0.31858-0.07981-0.39823-0.11971
					c-0.15929-0.07981-0.27876-0.23942-0.31858-0.95767l-0.07964-2.79321l-0.35841-0.35913l-1.9115,0.0399l-0.31858,0.39903
					l0.07965,2.51389c0.03982,0.95767,0.11947,1.87544,0.83628,2.6336c0.31858,0.35913,1.07522,0.95767,2.46902,0.95767h0.11947
					c0.59734,0,1.07522-0.11971,1.51327-0.31922c1.75221-0.83796,1.87168-2.91292,1.83185-3.79078
					c-0.03982-0.95767-0.19911-2.15476-1.3938-3.87059c-0.23894-0.35913-0.47787-0.67835-0.71681-0.99757
					c-0.07965-0.11971-0.19912-0.23942-0.27876-0.35913c-0.23894-0.31922-0.43805-0.59854-0.67699-0.91777
					c-0.71681-1.03748-1.0354-1.67592-1.07522-2.83311c0-0.27932,0-0.67835,0.07964-0.91777
					c0.07965-0.15961,0.15929-0.27932,0.55752-0.31922h0.03982c0.31858,0,0.39823,0.15961,0.43805,0.59854v0.07981l0.07965,2.6735
					l0.35841,0.35913l1.87167-0.0399l0.35841-0.35913l-0.07964-2.7134c0-0.63845-0.11947-0.95767-0.19912-1.23699
					C41.25652,0.55864,40.3406,0,38.98662,0H38.7875c-0.79646,0.0399-1.43362,0.19951-1.95132,0.51874
					c-0.47787,0.27932-1.55309,1.15719-1.47345,3.31195C35.44238,5.66622,36.35831,6.98302,36.71671,7.54166L36.71671,7.54166z"/>
			</g>
			<g>
				<path class="st3" d="M27.67691,17.35779l5.17698-0.39903l0.31858-0.35913l-0.11947-1.99515l-0.39823-0.35913l-2.70796,0.19951
					l-0.31858-4.46913l2.38937-0.15961l0.31858-0.39903l-0.11947-1.95525l-0.39823-0.31922l-2.38937,0.15961l-0.27876-3.87059
					l2.70796-0.19951l0.35841-0.39903l-0.15929-1.95525L31.6592,0.51874l-5.17698,0.39903L26.16364,1.3168l1.11504,15.68187
					L27.67691,17.35779z"/>
			</g>
			<g>
				<path class="st3" d="M10.95129,2.95282l2.46899-0.39903l0.43805,0.19952l4.89825,15.16313l-0.27881,0.47884l-1.99115,0.31922
					l-0.39819-0.23942l-0.75665-2.47398l-1.7124,0.27932l0.07965,2.5937l-0.31854,0.35912l-1.99115,0.31923l-0.43805-0.35913
					l-0.3186-15.88138L10.95129,2.95282z M13.22119,8.97817l0.23895,4.62875l1.0354-0.19952L13.22119,8.97817z"/>
			</g>
			<g>
				<path class="st3" d="M67.18123,1.2769l-0.43805,0.31922l-1.67256,15.64196l0.31858,0.43893l2.03097,0.19951l0.39823-0.31922
					l1.71238-15.64197L69.2122,1.51631L67.18123,1.2769z"/>
			</g>
			<g>
				<path class="st3" d="M86.53516,4.50904l2.4292,0.59854l0.23895,0.35913L87.88916,21.3481l-0.43805,0.31922l-1.95135-0.47884
					l-0.27875-0.39903l0.23895-2.59369l-1.67255-0.39903l-0.91595,2.43408l-0.43805,0.23942l-1.95129-0.47884l-0.23895-0.47884
					l5.85394-14.7641L86.53516,4.50904z M84.70331,15.36265l1.0354,0.23942l0.5177-4.58884L84.70331,15.36265z"/>
			</g>
			<g>
				<path class="st3" d="M80.24314,3.23214l-1.9115-0.31922l-0.43806,0.31922l-1.11504,7.30224l-0.5177-7.66137l-0.27876-0.35913
					l-2.23008-0.31922l-0.39823,0.27932l-2.50884,15.56216l0.31859,0.39903l1.9115,0.31922l0.43805-0.31922l1.11504-7.78108
					l0.43805,8.14021l0.31858,0.31922l2.26991,0.35913l0.39823-0.27932l2.50884-15.56216L80.24314,3.23214z"/>
			</g>
			<g>
				<path class="st3" d="M8.68139,17.15828l-2.98672,0.71825L2.70796,5.26719L2.26991,4.98787L0.27876,5.46671L0,5.90564
					l3.50442,14.84391l0.43805,0.27932l5.33627-1.23699l0.27876-0.43893L9.11944,17.4376L8.68139,17.15828z"/>
			</g>
			<g>
				<path class="st3" d="M14.97341,29.4883h-0.8761v-1.83554c0-0.0399-0.03982-0.07981-0.07965-0.07981h-0.59734
					c-0.03982,0-0.11947,0.0399-0.11947,0.07981v2.47398c0,0.0399,0.03982,0.07981,0.11947,0.07981h1.59292
					c0.03982,0,0.07965,0,0.07965-0.07981v-0.51874C15.05306,29.5681,15.01323,29.4883,14.97341,29.4883L14.97341,29.4883z"/>
			</g>
			<g>
				<path class="st3" d="M17.6814,27.57295c0.03979,0,0.07965,0,0.07965,0.0399l0.99554,2.47398v0.0399
					c0,0.03991-0.03979,0.07981-0.07965,0.07981h-0.677c-0.03979,0-0.07959,0-0.07959-0.0399l-0.11951-0.31923h-0.79645
					l-0.11945,0.31923c0,0.0399-0.03986,0.0399-0.07965,0.0399h-0.677c-0.03986,0-0.07965,0-0.07965-0.0399v-0.07981
					l0.91595-2.47398c0,0,0.03979-0.0399,0.07959-0.0399H17.6814z M17.12384,29.12917h0.39825l-0.19916-0.63845L17.12384,29.12917z"
					/>
			</g>
			<g>
				<path class="st3" d="M24.13268,29.4883l-0.47787-0.23942c-0.03982-0.0399-0.07965,0-0.11947,0.0399v0.0399
					c-0.07965,0.11971-0.15929,0.31922-0.43805,0.31922c-0.11947,0-0.19911-0.0399-0.23894-0.0399
					c-0.15929-0.07981-0.23894-0.23942-0.27876-0.51874v-0.15961c0-0.35913,0.15929-0.51874,0.19912-0.55864
					c0.11947-0.11971,0.23894-0.11971,0.31858-0.11971c0.23894,0,0.35841,0.15961,0.35841,0.19951
					c0,0,0.03982,0.0399,0.07965,0.11971c0.03982,0.0399,0.07965,0.07981,0.11947,0.0399l0.47787-0.23942
					c0.03982,0,0.03982-0.0399,0.03982-0.0399V28.2513c-0.03982-0.0399-0.07965-0.15961-0.15929-0.23942
					c-0.23894-0.27932-0.55752-0.39903-0.95575-0.39903c-0.5177,0-0.83628,0.27932-0.95575,0.47884
					c-0.19911,0.23942-0.31858,0.59855-0.31858,0.95767c0,0.27932,0.07965,0.99757,0.71681,1.27689
					c0.23894,0.07981,0.43805,0.11971,0.55752,0.11971c0.5177,0,0.83628-0.31922,0.95575-0.43893
					c0.03982-0.0399,0.07965-0.11971,0.15929-0.23942v-0.07981C24.1725,29.5282,24.1725,29.4883,24.13268,29.4883L24.13268,29.4883z
					"/>
			</g>
			<g>
				<path class="st3" d="M25.52649,28.05179c0.1991-0.27932,0.5177-0.55864,1.0752-0.55864
					c0.47791,0,0.79645,0.23942,0.95575,0.39903c0.23895,0.23942,0.39825,0.63844,0.39825,1.03748
					c0,0.43893-0.19916,0.87786-0.5177,1.11728c-0.23895,0.19952-0.5177,0.27933-0.8363,0.27933
					c-0.23895,0-0.63715-0.07981-0.95575-0.39903c-0.3186-0.35913-0.3584-0.83797-0.3584-1.03748
					C25.28754,28.73014,25.32733,28.37102,25.52649,28.05179z M26.60168,29.60801c0.07965,0,0.23895,0,0.35846-0.15961
					c0.11945-0.11971,0.15924-0.27932,0.15924-0.47884c0-0.31922-0.11945-0.51874-0.15924-0.55864
					c-0.03986-0.07981-0.11951-0.11971-0.19916-0.15961c-0.03979-0.0399-0.11945-0.0399-0.1991-0.0399
					c-0.11945,0-0.1991,0.0399-0.23895,0.0399c-0.23895,0.15961-0.27875,0.51874-0.27875,0.63845
					c0,0.23942,0.07965,0.43893,0.1991,0.55864C26.32294,29.56811,26.48224,29.60801,26.60168,29.60801z"/>
			</g>
			<g>
				<path class="st3" d="M31.46009,29.4883l-0.47787-0.23942c-0.03982-0.0399-0.07965,0-0.11947,0.0399v0.0399
					c-0.07965,0.11971-0.15929,0.31922-0.43805,0.31922c-0.11947,0-0.19911-0.0399-0.23894-0.0399
					c-0.15929-0.07981-0.23894-0.23942-0.27876-0.51874v-0.15961c0-0.35913,0.15929-0.51874,0.19912-0.55864
					c0.11947-0.11971,0.23894-0.11971,0.31858-0.11971c0.23894,0,0.35841,0.15961,0.35841,0.19951
					c0,0,0.03982,0.0399,0.07965,0.11971c0.03982,0.0399,0.07965,0.07981,0.11947,0.0399l0.47787-0.23942
					c0.03982,0,0.03982-0.0399,0.03982-0.0399V28.2513c-0.03982-0.0399-0.07965-0.15961-0.15929-0.23942
					c-0.23894-0.27932-0.55752-0.39903-0.95575-0.39903c-0.5177,0-0.83628,0.27932-0.95575,0.47884
					c-0.19911,0.23942-0.31858,0.59855-0.31858,0.95767c0,0.27932,0.07965,0.99757,0.71681,1.27689
					c0.23894,0.07981,0.43805,0.11971,0.55752,0.11971c0.5177,0,0.83628-0.31922,0.95575-0.43893
					c0.03982-0.0399,0.07965-0.11971,0.15929-0.23942v-0.07981C31.49991,29.5282,31.49991,29.4883,31.46009,29.4883
					L31.46009,29.4883z"/>
			</g>
			<g>
				<path class="st3" d="M33.53088,27.65276c0-0.0399-0.03982-0.07981-0.07965-0.07981h-0.59734
					c-0.03982,0-0.07964,0.0399-0.07964,0.07981v2.47398c0,0.0399,0.03982,0.07981,0.07964,0.07981h0.59734
					c0.03983,0,0.07965-0.0399,0.07965-0.07981V27.65276L33.53088,27.65276z"/>
			</g>
			<g>
				<path class="st3" d="M36.99547,27.57295h-0.59734c-0.03982,0-0.03982,0-0.07965,0.0399c0,0-0.03982,0.0399-0.03982,0.07981
					v1.23699l-0.71681-1.2769c0-0.0399-0.03982-0.0399-0.07965-0.0399h-0.59734c-0.03982,0-0.11947,0.0399-0.11947,0.07981v2.47398
					c0,0.0399,0.03983,0.07981,0.11947,0.07981h0.67699l0.03982-0.0399v-1.19709l0.71681,1.23699
					c0,0.0399,0.03983,0.0399,0.07965,0.0399h0.59734c0.03982,0,0.11947,0,0.11947-0.07981v-2.47398
					C37.11494,27.61286,37.03529,27.57295,36.99547,27.57295L36.99547,27.57295z"/>
			</g>
			<g>
				<path class="st3" d="M39.18573,27.65276c0-0.0399-0.03982-0.07981-0.07964-0.07981h-0.59734
					c-0.03983,0-0.07965,0.0399-0.07965,0.07981v2.47398c0,0.0399,0.03982,0.07981,0.07965,0.07981h0.59734
					c0.03982,0,0.07964-0.0399,0.07964-0.07981V27.65276L39.18573,27.65276z"/>
			</g>
			<g>
				<path class="st3" d="M42.37156,27.57295h-1.9115c-0.03982,0-0.11947,0.0399-0.11947,0.07981v0.47884
					c0,0.0399,0.07965,0.0399,0.11947,0.0399h0.55752v1.95525c0,0.0399,0,0.07981,0.07964,0.07981h0.63717
					c0.03982,0,0.07964,0,0.07964-0.07981V28.1715h0.55752c0.03982,0,0.07965,0,0.07965-0.0399v-0.47884
					C42.45121,27.61286,42.41138,27.57295,42.37156,27.57295L42.37156,27.57295z"/>
			</g>
			<g>
				<path class="st3" d="M44.84058,27.57295c0.03979,0,0.07965,0,0.07965,0.0399l0.99554,2.47398v0.0399
					c0,0.03991-0.03979,0.07981-0.07965,0.07981h-0.677c-0.03979,0-0.07959,0-0.07959-0.0399l-0.11951-0.31923h-0.79645
					l-0.11945,0.31923c0,0.0399-0.03986,0.0399-0.07965,0.0399h-0.677c-0.03986,0-0.07965,0-0.07965-0.0399v-0.07981
					l0.91595-2.47398c0,0,0.03979-0.0399,0.07959-0.0399H44.84058z M44.48218,28.49072l-0.1991,0.63845h0.39825L44.48218,28.49072z"
					/>
			</g>
			<g>
				<path class="st3" d="M50.13702,27.57295c0.11945,0,0.5177,0.0399,0.83624,0.27932c0.07965,0.0798,0.1593,0.15961,0.1593,0.23942
					c0.11951,0.19952,0.1991,0.43893,0.1991,0.75816c0,0.51874-0.1991,0.79806-0.31854,0.95767
					c-0.07965,0.11971-0.27875,0.27932-0.59735,0.35913c-0.11945,0.0399-0.23895,0.0399-0.39825,0.0399h-0.95575
					c-0.07965,0-0.11945-0.0399-0.11945-0.07981v-2.47398c0-0.0399,0.07965-0.0798,0.11945-0.0798H50.13702z M50.41577,29.40849
					c0.11951-0.11971,0.19916-0.23942,0.19916-0.51874c0-0.19952-0.03986-0.31923-0.11951-0.47884
					c-0.03979,0-0.07965-0.07981-0.1991-0.11971s-0.1991-0.0399-0.27875-0.0399h-0.23895v1.23699h0.11945
					c0.0412,0,0.08069,0.00171,0.11884,0.00336C50.16315,29.49798,50.28949,29.50343,50.41577,29.40849z"/>
			</g>
			<g>
				<path class="st3" d="M54.63702,29.5681h-1.27433v-0.43893h1.07522c0.03983,0,0.03983-0.0399,0.03983-0.07981v-0.47884
					c0-0.0399,0-0.15961-0.03983-0.15961h-1.07522V28.1316h1.15487c0.03982,0,0.07965,0,0.07965-0.0399v-0.47884
					c0-0.0399,0-0.07981-0.07965-0.07981H52.6857c-0.03983,0-0.11947,0.0399-0.11947,0.07981v2.47399
					c0,0.0399,0.07964,0.07981,0.11947,0.07981h1.95132c0.03982,0,0.11947,0,0.11947-0.07981v-0.47884
					C54.75648,29.60801,54.71666,29.5681,54.63702,29.5681L54.63702,29.5681z"/>
			</g>
			<g>
				<path class="st3" d="M57.58391,29.4883h-0.91593v-1.83554c0-0.0399,0-0.07981-0.07965-0.07981h-0.59734
					c-0.03982,0-0.11947,0.0399-0.11947,0.07981v2.47398c0,0.0399,0.07965,0.07981,0.11947,0.07981h1.59292
					c0.03982,0,0.03982,0,0.03982-0.07981v-0.51874C57.66356,29.5681,57.66356,29.4883,57.58391,29.4883L57.58391,29.4883z"/>
			</g>
			<g>
				<path class="st3" d="M63.11929,27.57295H62.4423c-0.03982,0-0.07964,0.0399-0.07964,0.07981l-0.43805,1.47641l-0.43805-1.47641
					c0-0.0399-0.03982-0.07981-0.07964-0.07981h-0.67699c-0.03982,0-0.03982,0-0.07965,0.0399c0,0.0399-0.03982,0.0399,0,0.07981
					l0.83628,2.47398c0,0.0399,0.03983,0.0399,0.07965,0.0399h0.63717c0.03983,0,0.07965,0,0.07965-0.0399l0.8761-2.47398v-0.07981
					C63.19894,27.57295,63.15911,27.57295,63.11929,27.57295L63.11929,27.57295z"/>
			</g>
			<g>
				<path class="st3" d="M65.62817,27.57295c0.03979,0,0.07965,0,0.07965,0.0399l0.99554,2.47398v0.0399
					c0,0.03991-0.03979,0.07981-0.07965,0.07981h-0.677c-0.03979,0-0.07959,0-0.07959-0.0399l-0.11951-0.31923h-0.79645
					l-0.11945,0.31923c0,0.0399-0.03986,0.0399-0.07965,0.0399h-0.677c-0.03986,0-0.07965,0-0.07965-0.0399v-0.07981
					l0.91595-2.47398c0,0,0.03979-0.0399,0.07959-0.0399H65.62817z M65.07062,29.12917h0.39825l-0.19916-0.63845L65.07062,29.12917z
					"/>
			</g>
			<g>
				<path class="st3" d="M69.41131,29.4883h-0.91592v-1.83554c0-0.0399-0.03983-0.07981-0.07964-0.07981H67.8184
					c-0.03983,0-0.07965,0.0399-0.07965,0.07981v2.47398c0,0.0399,0.03983,0.07981,0.07965,0.07981h1.59291
					c0.03983,0,0.07965,0,0.07965-0.07981v-0.51874C69.49096,29.5681,69.45113,29.4883,69.41131,29.4883L69.41131,29.4883z"/>
			</g>
			<g>
				<path class="st3" d="M72.35821,29.4883H71.4821v-1.83554c0-0.0399-0.03983-0.07981-0.11947-0.07981h-0.59734
					c-0.03983,0-0.07964,0.0399-0.07964,0.07981v2.47398c0,0.0399,0,0.07981,0.07964,0.07981h1.59292
					c0.03982,0,0.11947,0,0.11947-0.07981v-0.51874C72.43785,29.5681,72.39803,29.4883,72.35821,29.4883L72.35821,29.4883z"/>
			</g>
			<g>
				<path class="st3" d="M75.66351,29.5681h-1.27433v-0.43893h1.07522c0.03982,0,0.03982-0.0399,0.03982-0.07981v-0.47884
					c0-0.0399,0-0.15961-0.03982-0.15961h-1.07522V28.1316h1.15486c0.03983,0,0.03983,0,0.03983-0.0399v-0.47884
					c0-0.0399,0-0.07981-0.03983-0.07981h-1.83186c-0.03982,0-0.11947,0.0399-0.11947,0.07981v2.47399
					c0,0.0399,0.07965,0.07981,0.11947,0.07981h1.95132c0.03983,0,0.11947,0,0.11947-0.07981v-0.47884
					C75.78297,29.60801,75.70333,29.5681,75.66351,29.5681L75.66351,29.5681z"/>
			</g>
		</g>
	</g>
</g>
</svg>
