<?xml version="1.0" encoding="utf-8"?>
<!-- Generator: Adobe Illustrator 24.0.3, SVG Export Plug-In . SVG Version: 6.00 Build 0)  -->
<svg version="1.1" id="Layer_1" xmlns="http://www.w3.org/2000/svg" xmlns:xlink="http://www.w3.org/1999/xlink" x="0px" y="0px"
	 viewBox="0 0 52.328 30.24646" style="enable-background:new 0 0 52.328 30.24646;" xml:space="preserve">
<style type="text/css">
	.st0{filter:url(#Adobe_OpacityMaskFilter);}
	.st1{fill:#FFFFFF;}
	.st2{mask:url(#mask-2_1_);}
	.st3{fill-rule:evenodd;clip-rule:evenodd;}
</style>
<defs>
	<filter id="Adobe_OpacityMaskFilter" filterUnits="userSpaceOnUse" x="0.00002" y="0" width="52.2828" height="30.24646">
		<feColorMatrix  type="matrix" values="1 0 0 0 0  0 1 0 0 0  0 0 1 0 0  0 0 0 1 0"/>
	</filter>
</defs>
<mask maskUnits="userSpaceOnUse" x="0.00002" y="0" width="52.2828" height="30.24646" id="mask-2_1_">
	<rect class="st0" width="52.328" height="30.24646"/>
	<g>
		<rect id="rect-1_1_" class="st1" width="52.328" height="30.24645"/>
	</g>
</mask>
<g class="st2">
	<g>
		<g>
			<g>
				<path class="st3" d="M44.51043,2.76203h5.3774V0L44.51043,2.76203z"/>
			</g>
			<g>
				<path class="st3" d="M16.81003,30.24645V4.9807h3.16318v25.22047h-3.16318V30.24645z"/>
			</g>
			<g>
				<path class="st3" d="M7.77242,17.11551l1.17487-3.26009l1.80756-4.70903c0.13556-0.36224,0.22595-0.72446,0.22595-1.13198
					c0-0.49807-0.04523-0.99614-0.22595-1.40365c0,0-0.04523-0.09056-0.09039-0.22639
					c-0.27112-0.4528-0.76819-1.35838-2.8017-1.35838H0.00002v25.22047h6.46191c4.74475,0,6.32635-2.26396,6.32635-7.10883
					C12.78829,19.65113,10.98079,17.65886,7.77242,17.11551z M7.59163,5.88629c0,0,0.85852,0,0.76819,0.99614
					c0,0.13584-0.04523,0.27168-0.09039,0.40752L8.04347,7.87857c0,0.04528,0,0.04528-0.04517,0.09056l-1.1297,3.12426
					l-3.9314,10.86699V5.88629H7.59163z M6.50716,29.34088c0.63263,0,1.22003-0.27168,1.62677-0.76975
					c0.85858-1.04142,1.31042-2.8073,1.35565-5.20709c0-2.80731-0.76825-4.3468-2.1239-5.02599L3.34395,29.34088H6.50716z"/>
			</g>
			<g>
				<path class="st3" d="M28.69454,29.38615c-0.22594-0.04528-0.54226-0.22639-0.49707-0.81502
					c0-0.09056,0.04519-0.22639,0.04519-0.31695l8.22426-22.549V4.9807H24.58241v0.90558h7.682
					c0.13557,0,0.67783,0.13584,0.58745,0.8603c0,0.09056-0.04519,0.2264-0.04519,0.31695l-0.04519,0.18112l-8.17907,22.14149
					v0.8603h12.02008v-0.8603H28.69454L28.69454,29.38615z"/>
			</g>
			<g>
				<path class="st3" d="M43.24516,4.89014v17.93053c0,4.75431,1.1749,6.61075,3.97657,6.61075
					c2.03347,0,4.29288-0.45279,4.29288-6.74659V4.89014h0.7682v17.74942c0,5.65989-2.21423,7.56161-5.60334,7.56161
					c-4.51883,0-6.59748-2.08284-6.59748-8.15024V4.89014H43.24516L43.24516,4.89014z"/>
			</g>
		</g>
	</g>
</g>
</svg>
