<?xml version="1.0" encoding="utf-8"?>
<!-- Generator: Adobe Illustrator 24.0.3, SVG Export Plug-In . SVG Version: 6.00 Build 0)  -->
<svg version="1.1" id="Layer_1" xmlns="http://www.w3.org/2000/svg" xmlns:xlink="http://www.w3.org/1999/xlink" x="0px" y="0px"
	 viewBox="0 0 98.21282 30.295" style="enable-background:new 0 0 98.21282 30.295;" xml:space="preserve">
<style type="text/css">
	.st0{filter:url(#Adobe_OpacityMaskFilter);}
	.st1{fill:#FFFFFF;}
	.st2{mask:url(#mask-2_1_);}
	.st3{fill-rule:evenodd;clip-rule:evenodd;}
</style>
<defs>
	<filter id="Adobe_OpacityMaskFilter" filterUnits="userSpaceOnUse" x="0.00006" y="0" width="98.21277" height="30.295">
		<feColorMatrix  type="matrix" values="1 0 0 0 0  0 1 0 0 0  0 0 1 0 0  0 0 0 1 0"/>
	</filter>
</defs>
<mask maskUnits="userSpaceOnUse" x="0.00006" y="0" width="98.21277" height="30.295" id="mask-2_1_">
	<rect class="st0" width="98.21282" height="30.295"/>
	<g>
		<rect id="rect-1_1_" y="0.04855" class="st1" width="98.21272" height="30.24645"/>
	</g>
</mask>
<g class="st2">
	<g>
		<g>
			<g>
				<g>
					<path class="st3" d="M55.42937,25.00308c0,0.04855-0.04846,0.04855-0.04846,0.0971c0,0.04855-0.04846,0.04855-0.04846,0.0971
						l-0.19385,0.1942l-0.0968,0.0971l-0.19385,0.1942l-0.09692,0.09711c-0.19385,0.1942-0.43604,0.3884-0.67834,0.53404
						s-0.4845,0.2913-0.72681,0.3884c-0.24219,0.0971-0.53296,0.1942-0.77515,0.24275c-0.53308,0.09709-1.1145,0.09709-1.64746,0
						c-0.29065-0.04855-0.53296-0.14565-0.77515-0.24275c-0.24231-0.0971-0.53308-0.24275-0.72681-0.3884
						c-0.24231-0.14565-0.48462-0.33984-0.67834-0.53404c-0.19385-0.19421-0.3877-0.43695-0.53296-0.6797
						c-0.14539-0.24274-0.29077-0.4855-0.3877-0.72824c-0.09692-0.24275-0.19373-0.53405-0.24219-0.77679
						c-0.04846-0.2913-0.09692-0.53405-0.09692-0.82535c0-0.1942,0-0.43694,0.04846-0.63114
						c0.14539,0.14565,0.33911,0.24274,0.4845,0.33984c0.38757,0.24275,0.82373,0.4855,1.25977,0.63115
						c0.43604,0.1942,0.87219,0.2913,1.30823,0.3884s0.92053,0.14565,1.35669,0.14565c0.58142,0,1.11438-0.0971,1.64734-0.33984
						c0.4845-0.1942,0.96899-0.53405,1.30823-0.87389c0.38757-0.3884,0.67834-0.82535,0.92053-1.31084
						c0.24231-0.53405,0.33923-1.06809,0.33923-1.65069s-0.09692-1.11665-0.33923-1.65069
						c-0.19373-0.4855-0.53296-0.97099-0.92053-1.31084c-0.3877-0.3884-0.82373-0.6797-1.30823-0.92244
						c-0.53296-0.24275-1.06592-0.33985-1.64734-0.33985h-0.14539c-0.4845,0-0.96912,0.04855-1.40515,0.14565
						c-0.4845,0.09709-0.92053,0.24274-1.40515,0.3884c-0.33911,0.14565-0.62988,0.2913-0.92053,0.43694
						c0-0.14565,0.04846-0.33984,0.04846-0.4855c0.04846-0.24275,0.09692-0.4855,0.19385-0.72824
						c0.0968-0.24275,0.19373-0.4855,0.33911-0.6797c0.14539-0.24274,0.29065-0.43694,0.4845-0.63114s0.3877-0.33985,0.62988-0.4855
						c0.19385-0.14565,0.43604-0.24275,0.67834-0.33985s0.4845-0.14565,0.72681-0.1942c0.4845-0.0971,1.01746-0.0971,1.50195,0
						c0.24231,0.04855,0.48462,0.0971,0.72681,0.1942c0.24231,0.0971,0.4845,0.1942,0.67834,0.33985
						c0.24231,0.14565,0.43604,0.2913,0.62988,0.4855l2.27722-2.28184c-0.33911-0.33984-0.72668-0.63114-1.11438-0.92244
						c-0.38757-0.24275-0.82361-0.4855-1.25977-0.63115c-0.43604-0.1942-0.87207-0.2913-1.30823-0.3884
						c-0.87207-0.1942-1.84119-0.1942-2.71326,0c-0.43604,0.0971-0.87219,0.24275-1.30823,0.3884
						c-0.43604,0.1942-0.87219,0.3884-1.25977,0.63115c-0.38757,0.24274-0.77527,0.5826-1.11438,0.92244
						c-0.33923,0.33985-0.62988,0.72825-0.92065,1.11665c-0.24219,0.3884-0.4845,0.82534-0.62988,1.26229
						c-0.19373,0.43694-0.29065,0.87389-0.38757,1.31084c-0.09692,0.43695-0.14539,0.92245-0.14539,1.3594
						c0,0.43694,0.04846,0.92244,0.14539,1.35939c0.09692,0.3884,0.19385,0.77679,0.33911,1.16519
						c-0.14526,0.2913-0.33911,0.5826-0.43604,0.92244c-0.19385,0.43695-0.33911,0.92245-0.38757,1.40794
						c-0.09692,0.4855-0.14539,0.97099-0.14539,1.40794c0,0.4855,0.04846,0.97099,0.14539,1.40794
						c0.09692,0.4855,0.24219,0.92245,0.38757,1.40794c0.19385,0.43695,0.43604,0.87389,0.67834,1.31084
						c0.29077,0.43695,0.58142,0.82535,0.96899,1.16519c0.33923,0.33985,0.77527,0.6797,1.16296,0.971
						c0.38757,0.2913,0.87207,0.4855,1.30811,0.6797c0.43616,0.1942,0.92065,0.33984,1.40515,0.3884
						c0.4845,0.0971,0.96912,0.14565,1.40515,0.14565c0.4845,0,0.96899-0.04855,1.40515-0.14565
						c0.4845-0.0971,0.92053-0.24275,1.40503-0.3884c0.43616-0.1942,0.87219-0.43695,1.30823-0.6797
						c0.43604-0.2913,0.82373-0.5826,1.16284-0.971l0.14539-0.14565c0.04846-0.04855,0.09692-0.0971,0.14539-0.1942
						c0.04846-0.04855,0.09692-0.0971,0.14526-0.1942c0.04846-0.04855,0.09692-0.0971,0.14539-0.1942
						c0.04846-0.04855,0.09692-0.0971,0.14539-0.1942c0.04846-0.04855,0.09692-0.0971,0.14539-0.1942
						c0.04846-0.04855,0.09692-0.14565,0.14539-0.1942c0.04834-0.04855,0.0968-0.14565,0.0968-0.1942L55.42937,25.00308z
						 M13.13067,10.09834c0.96899,0.43695,1.88953,1.01955,2.66479,1.79634c0.72681,0.77679,1.35669,1.69923,1.79272,2.67023
						c0.43616,1.0681,0.67834,2.18474,0.67834,3.30138v12.04032h-3.19788c0-0.72825-0.19373-1.4565-0.58142-2.13618
						c-0.38757-0.6797-0.96899-1.31084-1.74426-1.89344s-1.6958-1.01955-2.76172-1.35939
						c-0.62988-0.14565-1.25977-0.2913-1.88965-0.3884c0.29065,0.5826,0.38757,1.16519,0.38757,1.74779
						s-0.09692,1.11665-0.33911,1.65069c-0.24231,0.53404-0.53296,0.97099-0.92065,1.35939
						c-0.38757,0.3884-0.87207,0.72825-1.35669,0.92245c-0.53296,0.24274-1.06592,0.33984-1.64734,0.33984
						s-1.11438-0.14565-1.59888-0.2913c-0.53296-0.24274-0.96912-0.53404-1.35669-0.92244s-0.72681-0.8739-0.92065-1.35939
						c-0.24219-0.53405-0.33911-1.0681-0.33911-1.6507s0.09692-1.16519,0.29077-1.65069
						c0.29065-0.63114,0.67822-1.21374,1.16284-1.69923c0.33911-0.33985,0.77515-0.63115,1.2113-0.87389
						c-0.19385-0.29131-0.33923-0.5826-0.48462-0.8739c-0.53296-1.01954-0.77515-1.99053-0.77515-2.91298
						c0-1.16519,0.24219-2.28183,0.67834-3.30138c0.38757-1.01955,1.01746-1.94199,1.79272-2.71878
						c0.77515-0.77679,1.64734-1.35939,2.6648-1.79634c1.06604-0.43694,2.18042-0.6797,3.2948-0.6797
						C10.99871,9.41864,12.11309,9.66139,13.13067,10.09834z M73.45367,16.26414c0.72668-1.84489,1.45349-3.59267,1.93799-4.90352
						l0.77527-1.94199h-3.44006c-0.53296,1.31084-1.55054,3.83543-2.27734,5.63177
						c-0.77515,1.89343-1.55042,3.88397-2.22876,5.63176c-0.29065,0.77679-0.58142,1.50504-0.87219,2.13618
						c-0.33911-0.1942-0.72668-0.3884-1.06592-0.53404c-0.87207-0.33985-1.6958-0.53405-2.56799-0.53405
						c-0.58142,0-1.11438,0.14565-1.64734,0.3884c-0.4845,0.24275-0.92053,0.5826-1.25977,0.97099
						c-0.33911,0.3884-0.62988,0.82535-0.82361,1.35939c-0.19385,0.53405-0.29077,1.06809-0.29077,1.60214
						s0.09692,1.06809,0.33911,1.60213c0.19385,0.4855,0.48462,0.92245,0.87219,1.31084s0.82373,0.6797,1.30823,0.87389
						s1.01746,0.33985,1.59888,0.33985c0.87219,0,1.74426-0.1942,2.51953-0.5826c0.62988-0.2913,1.2113-0.72825,1.74426-1.26229
						c0.14539-0.14565,0.33923-0.33985,0.48462-0.53405c0.29065,0.24274,0.58142,0.4855,0.87207,0.6797
						c0.92065,0.63115,1.98657,1.06809,3.14941,1.26229c0.87219,0.14565,1.84119,0.14565,2.81018,0
						c0.67834-0.0971,1.35669-0.2913,2.03503-0.4855c0.4845-0.1942,0.82373-0.2913,0.87219-0.33984l-1.35669-2.91298
						c0,0-0.19385,0.09709-0.53296,0.1942c-0.33923,0.09709-0.87219,0.29129-1.45361,0.33984
						c-0.67834,0.0971-1.25977,0.0971-1.84119,0c-0.67834-0.0971-1.25977-0.33984-1.79272-0.6797
						c-0.38757-0.24275-0.77527-0.5826-1.2113-0.97099c0.33911-0.82535,0.72681-1.84489,1.16284-2.96153
						C71.90313,20.19667,72.6784,18.15759,73.45367,16.26414z M39.05254,12.47726c-0.96912-0.92244-2.0835-1.69923-3.34326-2.18473
						c-1.30823-0.53405-2.66479-0.82535-4.06994-0.82535c-1.16284,0-2.42261,0.0971-3.68237,0.33985
						c-1.11438,0.1942-2.22876,0.4855-3.34326,0.87389c-0.96899,0.2913-1.88965,0.6797-2.76172,1.06809
						c-0.77527,0.33984-1.45361,0.6797-1.93811,1.01954l1.6958,2.71878c0.33923-0.24274,0.92065-0.4855,1.50208-0.77679
						c0.77527-0.33984,1.59888-0.6797,2.42261-0.92244c0.09692-0.04855,0.19385-0.04855,0.29065-0.0971v3.59267
						c-0.38757,0.0971-0.72668,0.1942-1.06592,0.33985c-0.82373,0.33984-1.50195,0.82534-2.13184,1.40794
						c-0.62988,0.63115-1.1145,1.31084-1.40515,2.13618c-0.29077,0.77679-0.4845,1.60214-0.4845,2.42749
						c0,0.82534,0.14526,1.65069,0.4845,2.42748c0.33911,0.82534,0.82373,1.50504,1.40515,2.13618
						c0.58142,0.5826,1.35657,1.06809,2.1803,1.40794c0.67834,0.2913,1.45361,0.43694,2.37415,0.5826
						c0.67834,0.0971,1.40515,0.14565,2.32568,0.14565h2.0835c1.40515,0,2.76172-0.2913,4.06994-0.82534
						c1.25977-0.53405,2.37415-1.2623,3.34326-2.18474c0.96899-0.97099,1.74426-2.03909,2.32568-3.30138
						c0.58142-1.31084,0.87219-2.67023,0.87219-4.07818c0-1.40794-0.29077-2.76733-0.87219-4.07817
						C40.79681,14.51635,40.02154,13.39971,39.05254,12.47726z M92.78606,28.64431c1.40515,0.97099,3.19788,1.55359,5.42676,1.55359
						v-3.25282c-1.16296,0-2.0835-0.24275-2.85876-0.5826c1.50208-1.84489,2.32568-4.07818,2.32568-6.50566
						c0-2.81588-2.03491-5.14627-4.50598-5.14627c-0.24231,0-0.43604,0-0.67834,0.04855l2.1803-2.18474
						c-1.93799-1.94199-4.50598-3.01008-7.26782-3.01008c-2.76172,0-5.32971,1.06809-7.26782,3.01008
						s-3.00403,4.51512-3.00403,7.28246s1.06592,5.34046,3.00403,7.28246c1.93811,1.94199,4.5061,3.01008,7.26782,3.01008
						C89.346,30.14935,91.18719,29.6153,92.78606,28.64431z M14.58416,23.35239c0.11304,0.07552,0.22607,0.18041,0.33911,0.26899
						v0.07086h0.09692c-0.03235-0.02158-0.06458-0.04556-0.09692-0.07086v-5.7551c0-0.72824-0.09692-1.40794-0.38757-2.03909
						c-0.24231-0.63114-0.62988-1.16519-1.11438-1.65069c-0.48462-0.4855-1.01758-0.87389-1.64746-1.11664
						c-1.30823-0.53405-2.76172-0.53405-4.06995,0c-0.62988,0.24274-1.16284,0.63114-1.64734,1.11664
						c-0.48462,0.4855-0.87219,1.01955-1.1145,1.65069c-0.24219,0.63115-0.38757,1.31084-0.38757,2.03909
						c0,0.43695,0.14539,0.8739,0.43604,1.4565c0.29077,0.4855,0.62988,0.97099,0.96912,1.50504h0.43604
						c1.55042,0,3.05249,0.24275,4.45764,0.6797C12.25836,21.94446,13.51812,22.5756,14.58416,23.35239z M38.42266,22.5756
						c-0.3877,0.87389-0.92065,1.60214-1.599,2.28184s-1.50195,1.16519-2.37415,1.55359
						c-0.92053,0.3884-1.84119,0.5826-2.81018,0.5826h-2.56799v-6.11726c0.14539,0.0971,0.29077,0.24274,0.43604,0.3884
						l1.55054,1.55359l2.27722-2.28184l-1.55041-1.55359c-0.62988-0.63114-1.30823-1.11665-2.13196-1.40794
						c-0.19385-0.0971-0.38757-0.14565-0.58142-0.1942v-4.46657c0.92053-0.14565,1.74426-0.1942,2.56799-0.1942
						c0.96899,0,1.93811,0.1942,2.81018,0.5826c0.87219,0.3884,1.6958,0.87389,2.37415,1.55359s1.2113,1.45649,1.599,2.28184
						c0.38757,0.87389,0.58142,1.79634,0.58142,2.76733C39.00408,20.77927,38.81023,21.70171,38.42266,22.5756z M87.40789,12.81712
						c-1.88965,0-3.63403,0.72825-4.9906,2.03909c-1.30823,1.31084-2.03503,3.10718-2.03503,5.00062
						s0.72681,3.64123,2.03503,5.00062c1.30823,1.31084,3.10095,2.03909,4.9906,2.03909c1.06592,0,2.08337-0.24274,3.00403-0.6797
						c-1.2113-1.84489-1.74438-4.12672-1.74438-6.36001c0-2.47604,1.55054-4.56367,3.63403-5.04916
						C90.99334,13.49681,89.24908,12.81712,87.40789,12.81712z M91.91387,19.85682c0-1.11665,0.67834-1.89344,1.25977-1.89344
						s1.25977,0.77679,1.25977,1.89344c0,1.55359-0.53296,3.05862-1.45361,4.27237
						C92.0108,22.42995,91.91387,20.48796,91.91387,19.85682z M50.09954,18.78873c-0.24219,0.0971-0.4845,0.24274-0.72668,0.3884
						c-0.04846,0.04855-0.14539,0.0971-0.24231,0.1942c0.19385,0.1942,0.38757,0.33984,0.58142,0.4855
						c0.19385,0.14565,0.43604,0.24274,0.67834,0.33984s0.4845,0.14565,0.72681,0.1942
						c0.24219,0.04855,0.4845,0.04855,0.72681,0.04855c0.14526,0,0.24219-0.04855,0.38757-0.0971
						c0.14539-0.04855,0.24231-0.0971,0.33911-0.1942c0.04846-0.04855,0.14539-0.1942,0.19385-0.2913
						c0.04846-0.14565,0.09692-0.24275,0.09692-0.3884c0-0.14565-0.04846-0.2913-0.09692-0.3884
						c-0.04846-0.14565-0.09692-0.24275-0.19385-0.33985c-0.0968-0.04855-0.24219-0.14565-0.33911-0.1942
						c-0.14539-0.04855-0.24231-0.0971-0.38757-0.0971h-0.14539c-0.29077,0-0.53296,0.04855-0.82373,0.0971
						C50.63262,18.59454,50.34185,18.69164,50.09954,18.78873z M23.93536,23.54659c0,0.3884,0.09692,0.82535,0.24231,1.21375
						c0.19373,0.3884,0.43604,0.77679,0.72668,1.11664c0.24231,0.2913,0.53308,0.4855,0.92065,0.63115v-5.87451
						c-0.33923,0.14565-0.62988,0.33985-0.92065,0.63115c-0.33911,0.2913-0.58142,0.6797-0.72668,1.06809
						C24.03228,22.72125,23.93536,23.1582,23.93536,23.54659z M5.13592,26.31393c-0.04846,0.0971-0.14539,0.24274-0.19385,0.33984
						c-0.09692,0.0971-0.19385,0.14565-0.33911,0.1942c-0.24231,0.0971-0.53296,0.0971-0.77527,0
						c-0.09692-0.04855-0.24231-0.14565-0.33911-0.1942c-0.09692-0.0971-0.14539-0.1942-0.19385-0.33984
						c-0.04846-0.14565-0.09692-0.24275-0.09692-0.3884c0-0.14565,0-0.33985,0.09692-0.5826
						c0.09692-0.1942,0.19385-0.3884,0.38757-0.53405c0.19385-0.1942,0.4845-0.3884,0.82373-0.4855
						c0.09692,0.1942,0.24219,0.33985,0.33911,0.53405c0.24231,0.43694,0.3877,0.82534,0.3877,1.06809
						C5.23284,26.07118,5.18438,26.16828,5.13592,26.31393z M65.74969,26.07118c-0.29065,0.2913-0.53296,0.4855-0.87207,0.63115
						c-0.33923,0.1942-0.72681,0.24274-1.16284,0.24274c-0.09692,0-0.24231,0-0.33923-0.04855
						c-0.09692-0.04855-0.19385-0.0971-0.29065-0.1942c-0.09692-0.0971-0.14539-0.1942-0.19385-0.2913
						s-0.04846-0.24275-0.04846-0.33985c0-0.14565,0.04846-0.2913,0.09692-0.3884c0.04846-0.14565,0.14539-0.2913,0.24219-0.3884
						c0.09692-0.0971,0.19385-0.1942,0.29077-0.24274c0.09692-0.04855,0.19385-0.04855,0.24231-0.04855
						c0.43604,0,0.87207,0.0971,1.35657,0.2913c0.29077,0.14565,0.58142,0.2913,0.92065,0.4855
						C65.94353,25.92554,65.84661,26.02264,65.74969,26.07118z"/>
				</g>
			</g>
			<g>
				<g>
					<path class="st3" d="M15.747,3.20428V0.0971h1.2113c0.19385,0,0.38757,0.04855,0.53296,0.0971s0.24231,0.0971,0.33923,0.1942
						c0.14526,0.14565,0.19373,0.33985,0.19373,0.53405c0,0.24275-0.09692,0.43695-0.24219,0.53405
						c-0.04846,0.04855-0.09692,0.04855-0.09692,0.0971c0,0-0.04846,0.04855-0.09692,0.04855
						c0.19385,0.04855,0.33911,0.14565,0.43604,0.24275c0.09692,0.14565,0.14539,0.2913,0.14539,0.4855
						s-0.09692,0.3884-0.24231,0.5826c-0.0968,0.1942-0.38757,0.2913-0.82361,0.2913H15.747z M16.42535,1.35939h0.33911
						c0.19385,0,0.33923,0,0.43616-0.04855s0.14526-0.14565,0.14526-0.24275c0-0.14565-0.04834-0.24275-0.14526-0.2913
						s-0.24231-0.04855-0.43616-0.04855h-0.33911V1.35939z M16.90985,2.62168h-0.43604v-0.6797h0.38757
						c0.19385,0,0.3877,0,0.4845,0.04855c0.09692,0.04855,0.14539,0.1942,0.14539,0.2913s-0.04846,0.1942-0.14539,0.2913
						C17.24908,2.62168,17.10369,2.62168,16.90985,2.62168z"/>
				</g>
				<g>
					<path class="st3" d="M22.77252,2.52458l0.29077,0.6797V3.15573h0.72681L22.48187,0.0971h-0.67834l-1.35669,3.10718h0.72681
						l0.29065-0.6797H22.77252z M21.75506,1.89344l0.38757-0.87389l0.3877,0.87389H21.75506z"/>
				</g>
				<g>
					<path class="st3" d="M28.15081,2.13618c0.38757-0.14565,0.58142-0.4855,0.58142-0.97099
						c0-0.3884-0.09692-0.63115-0.29077-0.82534C28.24774,0.1942,27.9085,0.0971,27.42401,0.0971h-1.16284v3.15573h0.67834v-0.971
						h0.4845l0.67834,0.971h0.82373L28.15081,2.13618z M28.05389,1.16519c0,0.14565-0.04846,0.24275-0.14539,0.33985
						s-0.24219,0.0971-0.53296,0.14565h-0.4845V0.72824h0.53296c0.24231,0,0.38757,0.04855,0.4845,0.0971
						S28.05389,1.01954,28.05389,1.16519z"/>
				</g>
				<g>
					<path class="st3" d="M37.59893,1.65069c0-0.4855-0.14526-0.82534-0.43604-1.11664
						c-0.29065-0.2913-0.67834-0.43695-1.30823-0.43695h-1.06592v3.10718h1.06592c0.58142,0,1.01758-0.14565,1.30823-0.43695
						C37.45367,2.52458,37.59893,2.13618,37.59893,1.65069z M36.92071,1.65069c0,0.2913-0.09692,0.53405-0.24231,0.6797
						c-0.19385,0.1942-0.43604,0.24275-0.72681,0.2913h-0.43604V0.72824h0.38757c0.33923,0,0.62988,0.0971,0.77527,0.24275
						S36.92071,1.35939,36.92071,1.65069z"/>
				</g>
				<g>
					<path class="st3" d="M42.54108,0.0971v0.63115h-1.55047v0.63115h1.35667v0.5826h-1.35667v0.63115h1.59893v0.63115h-2.27726
						V0.0971H42.54108z"/>
				</g>
				<g>
					<path class="st3" d="M50.48725,0.0971h0.67833v3.05863h-0.67833V1.99054h-1.2113v1.21374h-0.67833V0.0971h0.67833v1.31084
						h1.2113V0.0971z"/>
				</g>
				<g>
					<path class="st3" d="M56.25307,0.0971v0.63115h-1.50202v0.63115h1.35666v0.5826h-1.35666v0.63115h1.59892v0.63115h-2.27726
						V0.0971H56.25307z"/>
				</g>
				<g>
					<path class="st3" d="M59.01485,3.20428V0.0971h0.67833v2.47603h1.30821v0.63115H59.01485z"/>
				</g>
				<g>
					<path class="st3" d="M65.55584,2.52458l0.29077,0.6797h0.67834l-1.30823-3.05863h-0.67834l-1.30823,3.05863h0.72681
						l0.29065-0.6797H65.55584z M64.53838,1.89344l0.38757-0.87389l0.3877,0.87389H64.53838z"/>
				</g>
				<g>
					<path class="st3" d="M71.80621,1.65069c0-0.4855-0.14526-0.82534-0.43604-1.11664
						c-0.29065-0.2913-0.67834-0.43695-1.30823-0.43695h-1.06592v3.10718h1.06592c0.58142,0,1.01758-0.14565,1.30823-0.43695
						C71.66094,2.52458,71.80621,2.13618,71.80621,1.65069z M71.12798,1.65069c0,0.2913-0.09692,0.53405-0.24231,0.6797
						c-0.19385,0.1942-0.43604,0.24275-0.72681,0.2913h-0.43604V0.72824h0.38757c0.33923,0,0.62988,0.0971,0.77527,0.24275
						S71.12798,1.35939,71.12798,1.65069z"/>
				</g>
				<g>
					<path class="st3" d="M75.97308,3.20428c0.48462,0,0.87219-0.14565,1.16284-0.43695
						c0.29077-0.2913,0.43616-0.6797,0.48462-1.11664c0-0.43695-0.19385-0.82534-0.48462-1.11664
						c-0.33911-0.2913-0.72668-0.43695-1.16284-0.43695c-0.4845,0-0.87207,0.14565-1.16284,0.43695
						c-0.33911,0.2913-0.4845,0.6797-0.4845,1.11664s0.19385,0.82534,0.4845,1.11664
						C75.14947,3.05863,75.53704,3.20428,75.97308,3.20428z M76.65154,0.97099c0.14526,0.1942,0.24219,0.3884,0.24219,0.6797
						c0,0.24275-0.09692,0.4855-0.24219,0.6797c-0.14539,0.1942-0.3877,0.2913-0.62988,0.2913
						c-0.24231,0-0.43616-0.0971-0.62988-0.2913c-0.14539-0.1942-0.24231-0.3884-0.24231-0.6797
						c0-0.24275,0.04846-0.4855,0.24231-0.6797c0.14526-0.1942,0.38757-0.2913,0.62988-0.2913
						C76.26385,0.6797,76.4577,0.77679,76.65154,0.97099z"/>
				</g>
				<g>
					<path class="st3" d="M80.96372,0.72825c-0.04845,0.04855-0.0969,0.14565-0.0969,0.1942c0,0.0971,0.04845,0.14565,0.0969,0.1942
						c0.09691,0.04855,0.29071,0.0971,0.58143,0.1942c0.29071,0.04855,0.53297,0.1942,0.67833,0.33985
						s0.24226,0.33985,0.24226,0.63115s-0.09691,0.4855-0.29072,0.6797c-0.19381,0.1942-0.48452,0.24275-0.82368,0.24275
						c-0.48452,0-0.92059-0.1942-1.30821-0.53405l0.38762-0.4855c0.33916,0.2913,0.62988,0.43695,0.92059,0.43695
						c0.14536,0,0.24226-0.04855,0.29071-0.0971c0.04845-0.04855,0.09691-0.14565,0.09691-0.24275s-0.04845-0.14565-0.09691-0.24275
						c-0.0969-0.04855-0.24226-0.0971-0.43607-0.14565c-0.33916-0.0971-0.62988-0.1942-0.77524-0.33985
						s-0.24226-0.33985-0.24226-0.63115s0.09691-0.53405,0.29072-0.6797S80.96372,0,81.25443,0
						c0.19381,0,0.38762,0.04855,0.62988,0.0971c0.19381,0.04855,0.38762,0.1942,0.53297,0.2913l-0.33916,0.4855
						c-0.29071-0.1942-0.53297-0.2913-0.82369-0.2913C81.10908,0.63115,81.01218,0.6797,80.96372,0.72825L80.96372,0.72825z"/>
				</g>
			</g>
		</g>
	</g>
</g>
</svg>
