<?xml version="1.0" encoding="utf-8"?>
<!-- Generator: Adobe Illustrator 24.0.3, SVG Export Plug-In . SVG Version: 6.00 Build 0)  -->
<svg version="1.1" id="Layer_1" xmlns="http://www.w3.org/2000/svg" xmlns:xlink="http://www.w3.org/1999/xlink" x="0px" y="0px"
	 viewBox="0 0 177.38786 51.76781" style="enable-background:new 0 0 177.38786 51.76781;" xml:space="preserve">
<style type="text/css">
	.st0{filter:url(#Adobe_OpacityMaskFilter);}
	.st1{fill:#FFFFFF;}
	.st2{mask:url(#mask-2_1_);}
	.st3{fill-rule:evenodd;clip-rule:evenodd;fill:#FFFFFF;}
</style>
<defs>
	<filter id="Adobe_OpacityMaskFilter" filterUnits="userSpaceOnUse" x="0" y="0" width="177.30879" height="51.76781">
		<feColorMatrix  type="matrix" values="1 0 0 0 0  0 1 0 0 0  0 0 1 0 0  0 0 0 1 0"/>
	</filter>
</defs>
<mask maskUnits="userSpaceOnUse" x="0" y="0" width="177.30879" height="51.76781" id="mask-2_1_">
	<rect class="st0" width="177.38786" height="51.76781"/>
	<g>
		<rect id="rect-1_1_" y="0.06785" class="st1" width="177.38786" height="51.42857"/>
	</g>
</mask>
<g class="st2">
	<g>
		<g>
			<g>
				<path class="st3" d="M96.80733,0.33926h0.31665c0.87073,0,3.40369,0.06787,5.14514,2.17114
					c1.66223,1.69617,1.66223,4.00305,1.58313,5.97058l-0.23743,12.75537v1.83191c-0.07922,0.74634-0.23755,2.84961-1.979,4.27441
					c-0.63318,0.47485-1.34558,0.81421-2.13708,1.08557c-0.39587,0.06787-0.6333,0.13562-0.94995,0.20349v0.20361
					c0,0.40698,0.15833,0.47485,0.23755,0.54272c0.1582,0.13574,0.55408,0.20349,1.02893,0.20349
					c0.6333,0,1.26648,0,1.89978-0.06775l0.7915,0.6106l-0.0791,3.25672l-0.7124,0.6106h-1.4248
					c-1.18738,0-2.05811-0.06787-2.69128-0.20349c-3.64124-0.67847-3.95776-3.25672-4.03699-5.29212
					c-0.94983-0.27148-1.4248-0.47498-1.97888-0.81421c-1.74146-1.08557-2.53296-2.91748-2.45386-5.42786v-0.13562l0.23755-13.36609
					c0-1.0177,0.0791-2.4425,0.31665-3.4602c0.1582-0.6106,0.55408-2.23901,2.37463-3.52808
					C93.32455,0.81424,94.90768,0.33926,96.80733,0.33926z M97.51974,24.4252c0.5542-0.33923,0.7124-1.22119,0.7124-2.84961
					l0.23755-14.3158V6.30984c-0.07922-1.0177-0.39575-1.6283-1.66235-1.6283h-0.0791c-0.55408,0-1.26648,0.13574-1.58313,0.81421
					v0.06787c-0.0791,0.27136-0.15833,0.6106-0.15833,0.88196l-0.31665,15.74072c-0.06519,0.94995,0.03076,1.34766,0.06665,1.49622
					c0.00769,0.03186,0.01257,0.05225,0.01257,0.06421v0.06787c0.15833,0.33923,0.47498,0.74634,1.58313,0.81421h0.0791
					C96.88656,24.62881,97.28231,24.56094,97.51974,24.4252z"/>
			</g>
			<g>
				<path class="st3" d="M123.16623,25.51074c0.47493-1.15341,0.63324-2.71391,0.7124-3.32454l1.58311-20.21862l-0.71239-0.67848
					l-4.03694-0.20354l-0.79156,0.61063l-1.58311,20.42216c-0.15831,1.76404-0.23746,2.44252-0.87071,2.8496
					c-0.23746,0.1357-0.55409,0.20354-0.87071,0.20354h-0.23746c-1.02902-0.06785-1.26649-0.47493-1.4248-0.88202
					c-0.23746-0.61063-0.15831-1.35695-0.07915-2.10328l1.50396-20.7614l-0.7124-0.67848l-4.03694-0.20354l-0.79156,0.61063
					l-1.58311,20.82925c-0.15831,1.5605,0,2.44252,0.31663,3.39239c1.10818,3.25669,4.74934,3.79947,6.2533,3.93517h0.63325
					C118.41689,29.31021,121.82058,28.83528,123.16623,25.51074L123.16623,25.51074z"/>
			</g>
			<g>
				<path class="st3" d="M72.98153,12.82322c0.63325,0.81417,1.26649,1.5605,1.82058,2.23897
					c0.7124,0.81417,1.4248,1.69619,2.13721,2.57821c1.18733,1.49265,1.50396,2.44252,1.50396,4.20656v0.06785
					c0.07915,1.5605-0.07916,2.37467-1.18734,2.37467h-0.07915c-0.39577,0-0.63325-0.1357-0.79156-0.20354
					c-0.31662-0.1357-0.55409-0.40709-0.63325-1.62835l-0.15831-4.74934l-0.7124-0.61063l-3.79947,0.06785l-0.63325,0.67848
					l0.15831,4.27441c0.07915,1.62835,0.23747,3.18884,1.66227,4.47795c0.63325,0.61063,2.13721,1.62835,4.90765,1.62835h0.23746
					c1.18734,0,2.13721-0.20354,3.00792-0.54278c3.48285-1.4248,3.72031-4.95288,3.64116-6.44553
					c-0.07915-1.62835-0.39577-3.66378-2.77045-6.58123c-0.47494-0.61063-0.94987-1.15341-1.4248-1.69619
					c-0.15831-0.20354-0.39577-0.40709-0.55408-0.61063c-0.47494-0.54278-0.87071-1.01772-1.34565-1.5605
					c-1.4248-1.76404-2.05804-2.8496-2.13721-4.81719c0-0.47493,0-1.15341,0.15832-1.5605
					c0.15831-0.27139,0.31662-0.47493,1.10818-0.54278h0.07915c0.63325,0,0.79156,0.27139,0.87071,1.01772v0.1357l0.15831,4.5458
					l0.7124,0.61063l3.72031-0.06785l0.7124-0.61063l-0.15831-4.61365c0-1.08556-0.23746-1.62835-0.39577-2.10328
					C82.00528,0.94987,80.1847,0,77.4934,0h-0.39577c-1.58311,0.06785-2.8496,0.33924-3.87863,0.88202
					c-0.94987,0.47493-3.08707,1.96758-2.92876,5.63136C70.44855,9.63438,72.26913,11.87335,72.98153,12.82322L72.98153,12.82322z"
					/>
			</g>
			<g>
				<path class="st3" d="M55.01319,29.51376l10.29024-0.67848l0.63325-0.61063l-0.23746-3.39239l-0.79156-0.61063l-5.38259,0.33924
					l-0.63325-7.59895l4.74934-0.27139l0.63325-0.67848l-0.23746-3.32454l-0.79156-0.54278l-4.74934,0.27139L57.94195,5.8349
					l5.38259-0.33924l0.7124-0.67848l-0.31662-3.32454l-0.79156-0.61063L52.63852,1.5605l-0.63325,0.67848l2.21636,26.66415
					L55.01319,29.51376z"/>
			</g>
			<g>
				<path class="st3" d="M21.76791,5.02078l4.90759-0.67847l0.87073,0.33923l9.73608,25.7821l-0.55408,0.81421l-3.95776,0.54272
					l-0.7915-0.40698l-1.50403-4.20667l-3.40369,0.47498l0.15833,4.41016l-0.63318,0.6106l-3.95789,0.54272l-0.87061-0.6106
					l-0.6333-27.00342L21.76791,5.02078z M26.27962,15.26578l0.47498,7.87036l2.05798-0.33923L26.27962,15.26578z"/>
			</g>
			<g>
				<path class="st3" d="M133.53561,2.17113l-0.87071,0.54278l-3.32454,26.59631l0.63326,0.74632l4.03694,0.33924l0.79155-0.54278
					l3.4037-26.59631l-0.63326-0.67848L133.53561,2.17113z"/>
			</g>
			<g>
				<path class="st3" d="M172.00533,7.66678l4.82849,1.0177l0.47498,0.6106l-2.61218,27.00342l-0.87073,0.54285l-3.87854-0.81421
					l-0.5542-0.67847l0.47498-4.41016l-3.32458-0.67847l-1.82056,4.1388l-0.87073,0.40698l-3.87854-0.81409l-0.47498-0.81421
					L171.1346,8.07388L172.00533,7.66678z M168.36409,26.12137l2.05811,0.4071l1.02893-7.80249L168.36409,26.12137z"/>
			</g>
			<g>
				<path class="st3" d="M159.49869,5.49567l-3.79948-0.54278l-0.87071,0.54278l-2.21635,12.41613l-1.02902-13.02676
					l-0.55409-0.61063l-4.43271-0.54278l-0.79156,0.47493l-4.9868,26.46061l0.63324,0.67848l3.79947,0.54278l0.87071-0.54278
					l2.21637-13.2303l0.87071,13.84093l0.63324,0.54278l4.51187,0.61063l0.79156-0.47493l4.9868-26.46061L159.49869,5.49567z"/>
			</g>
			<g>
				<path class="st3" d="M17.25594,29.17452l-5.93668,1.22126L5.38259,8.9559L4.51187,8.48096L0.55409,9.29514L0,10.04146
					l6.9657,25.23935l0.87071,0.47493l10.60686-2.10328l0.55409-0.74633l-0.87071-3.25669L17.25594,29.17452z"/>
			</g>
			<g>
				<path class="st3" d="M29.76253,50.13947h-1.74142v-3.12099c0-0.06785-0.07916-0.1357-0.15831-0.1357h-1.18734
					c-0.07915,0-0.23747,0.06785-0.23747,0.1357v4.20656c0,0.06785,0.07916,0.1357,0.23747,0.1357h3.16623
					c0.07916,0,0.15831,0,0.15831-0.1357v-0.88202C29.92085,50.27516,29.84169,50.13947,29.76253,50.13947L29.76253,50.13947z"/>
			</g>
			<g>
				<path class="st3" d="M35.1451,46.88272c0.07922,0,0.15833,0,0.15833,0.06787l1.97888,4.20654v0.06787
					c0,0.06787-0.0791,0.13562-0.15833,0.13562H35.7784c-0.07922,0-0.15833,0-0.15833-0.06775l-0.23743-0.54285h-1.58313
					l-0.23755,0.54285c0,0.06775-0.0791,0.06775-0.15833,0.06775h-1.34558c-0.07922,0-0.15833,0-0.15833-0.06775v-0.13574
					l1.82056-4.20654c0,0,0.07922-0.06787,0.15833-0.06787H35.1451z M34.4327,48.44327l-0.39575,1.08557h0.7915L34.4327,48.44327z"
					/>
			</g>
			<g>
				<path class="st3" d="M47.96834,50.13947l-0.94987-0.40709c-0.07915-0.06785-0.15831,0-0.23747,0.06784v0.06785
					c-0.15831,0.20354-0.31662,0.54278-0.87071,0.54278c-0.23746,0-0.39578-0.06785-0.47493-0.06785
					c-0.31662-0.13569-0.47493-0.40709-0.55409-0.88202V49.1896c0-0.61063,0.31662-0.88202,0.39578-0.94987
					c0.23746-0.20354,0.47493-0.20354,0.63324-0.20354c0.47493,0,0.7124,0.27139,0.7124,0.33924
					c0,0,0.07915,0.06785,0.15831,0.20354c0.07915,0.06785,0.15831,0.1357,0.23747,0.06785l0.94987-0.40709
					c0.07915,0,0.07915-0.06784,0.07915-0.06784v-0.1357c-0.07915-0.06785-0.15831-0.27139-0.31662-0.40709
					c-0.47493-0.47494-1.10818-0.67848-1.89973-0.67848c-1.02902,0-1.66227,0.47493-1.89973,0.81417
					c-0.39578,0.40709-0.63325,1.01772-0.63325,1.62835c0,0.47493,0.15831,1.69619,1.4248,2.17113
					c0.47493,0.1357,0.87071,0.20354,1.10818,0.20354c1.02902,0,1.66227-0.54278,1.89973-0.74633
					c0.07916-0.06785,0.15831-0.20354,0.31662-0.40709v-0.1357C48.04749,50.20731,48.04749,50.13947,47.96834,50.13947
					L47.96834,50.13947z"/>
			</g>
			<g>
				<path class="st3" d="M50.73885,47.69693c0.39575-0.47485,1.02893-0.94983,2.13721-0.94983
					c0.94983,0,1.58301,0.4071,1.89966,0.67847c0.47498,0.4071,0.79163,1.08557,0.79163,1.76404
					c0,0.74634-0.39587,1.49268-1.02905,1.89978c-0.47498,0.33923-1.02905,0.47485-1.66223,0.47485
					c-0.47498,0-1.26648-0.13562-1.89978-0.67847c-0.6333-0.6106-0.7124-1.4248-0.7124-1.76404
					C50.26388,48.85037,50.34298,48.23978,50.73885,47.69693z M52.87594,50.34293c0.15833,0,0.47498,0,0.7124-0.27136
					c0.23755-0.20349,0.31665-0.47498,0.31665-0.81421c0-0.54272-0.23743-0.88196-0.31665-0.94983
					c-0.0791-0.13574-0.23743-0.20349-0.39575-0.27136c-0.0791-0.06787-0.23743-0.06787-0.39575-0.06787
					c-0.23755,0-0.39575,0.06787-0.47498,0.06787c-0.47498,0.27136-0.55408,0.88196-0.55408,1.08557
					c0,0.4071,0.15833,0.74634,0.39575,0.94983C52.32186,50.27505,52.63851,50.34293,52.87594,50.34293z"/>
			</g>
			<g>
				<path class="st3" d="M62.53298,50.13947l-0.94987-0.40709c-0.07915-0.06785-0.15831,0-0.23747,0.06784v0.06785
					c-0.15831,0.20354-0.31662,0.54278-0.87071,0.54278c-0.23746,0-0.39578-0.06785-0.47493-0.06785
					c-0.31662-0.13569-0.47493-0.40709-0.55409-0.88202V49.1896c0-0.61063,0.31662-0.88202,0.39578-0.94987
					c0.23746-0.20354,0.47493-0.20354,0.63324-0.20354c0.47493,0,0.7124,0.27139,0.7124,0.33924
					c0,0,0.07915,0.06785,0.15831,0.20354c0.07915,0.06785,0.15831,0.1357,0.23747,0.06785l0.94987-0.40709
					c0.07915,0,0.07915-0.06784,0.07915-0.06784v-0.1357c-0.07915-0.06785-0.15831-0.27139-0.31662-0.40709
					c-0.47493-0.47494-1.10818-0.67848-1.89973-0.67848c-1.02902,0-1.66227,0.47493-1.89974,0.81417
					c-0.39577,0.40709-0.63324,1.01772-0.63324,1.62835c0,0.47493,0.15831,1.69619,1.4248,2.17113
					c0.47493,0.1357,0.87071,0.20354,1.10818,0.20354c1.02902,0,1.66227-0.54278,1.89973-0.74633
					c0.07916-0.06785,0.15831-0.20354,0.31662-0.40709v-0.1357C62.61214,50.20731,62.61214,50.13947,62.53298,50.13947
					L62.53298,50.13947z"/>
			</g>
			<g>
				<path class="st3" d="M66.64908,47.01847c0-0.06785-0.07915-0.1357-0.15831-0.1357h-1.18734
					c-0.07915,0-0.15831,0.06785-0.15831,0.1357v4.20656c0,0.06785,0.07915,0.1357,0.15831,0.1357h1.18734
					c0.07915,0,0.15831-0.06785,0.15831-0.1357V47.01847L66.64908,47.01847z"/>
			</g>
			<g>
				<path class="st3" d="M73.53562,46.88277h-1.18734c-0.07915,0-0.07915,0-0.15831,0.06785c0,0-0.07915,0.06785-0.07915,0.1357
					v2.10328l-1.4248-2.17113c0-0.06785-0.07915-0.06785-0.15831-0.06785h-1.18733c-0.07915,0-0.23746,0.06785-0.23746,0.1357
					v4.20656c0,0.06785,0.07915,0.13569,0.23746,0.13569h1.34564l0.07916-0.06784v-2.03543l1.4248,2.10328
					c0,0.06785,0.07915,0.06785,0.15831,0.06785h1.18734c0.07915,0,0.23746,0,0.23746-0.13569v-4.20656
					C73.77309,46.95062,73.61478,46.88277,73.53562,46.88277L73.53562,46.88277z"/>
			</g>
			<g>
				<path class="st3" d="M77.88918,47.01847c0-0.06785-0.07915-0.1357-0.15831-0.1357h-1.18734
					c-0.07915,0-0.15831,0.06785-0.15831,0.1357v4.20656c0,0.06785,0.07915,0.1357,0.15831,0.1357h1.18734
					c0.07915,0,0.15831-0.06785,0.15831-0.1357V47.01847L77.88918,47.01847z"/>
			</g>
			<g>
				<path class="st3" d="M84.22163,46.88277h-3.79947c-0.07915,0-0.23746,0.06785-0.23746,0.1357v0.81417
					c0,0.06785,0.15831,0.06785,0.23746,0.06785h1.10818v3.32454c0,0.06785,0,0.1357,0.15831,0.1357h1.26649
					c0.07915,0,0.15831,0,0.15831-0.1357v-3.32454h1.10818c0.07915,0,0.15831,0,0.15831-0.06785v-0.81417
					C84.37994,46.95062,84.30079,46.88277,84.22163,46.88277L84.22163,46.88277z"/>
			</g>
			<g>
				<path class="st3" d="M89.12923,46.88272c0.07922,0,0.15833,0,0.15833,0.06787l1.97888,4.20654v0.06787
					c0,0.06787-0.0791,0.13562-0.15833,0.13562h-1.34558c-0.07922,0-0.15833,0-0.15833-0.06775l-0.23743-0.54285h-1.58313
					l-0.23755,0.54285c0,0.06775-0.0791,0.06775-0.15833,0.06775H86.0422c-0.07922,0-0.15833,0-0.15833-0.06775v-0.13574
					l1.82056-4.20654c0,0,0.07922-0.06787,0.15833-0.06787H89.12923z M88.41683,48.44327l-0.39575,1.08557h0.7915L88.41683,48.44327
					z"/>
			</g>
			<g>
				<path class="st3" d="M99.65694,46.88272c0.23755,0,1.02905,0.06787,1.66235,0.47498
					c0.1582,0.13562,0.31653,0.27136,0.31653,0.4071c0.23755,0.33923,0.39587,0.74622,0.39587,1.28906
					c0,0.88196-0.39587,1.35693-0.6333,1.6283c-0.15833,0.20361-0.55408,0.47498-1.18738,0.61072
					c-0.23743,0.06775-0.47485,0.06775-0.7915,0.06775h-1.89978c-0.15833,0-0.23743-0.06775-0.23743-0.13562v-4.20654
					c0-0.06787,0.15833-0.13574,0.23743-0.13574H99.65694z M100.21102,50.00369c0.23743-0.20349,0.39575-0.40698,0.39575-0.88196
					c0-0.33923-0.0791-0.54285-0.23743-0.81421c-0.0791,0-0.15833-0.13562-0.39575-0.20349
					c-0.23755-0.06787-0.39575-0.06787-0.55408-0.06787h-0.47498v2.10327h0.23743c0.08191,0,0.1604,0.00293,0.23621,0.00574
					C99.70882,50.15591,99.95992,50.16519,100.21102,50.00369z"/>
			</g>
			<g>
				<path class="st3" d="M108.60159,50.27516h-2.53298v-0.74633h2.1372c0.07915,0,0.07915-0.06785,0.07915-0.1357v-0.81417
					c0-0.06785,0-0.27139-0.07915-0.27139h-2.1372v-0.47493h2.29551c0.07916,0,0.15832,0,0.15832-0.06785v-0.81417
					c0-0.06785,0-0.1357-0.15832-0.1357h-3.64116c-0.07915,0-0.23746,0.06785-0.23746,0.1357v4.20656
					c0,0.06785,0.15831,0.1357,0.23746,0.1357h3.87863c0.07915,0,0.23746,0,0.23746-0.1357v-0.81417
					C108.83905,50.34301,108.7599,50.27516,108.60159,50.27516L108.60159,50.27516z"/>
			</g>
			<g>
				<path class="st3" d="M114.45911,50.13947h-1.82059v-3.12099c0-0.06785,0-0.1357-0.15831-0.1357h-1.18733
					c-0.07915,0-0.23746,0.06785-0.23746,0.1357v4.20656c0,0.06785,0.15831,0.1357,0.23746,0.1357h3.16623
					c0.07915,0,0.07915,0,0.07915-0.1357v-0.88202C114.61742,50.27516,114.61742,50.13947,114.45911,50.13947L114.45911,50.13947z"
					/>
			</g>
			<g>
				<path class="st3" d="M125.46174,46.88277h-1.34564c-0.07915,0-0.15831,0.06785-0.15831,0.1357l-0.87071,2.51036
					l-0.87071-2.51036c0-0.06785-0.07916-0.1357-0.15832-0.1357h-1.34564c-0.07915,0-0.07915,0-0.15831,0.06785
					c0,0.06785-0.07915,0.06785,0,0.1357l1.66227,4.20656c0,0.06785,0.07915,0.06785,0.15831,0.06785h1.26649
					c0.07915,0,0.15831,0,0.15831-0.06785l1.74142-4.20656v-0.1357C125.62006,46.88277,125.54089,46.88277,125.46174,46.88277
					L125.46174,46.88277z"/>
			</g>
			<g>
				<path class="st3" d="M130.44856,46.88272c0.07922,0,0.15833,0,0.15833,0.06787l1.97888,4.20654v0.06787
					c0,0.06787-0.0791,0.13562-0.15833,0.13562h-1.34558c-0.07922,0-0.15833,0-0.15833-0.06775l-0.23743-0.54285h-1.58313
					l-0.23755,0.54285c0,0.06775-0.0791,0.06775-0.15833,0.06775h-1.34557c-0.07922,0-0.15833,0-0.15833-0.06775v-0.13574
					l1.82055-4.20654c0,0,0.07922-0.06787,0.15833-0.06787H130.44856z M129.73616,48.44327l-0.39575,1.08557h0.7915
					L129.73616,48.44327z"/>
			</g>
			<g>
				<path class="st3" d="M137.96834,50.13947h-1.82059v-3.12099c0-0.06785-0.07915-0.1357-0.15831-0.1357h-1.18733
					c-0.07915,0-0.15831,0.06785-0.15831,0.1357v4.20656c0,0.06785,0.07916,0.1357,0.15831,0.1357h3.16623
					c0.07916,0,0.15831,0,0.15831-0.1357v-0.88202C138.12665,50.27516,138.0475,50.13947,137.96834,50.13947L137.96834,50.13947z"/>
			</g>
			<g>
				<path class="st3" d="M143.82585,50.13947h-1.74142v-3.12099c0-0.06785-0.07915-0.1357-0.23746-0.1357h-1.18733
					c-0.07916,0-0.15833,0.06785-0.15833,0.1357v4.20656c0,0.06785,0,0.1357,0.15833,0.1357h3.16621
					c0.07916,0,0.23747,0,0.23747-0.1357v-0.88202C143.98416,50.27516,143.90501,50.13947,143.82585,50.13947L143.82585,50.13947z"
					/>
			</g>
			<g>
				<path class="st3" d="M150.39578,50.27516h-2.53299v-0.74633H150c0.07916,0,0.07916-0.06785,0.07916-0.1357v-0.81417
					c0-0.06785,0-0.27139-0.07916-0.27139h-2.13721v-0.47493h2.29552c0.07916,0,0.07916,0,0.07916-0.06785v-0.81417
					c0-0.06785,0-0.1357-0.07916-0.1357h-3.64116c-0.07916,0-0.23747,0.06785-0.23747,0.1357v4.20656
					c0,0.06785,0.15831,0.1357,0.23747,0.1357h3.87863c0.07915,0,0.23746,0,0.23746-0.1357v-0.81417
					C150.63324,50.34301,150.47493,50.27516,150.39578,50.27516L150.39578,50.27516z"/>
			</g>
		</g>
	</g>
</g>
</svg>
