<?xml version="1.0" encoding="utf-8"?>
<!-- Generator: Adobe Illustrator 24.0.3, SVG Export Plug-In . SVG Version: 6.00 Build 0)  -->
<svg version="1.1" id="Layer_1" xmlns="http://www.w3.org/2000/svg" xmlns:xlink="http://www.w3.org/1999/xlink" x="0px" y="0px"
	 viewBox="0 0 92.84216 77.14296" style="enable-background:new 0 0 92.84216 77.14296;" xml:space="preserve">
<style type="text/css">
	.st0{fill-rule:evenodd;clip-rule:evenodd;fill:#FFFFFF;}
</style>
<g>
	<path class="st0" d="M22.45819,15.61964c3.28796,0,5.29413-1.57629,5.90717-2.05396l0.33435-0.33435l-1.50464-1.52856
		l-0.44586,0.33435c-1.28168,0.95532-2.67487,1.43298-4.23529,1.43298c-3.7337,0-6.35291-2.34045-6.35291-5.73193
		c0-3.43921,2.50775-5.73193,6.24146-5.73193c1.50464,0,2.95355,0.42981,4.01239,1.24194l0.44586,0.33435l1.56036-1.52856
		l-0.39014-0.33435c-1.39319-1.09863-3.34363-1.7196-5.57275-1.7196c-5.12689,0-8.86066,3.2959-8.86066,7.83374
		C13.59753,12.32375,17.3313,15.61964,22.45819,15.61964z"/>
	<path class="st0" d="M36.11151,9.98329h5.96283l2.56348,5.34973h2.67493L40.17963,0.28664H37.9505l-6.85449,15.04639h2.56348
		L36.11151,9.98329z M37.05884,7.92934l2.00616-4.3468l2.06195,4.3468H37.05884z"/>
	<path class="st0" d="M55.22601,15.57191c3.065,0,5.29413-1.81519,5.29413-4.39453c0-1.7196-0.94739-3.05713-2.78638-3.9646
		c-0.61304-0.28662-1.22601-0.52551-1.83905-0.71655c-0.61298-0.19104-1.17023-0.42993-1.72754-0.6687
		c-0.94739-0.47766-1.39319-1.0509-1.39319-1.86292c0-1.24194,0.89166-1.95837,2.34058-1.95837
		c2.06189,0,2.45203,1.38525,2.50775,2.245l0.05573,0.47766h2.39624V4.25124c0-1.24194-0.4458-2.34058-1.33746-3.10486
		c-0.83588-0.76428-2.06189-1.14636-3.56653-1.14636c-2.8421,0-4.84833,1.67188-4.95978,4.01233
		c0,1.62415,0.83594,2.86609,2.45203,3.6781C53.3313,7.97707,54,8.21584,54.66876,8.45473
		c0.61298,0.19104,1.17023,0.38208,1.72754,0.6687c1.05884,0.47766,1.50464,1.14636,1.50464,2.14941
		c0,1.38525-1.05884,2.29285-2.73065,2.29285c-1.89471,0-2.89783-0.95532-2.89783-2.81824v-0.47766h-2.50775v0.47766
		C49.76471,13.75673,51.8266,15.57191,55.22601,15.57191z"/>
	<path class="st0" d="M79.24463,15.33302L72.11151,0.28664h-2.22913l-6.85449,15.04639h2.56348l2.45203-5.34973h5.96283
		l2.56348,5.34973H79.24463z M68.99072,7.92934l2.00616-4.3468l2.06195,4.3468H68.99072z"/>
	<path class="st0" d="M4.01239,22.64125H0v15.09424h2.50775v-6.73511h1.50464c3.12073,0,5.18268-1.67188,5.18268-4.25122
		C9.19507,24.12196,7.30029,22.64125,4.01239,22.64125z M4.01239,28.94643H2.50775v-4.25122h1.50464
		c1.78326,0,2.6192,0.71655,2.6192,2.10168C6.63159,28.18214,5.73993,28.94643,4.01239,28.94643z"/>
	<path class="st0" d="M17.05267,22.6891l-6.85449,15.04639h2.56348l2.45203-5.34985h5.96283l2.56348,5.34985h2.67493
		L19.2818,22.6891H17.05267z M16.16101,30.3318l2.00616-4.3468l2.06195,4.3468H16.16101z"/>
	<polygon class="st0" points="37.7276,35.63368 32.37775,35.63368 32.37775,22.64125 29.87,22.64125 29.87,37.73549 
		37.7276,37.73549 	"/>
	<path class="st0" d="M39.95667,30.18849c0,4.48999,3.73376,7.78589,8.86066,7.78589c5.07123,0,8.91644-3.34363,8.86072-7.78589
		c0-4.53784-3.73376-7.83374-8.86072-7.83374C43.69043,22.35475,39.95667,25.65065,39.95667,30.18849z M48.81738,35.92043
		c-3.73376,0-6.29724-2.34058-6.29724-5.73206c0-3.34363,2.6192-5.73193,6.29724-5.73193c3.7337,0,6.35291,2.34058,6.29718,5.73193
		C55.11456,33.57985,52.55109,35.92043,48.81738,35.92043z"/>
	<path class="st0" d="M66.14862,22.64125h-4.01239v15.09424h2.50775v-6.73511h1.50464c3.12073,0,5.18268-1.67188,5.18268-4.25122
		C71.3313,24.12196,69.43652,22.64125,66.14862,22.64125z M64.64398,24.69521h1.50464c1.78326,0,2.6192,0.71655,2.6192,2.10168
		c0,1.38525-0.89166,2.14954-2.6192,2.14954h-1.50464V24.69521z"/>
	<polygon class="st0" points="92.84216,19.29762 90.11151,19.29762 87.60376,22.78456 90.33441,22.78456 	"/>
	<path class="st0" d="M83.47986,22.35475c-5.12689,0-8.86066,3.2959-8.86066,7.83374c0,4.48999,3.73376,7.78589,8.86066,7.78589
		c5.07123,0,8.91644-3.34363,8.86072-7.78589C92.34058,25.65065,88.60681,22.35475,83.47986,22.35475z M83.53564,35.92043
		c-3.73376,0-6.29724-2.34058-6.29724-5.73206c0-3.34363,2.6192-5.73193,6.29724-5.73193c3.67798,0,6.29718,2.34058,6.29718,5.73193
		C89.83282,33.57985,87.26935,35.92043,83.53564,35.92043z"/>
	<path class="st0" d="M56.81073,52.72987c-1.29065-3.87988-5.45367-6.73071-10.38965-6.73071
		c-4.94153,0-9.10797,2.85724-10.39362,6.7439c-4.45856,1.14331-7.71783,4.6864-7.71783,8.87573
		c0,4.19873,3.27454,7.74756,7.7486,8.88251c1.3241,3.83484,5.46429,6.64166,10.36285,6.64166
		c4.88116,0,9.01117-2.78632,10.35046-6.62659c4.50848-1.11621,7.81677-4.6778,7.81677-8.89758
		C64.58832,57.41103,61.29938,53.85683,56.81073,52.72987z M46.42108,47.00221c4.20026,0,7.77179,2.30084,9.11725,5.48395
		c-0.57452-0.08118-1.16016-0.13409-1.76117-0.13409c-2.82935,0-5.3996,0.94312-7.32819,2.47247
		c-1.92859-1.52936-4.4989-2.47247-7.32819-2.47247c-0.61792,0-1.21991,0.05475-1.80969,0.14044
		C38.66205,49.29512,42.22821,47.00221,46.42108,47.00221z M56.11768,55.26576c0,2.19727-1.00311,4.29907-2.8421,5.87537
		l-0.39008,0.33435l0.39008,0.33435c1.83899,1.52856,2.8421,3.63025,2.8421,6.01855c0,0.63837-0.0921,1.25745-0.25159,1.8548
		c-0.67358,0.1272-1.37115,0.19916-2.08899,0.19916c-2.51385,0-4.79865-0.82959-6.52264-2.17749
		c1.66199-1.62982,2.67749-3.75568,2.67749-6.08606c0-2.35583-1.03857-4.50189-2.73297-6.13837
		c1.7301-1.37372,4.03735-2.22076,6.57812-2.22076c0.72137,0,1.42218,0.07288,2.09888,0.20135
		C56.02972,54.04323,56.11768,54.64583,56.11768,55.26576z M36.72449,67.82838c0-2.19727,1.00311-4.29895,2.89783-5.92297
		l0.4458-0.33447l-0.4458-0.33435c-1.83899-1.57629-2.89783-3.67798-2.89783-5.92297c0-0.63367,0.09052-1.24835,0.24768-1.84161
		c0.69214-0.13477,1.4093-0.21234,2.14862-0.21234c2.54077,0,4.84802,0.84705,6.57812,2.22076
		c-1.6944,1.63647-2.73291,3.78259-2.73291,6.13837c0,2.33038,1.01556,4.45618,2.67749,6.086
		c-1.724,1.3479-4.00885,2.17755-6.52271,2.17755c-0.73932,0-1.45648-0.07764-2.14862-0.21234
		C36.815,69.07674,36.72449,68.46205,36.72449,67.82838z M44.08051,61.57106c0-2.07599,0.89697-3.97101,2.36847-5.42859
		c1.4715,1.45758,2.36841,3.3526,2.36841,5.42859s-0.89691,3.97101-2.36841,5.42859
		C44.97748,65.54207,44.08051,63.64705,44.08051,61.57106z M29.42419,61.57106c0-3.57196,2.64258-6.61328,6.33722-7.78723
		c-0.09125,0.48383-0.15149,0.97644-0.15149,1.48206c0,2.38831,1.00311,4.58557,2.8421,6.30518
		c-1.83899,1.7196-2.8421,3.9646-2.8421,6.30518c0,0.50555,0.06024,0.99817,0.15149,1.48193
		C32.06683,68.18422,29.42419,65.14302,29.42419,61.57106z M46.42108,76.13979c-4.14856,0-7.68372-2.24463-9.06671-5.38904
		c0.57623,0.08167,1.16357,0.13477,1.76642,0.13477c2.82928,0,5.3996-0.94312,7.32819-2.47247
		c1.92859,1.52936,4.49884,2.47247,7.32819,2.47247c0.58234,0,1.14978-0.05072,1.70734-0.12701
		C54.09906,73.89888,50.56622,76.13979,46.42108,76.13979z M57.07086,69.37874c0.09821-0.50513,0.16138-1.02069,0.16138-1.55035
		c0-2.48376-1.00311-4.68103-2.78638-6.35291c1.78326-1.7196,2.78638-3.86902,2.78638-6.20959
		c0-0.51202-0.06128-1.01099-0.15485-1.50061c3.72559,1.1601,6.3963,4.21478,6.3963,7.80579
		C63.47369,65.16414,60.79987,68.22023,57.07086,69.37874z"/>
</g>
</svg>
