<?xml version="1.0" encoding="utf-8"?>
<!-- Generator: Adobe Illustrator 24.0.3, SVG Export Plug-In . SVG Version: 6.00 Build 0)  -->
<svg version="1.1" id="Layer_1" xmlns="http://www.w3.org/2000/svg" xmlns:xlink="http://www.w3.org/1999/xlink" x="0px" y="0px"
	 viewBox="0 0 177 46.70442" style="enable-background:new 0 0 177 46.70442;" xml:space="preserve">
<style type="text/css">
	.st0{filter:url(#Adobe_OpacityMaskFilter);}
	.st1{fill:#FFFFFF;}
	.st2{mask:url(#mask-2_1_);}
	.st3{fill-rule:evenodd;clip-rule:evenodd;fill:#FFFFFF;}
</style>
<defs>
	<filter id="Adobe_OpacityMaskFilter" filterUnits="userSpaceOnUse" x="0" y="0" width="177" height="46.70442">
		<feColorMatrix  type="matrix" values="1 0 0 0 0  0 1 0 0 0  0 0 1 0 0  0 0 0 1 0"/>
	</filter>
</defs>
<mask maskUnits="userSpaceOnUse" x="0" y="0" width="177" height="46.70442" id="mask-2_1_">
	<rect class="st0" width="177" height="46.70442"/>
	<g>
		<rect id="rect-1_1_" y="0.07485" class="st1" width="177" height="46.6295"/>
	</g>
</mask>
<g class="st2">
	<g>
		<g>
			<g>
				<g>
					<path class="st3" d="M99.89551,38.54609c0,0.07483-0.0874,0.07483-0.0874,0.14966s-0.08728,0.07483-0.08728,0.14966
						l-0.17468,0.14978l-0.17456,0.14966l-0.34937,0.29932l-0.17456,0.14978l-0.17468,0.14966
						c-0.34924,0.29944-0.78589,0.59875-1.22253,0.82336c-0.43652,0.22449-0.87317,0.4491-1.30981,0.59875
						c-0.43652,0.14966-0.96045,0.29932-1.39709,0.37427c-0.96057,0.14966-2.00842,0.14966-2.96887,0
						c-0.52393-0.07495-0.96057-0.22461-1.39722-0.37427c-0.43652-0.14966-0.96045-0.37427-1.30981-0.59875
						c-0.43652-0.22461-0.87317-0.52393-1.22253-0.82336c-0.34924-0.29944-0.69849-0.67358-0.96045-1.04785
						s-0.52393-0.74841-0.69861-1.12268s-0.34924-0.82336-0.43665-1.19751c-0.08728-0.4491-0.17456-0.82336-0.17456-1.27246
						c0-0.29932,0-0.67358,0.08728-0.97302c0.26196,0.22461,0.61121,0.37427,0.87317,0.52393
						c0.69861,0.37427,1.4845,0.74854,2.27039,0.97302c0.78589,0.29944,1.57178,0.4491,2.35767,0.59875
						c0.78589,0.14978,1.65918,0.22461,2.44507,0.22461c1.04785,0,2.0083-0.14978,2.96887-0.52393
						c0.87317-0.29944,1.74646-0.82336,2.35767-1.34729c0.69861-0.59875,1.22253-1.27234,1.65906-2.02087
						c0.43665-0.82324,0.61133-1.64661,0.61133-2.5448c0-0.89807-0.17468-1.72144-0.61133-2.5448
						c-0.34924-0.74841-0.96045-1.49683-1.65906-2.02087c-0.69861-0.59875-1.4845-1.04785-2.35767-1.422
						c-0.96057-0.37427-1.92102-0.52393-2.96887-0.52393h-0.26196c-0.87329,0-1.74646,0.07483-2.53235,0.22449
						c-0.87317,0.14966-1.65906,0.37427-2.53235,0.59875c-0.61121,0.22461-1.13513,0.4491-1.65906,0.67371
						c0-0.22461,0.08728-0.52393,0.08728-0.74854c0.08728-0.37427,0.17468-0.74841,0.34924-1.12268
						c0.17468-0.37427,0.34937-0.74841,0.61133-1.04785c0.26196-0.37427,0.52393-0.67358,0.87317-0.97302
						c0.34937-0.29932,0.69861-0.52393,1.13525-0.74841c0.34924-0.22461,0.78589-0.37427,1.22241-0.52393
						c0.43665-0.14978,0.87329-0.22461,1.30981-0.29944c0.87329-0.14966,1.83374-0.14966,2.70703,0
						c0.43652,0.07483,0.87317,0.14966,1.30981,0.29944c0.43652,0.14966,0.87317,0.29932,1.22241,0.52393
						c0.43665,0.22449,0.78589,0.4491,1.13525,0.74841l4.104-3.51782c-0.61121-0.52393-1.30981-0.97302-2.0083-1.422
						c-0.69861-0.37427-1.4845-0.74853-2.27039-0.97302c-0.78589-0.29944-1.57178-0.4491-2.35767-0.59875
						c-1.57178-0.29944-3.31824-0.29944-4.89001,0c-0.78589,0.14966-1.57178,0.37415-2.35767,0.59875
						c-0.78589,0.29932-1.57178,0.59875-2.27039,0.97302c-0.69849,0.37415-1.39709,0.89807-2.0083,1.422
						c-0.61133,0.52393-1.13525,1.1228-1.65918,1.72156c-0.43652,0.59875-0.87317,1.27234-1.13513,1.94592
						c-0.34924,0.67371-0.52393,1.34729-0.69861,2.02087c-0.17456,0.67371-0.26196,1.42212-0.26196,2.0957
						c0,0.67371,0.0874,1.42212,0.26196,2.0957c0.17468,0.59888,0.34937,1.19763,0.61133,1.79639
						c-0.26196,0.4491-0.61133,0.89819-0.78589,1.42212c-0.34937,0.67358-0.61133,1.422-0.69861,2.17053
						c-0.17468,0.74841-0.26196,1.49695-0.26196,2.17053c0,0.74841,0.08728,1.49695,0.26196,2.17053
						c0.17468,0.74854,0.43665,1.42212,0.69861,2.17053c0.34924,0.67371,0.78589,1.34729,1.22241,2.02087
						c0.52393,0.67371,1.04785,1.27246,1.74646,1.79639c0.61121,0.52393,1.39709,1.04785,2.0957,1.49695
						c0.69861,0.44897,1.57178,0.74841,2.35767,1.04785c0.78589,0.29932,1.65918,0.52393,2.53235,0.59875
						c0.87317,0.14966,1.74646,0.22449,2.53235,0.22449c0.87317,0,1.74634-0.07483,2.53223-0.22449
						c0.87329-0.14978,1.65918-0.37427,2.53235-0.59875c0.78589-0.29944,1.57178-0.67371,2.35767-1.04785
						c0.78589-0.4491,1.4845-0.89819,2.0957-1.49695l0.26196-0.22461c0.08728-0.07483,0.17468-0.14966,0.26196-0.29932
						c0.08728-0.07483,0.17468-0.14978,0.26196-0.29944c0.08728-0.07483,0.17468-0.14966,0.26196-0.29932
						c0.08728-0.07495,0.17468-0.14978,0.26196-0.29944c0.08728-0.07483,0.17468-0.14966,0.26196-0.29944
						c0.08728-0.07483,0.17468-0.22449,0.26196-0.29932s0.17468-0.22461,0.17468-0.29944L99.89551,38.54609z M23.66406,15.56806
						c1.74634,0.67358,3.40552,1.57178,4.80261,2.76929c1.30981,1.19763,2.44507,2.61963,3.23096,4.11658
						c0.78589,1.64661,1.22241,3.36816,1.22241,5.0896v18.56201h-5.76318c0-1.12268-0.34924-2.24536-1.04785-3.29321
						c-0.69865-1.04785-1.7465-2.02087-3.14355-2.91907c-1.39709-0.89819-3.05627-1.57178-4.97729-2.0957
						c-1.13513-0.22461-2.27039-0.4491-3.40552-0.59875c0.52393,0.89807,0.69861,1.79626,0.69861,2.69446
						s-0.17468,1.72144-0.61133,2.5448c-0.43652,0.82324-0.96045,1.49695-1.65906,2.0957s-1.57178,1.12268-2.44495,1.42212
						c-0.96057,0.37415-1.92114,0.52393-2.96899,0.52393s-2.00842-0.22461-2.88159-0.4491
						c-0.96057-0.37427-1.74646-0.82336-2.44495-1.42212c-0.69861-0.59875-1.30981-1.34729-1.65918-2.0957
						C0.17468,41.68953,0,40.86628,0,39.96809s0.17468-1.79626,0.52393-2.5448c0.52393-0.97302,1.22253-1.87109,2.0957-2.61963
						c0.61121-0.52393,1.39709-0.97302,2.18298-1.34717c-0.34924-0.4491-0.61121-0.89819-0.87317-1.34729
						c-0.96057-1.57178-1.39709-3.06873-1.39709-4.49085c0-1.79626,0.43652-3.51782,1.22241-5.0896
						c0.69861-1.57178,1.83374-2.99377,3.23096-4.19141c1.39709-1.19751,2.96887-2.0957,4.80261-2.76929
						c1.92114-0.67358,3.92944-1.04785,5.93787-1.04785C19.8219,14.52021,21.83032,14.89448,23.66406,15.56806z M132.37891,25.07356
						c1.30981-2.84412,2.61963-5.53857,3.49292-7.55945l1.39709-2.9939h-6.19983c-0.96057,2.02087-2.79431,5.91284-4.10413,8.68225
						c-1.39709,2.91895-2.79419,5.98767-4.01672,8.68213c-0.52393,1.19763-1.04785,2.32031-1.57178,3.29334
						c-0.61121-0.29944-1.30981-0.59875-1.92102-0.82336c-1.57178-0.52393-3.05627-0.82324-4.62805-0.82324
						c-1.04785,0-2.00842,0.22449-2.96899,0.59875c-0.87317,0.37427-1.65906,0.89819-2.27026,1.49695
						c-0.61133,0.59875-1.13525,1.27234-1.4845,2.0957c-0.34924,0.82324-0.52393,1.64661-0.52393,2.46985
						c0,0.82336,0.17468,1.64673,0.61121,2.46997c0.34937,0.74854,0.87329,1.42212,1.57178,2.02087
						c0.69857,0.59871,1.48446,1.04781,2.35767,1.34729c0.87329,0.29932,1.83374,0.52393,2.88159,0.52393
						c1.57178,0,3.14368-0.29944,4.54077-0.89819c1.13513-0.4491,2.18298-1.12268,3.14355-1.94604
						c0.26196-0.22449,0.61121-0.52393,0.87317-0.82324c0.52393,0.37415,1.04785,0.74841,1.57178,1.04785
						c1.65918,0.97302,3.5802,1.64661,5.6759,1.94592c1.57178,0.22461,3.31824,0.22461,5.0647,0
						c1.22241-0.14966,2.44495-0.44897,3.66748-0.74841c0.87317-0.29944,1.48438-0.4491,1.57178-0.52393l-2.44507-4.49084
						c0,0-0.34924,0.14978-0.96045,0.29944c-0.61133,0.14966-1.57178,0.4491-2.61963,0.52393
						c-1.22253,0.14966-2.27039,0.14966-3.31824,0c-1.22253-0.14966-2.27039-0.52393-3.23096-1.04785
						c-0.69849-0.37427-1.39709-0.89819-2.18298-1.49695c0.61121-1.27234,1.30981-2.84412,2.0957-4.56567
						C129.58459,31.13618,130.98181,27.99262,132.37891,25.07356z M70.38086,19.23567
						c-1.74634-1.42212-3.75476-2.61963-6.02515-3.36816c-2.35767-0.82324-4.80261-1.27234-7.33496-1.27234
						c-2.0957,0-4.36609,0.14966-6.63635,0.52393c-2.00842,0.29944-4.01685,0.74841-6.02527,1.34729
						c-1.74634,0.44897-3.40552,1.04785-4.97729,1.64661c-1.39709,0.52393-2.61963,1.04785-3.4928,1.57178l3.05627,4.19141
						c0.61121-0.37427,1.65906-0.74854,2.70691-1.19751c1.39709-0.52393,2.88159-1.04785,4.36609-1.42212
						c0.17468-0.07483,0.34924-0.07483,0.52393-0.14966v5.53857c-0.69861,0.14978-1.30981,0.29944-1.92114,0.52393
						c-1.48438,0.52393-2.70691,1.27246-3.84204,2.17053c-1.13525,0.97302-2.00842,2.02087-2.53235,3.29334
						c-0.52393,1.19751-0.87317,2.46997-0.87317,3.74231s0.26196,2.5448,0.87317,3.74231
						c0.61121,1.27246,1.4845,2.32031,2.53235,3.29333c1.04785,0.89807,2.44495,1.64661,3.92944,2.17053
						c1.22253,0.4491,2.61963,0.67358,4.27869,0.89807c1.22253,0.14978,2.53235,0.22461,4.19141,0.22461h3.75488
						c2.53223,0,4.97729-0.4491,7.33496-1.27246c2.27039-0.82324,4.27869-1.94592,6.02515-3.36804
						c1.74646-1.49695,3.14355-3.14355,4.19141-5.0896c1.04785-2.02084,1.57178-4.11654,1.57178-6.28711
						s-0.52393-4.26628-1.57178-6.28711C73.52441,22.37922,72.12732,20.65779,70.38086,19.23567z M167.21997,44.15962
						c2.53235,1.49695,5.76318,2.39502,9.78003,2.39502v-5.01465c-2.0957,0-3.75488-0.37427-5.15198-0.89819
						c2.70691-2.84424,4.19141-6.28711,4.19141-10.02942c0-4.34119-3.66748-7.93384-8.12085-7.93384
						c-0.43665,0-0.78589,0-1.22253,0.07483l3.92944-3.36804c-3.4928-2.9939-8.12085-4.6405-13.09814-4.6405
						s-9.60535,1.64661-13.09814,4.6405c-3.49292,2.9939-5.41394,6.96069-5.41394,11.22705
						c0,4.26624,1.92102,8.23303,5.41394,11.22693c3.4928,2.9939,8.12085,4.6405,13.09814,4.6405
						C161.02014,46.47981,164.33838,45.65657,167.21997,44.15962z M26.28357,36.00129
						c0.20374,0.11646,0.40759,0.2782,0.61133,0.41479v0.10913h0.17456c-0.05823-0.0332-0.11633-0.07019-0.17456-0.10913v-8.87244
						c0-1.12268-0.17468-2.17053-0.69861-3.14355c-0.43665-0.97302-1.13513-1.79639-2.00842-2.5448
						c-0.87317-0.74854-1.83374-1.34729-2.96887-1.72144c-2.35767-0.82336-4.97729-0.82336-7.33496,0
						c-1.13525,0.37415-2.0957,0.9729-2.96899,1.72144c-0.87317,0.74841-1.57178,1.57178-2.0083,2.5448
						c-0.43665,0.97302-0.69861,2.02087-0.69861,3.14355c0,0.67358,0.26196,1.34717,0.78589,2.24536
						c0.52393,0.74854,1.13513,1.49695,1.74646,2.32031h0.78589c2.79419,0,5.50122,0.37415,8.03357,1.04785
						C22.09216,33.83076,24.36255,34.80378,26.28357,36.00129z M69.24573,34.80366
						c-0.69861,1.34729-1.65918,2.46997-2.88159,3.51782c-1.22253,1.04785-2.70703,1.79639-4.27881,2.39514
						c-1.65906,0.59875-3.31824,0.89807-5.06458,0.89807H52.3927v-9.43066c0.26196,0.14978,0.52393,0.37427,0.78589,0.59875
						l2.79431,2.39514l4.104-3.51782l-2.79419-2.39502c-1.13525-0.97302-2.35767-1.72156-3.84216-2.17065
						c-0.34924-0.14966-0.69861-0.22449-1.04785-0.29932v-6.88586c1.65906-0.22461,3.14355-0.29944,4.62805-0.29944
						c1.74634,0,3.4928,0.29944,5.06458,0.89819s3.05627,1.34717,4.27881,2.39502c1.22241,1.04785,2.18298,2.24548,2.88159,3.51782
						c0.69849,1.34729,1.04785,2.76929,1.04785,4.26624C70.29358,32.03437,69.94421,33.45649,69.24573,34.80366z
						 M157.52747,19.75959c-3.40552,0-6.54919,1.12268-8.99414,3.14355c-2.35767,2.02087-3.66748,4.79016-3.66748,7.70923
						s1.30981,5.61353,3.66748,7.70923c2.35767,2.02087,5.58862,3.14355,8.99414,3.14355c1.92102,0,3.75476-0.37427,5.41382-1.04785
						c-2.18298-2.84424-3.14355-6.36194-3.14355-9.80493c0-3.81714,2.79431-7.03564,6.54907-7.78406
						C163.98914,20.80744,160.84558,19.75959,157.52747,19.75959z M165.64819,30.61238c0-1.72156,1.22253-2.91907,2.27039-2.91907
						s2.27026,1.19751,2.27026,2.91907c0,2.39502-0.96045,4.71533-2.61963,6.58643
						C165.82288,34.57917,165.64819,31.5854,165.64819,30.61238z M90.29016,28.96565
						c-0.43665,0.14966-0.87329,0.37427-1.30981,0.59875c-0.0874,0.07483-0.26196,0.14966-0.43665,0.29944
						c0.34924,0.29932,0.69861,0.52393,1.04785,0.74841c0.34924,0.22461,0.78589,0.37427,1.22253,0.52393
						c0.43652,0.14966,0.87317,0.22461,1.30981,0.29944c0.43652,0.07483,0.87317,0.07483,1.30981,0.07483
						c0.26196,0,0.43652-0.07483,0.69849-0.14966c0.26196-0.07495,0.43665-0.14978,0.61133-0.29944
						c0.08728-0.07483,0.26196-0.29944,0.34924-0.4491c0.08728-0.22449,0.17468-0.37427,0.17468-0.59875
						s-0.0874-0.4491-0.17468-0.59875c-0.08728-0.22461-0.17468-0.37427-0.34924-0.52393
						c-0.17468-0.07483-0.43665-0.22461-0.61133-0.29944c-0.26196-0.07483-0.43652-0.14966-0.69849-0.14966h-0.26196
						c-0.52393,0-0.96057,0.07483-1.4845,0.14966C91.25061,28.66621,90.72668,28.81599,90.29016,28.96565z M43.1366,36.30073
						c0,0.59875,0.17468,1.27234,0.43665,1.87109c0.34924,0.59875,0.78589,1.19763,1.30981,1.72156
						c0.43652,0.44897,0.96045,0.74841,1.65906,0.9729v-9.0564c-0.61121,0.22449-1.13513,0.52393-1.65906,0.97302
						c-0.61133,0.4491-1.04785,1.04785-1.30981,1.64661S43.1366,35.70198,43.1366,36.30073z M9.25598,40.56697
						c-0.08728,0.14966-0.26196,0.37427-0.34924,0.52393c-0.17468,0.14966-0.34924,0.22449-0.61121,0.29944
						c-0.43665,0.14966-0.96057,0.14966-1.39722,0c-0.17456-0.07495-0.43652-0.22461-0.61121-0.29944
						c-0.17468-0.14966-0.26196-0.29944-0.34924-0.52393c-0.0874-0.22461-0.17468-0.37427-0.17468-0.59875
						c0-0.22461,0-0.52393,0.17468-0.89819c0.17456-0.29944,0.34924-0.59875,0.69849-0.82336
						c0.34937-0.29932,0.87329-0.59875,1.4845-0.74841c0.17468,0.29944,0.43665,0.52393,0.61121,0.82336
						c0.43665,0.67358,0.69861,1.27234,0.69861,1.64661C9.43066,40.1927,9.34338,40.34236,9.25598,40.56697z M118.49475,40.1927
						c-0.52393,0.4491-0.96057,0.74854-1.57178,0.97302c-0.61121,0.29944-1.30981,0.37427-2.0957,0.37427
						c-0.17468,0-0.43665,0-0.61121-0.07483c-0.17468-0.07495-0.34937-0.14978-0.52393-0.29944
						c-0.17468-0.14966-0.26196-0.29944-0.34937-0.4491c-0.08728-0.14966-0.08728-0.37427-0.08728-0.52393
						c0-0.22449,0.08728-0.4491,0.17468-0.59875c0.08728-0.22449,0.26196-0.4491,0.43652-0.59875
						c0.17468-0.14966,0.34937-0.29944,0.52393-0.37427c0.17468-0.07483,0.34937-0.07483,0.43665-0.07483
						c0.78589,0,1.57178,0.14966,2.44495,0.4491c0.52393,0.22449,1.04785,0.4491,1.65918,0.74841
						C118.84399,39.96821,118.66943,40.11787,118.49475,40.1927z"/>
				</g>
			</g>
			<g>
				<g>
					<path class="st3" d="M30.82434,4.93989h-2.44495V0.14973h2.18298c0.34937,0,0.69861,0.07483,0.96057,0.14966
						s0.43665,0.14978,0.61121,0.29944c0.26196,0.22449,0.34937,0.52393,0.34937,0.82324c0,0.37427-0.17468,0.67371-0.43665,0.82336
						c-0.08728,0.07483-0.17468,0.07483-0.17468,0.14966c0,0-0.08728,0.07483-0.17456,0.07483
						c0.34924,0.07495,0.61121,0.22461,0.78589,0.37427c0.17456,0.22461,0.26196,0.4491,0.26196,0.74854
						c0,0.29932-0.17468,0.59875-0.43665,0.89807C32.13416,4.79023,31.61023,4.93989,30.82434,4.93989z M29.60193,2.09577h0.61121
						c0.34937,0,0.61133,0,0.78589-0.07483c0.17468-0.07483,0.26196-0.22461,0.26196-0.37427
						c0-0.22449-0.08728-0.37427-0.26196-0.4491c-0.17456-0.07483-0.43652-0.07483-0.78589-0.07483h-0.61121V2.09577z
						 M30.4751,4.0417h-0.78589V2.99385h0.69861c0.34924,0,0.69861,0,0.87317,0.07483
						c0.17468,0.07483,0.26196,0.29944,0.26196,0.4491s-0.08728,0.29944-0.26196,0.4491
						C31.08643,4.0417,30.82446,4.0417,30.4751,4.0417z"/>
				</g>
				<g>
					<path class="st3" d="M41.04089,3.89204l0.52393,1.04785V4.86506h1.30981l-2.35767-4.71533h-1.22253l-2.44495,4.79016h1.30981
						l0.52393-1.04785H41.04089z M39.20715,2.91902l0.69861-1.34729l0.69849,1.34729H39.20715z"/>
				</g>
				<g>
					<path class="st3" d="M50.73364,3.29328c0.69861-0.22449,1.04785-0.74841,1.04785-1.49695
						c0-0.59875-0.17468-0.97302-0.52393-1.27234c-0.34924-0.22461-0.96057-0.37427-1.83374-0.37427h-2.0957v4.86499h1.22253
						V3.51777h0.87317l1.22253,1.49695h1.48438L50.73364,3.29328z M50.55896,1.79634c0,0.22461-0.08728,0.37427-0.26196,0.52393
						c-0.17468,0.14978-0.43665,0.14978-0.96057,0.22461h-0.87317V1.12275h0.96057c0.43652,0,0.69849,0.07483,0.87317,0.14966
						S50.55896,1.57185,50.55896,1.79634z"/>
				</g>
				<g>
					<path class="st3" d="M67.76123,2.54487c0-0.74854-0.26196-1.27246-0.78589-1.72156s-1.22241-0.67358-2.35767-0.67358h-1.92102
						v4.79016h1.92102c1.04785,0,1.83374-0.22449,2.35767-0.67358C67.49927,3.89204,67.76123,3.29328,67.76123,2.54487z
						 M66.53882,2.54487c0,0.4491-0.17468,0.82324-0.43665,1.04785c-0.34924,0.29932-0.78589,0.37415-1.30981,0.4491h-0.78589
						V1.12275h0.69861c0.61121,0,1.13513,0.14966,1.39709,0.37427C66.36414,1.72151,66.53882,2.09577,66.53882,2.54487z"/>
				</g>
				<g>
					<path class="st3" d="M76.66798,0.14969V1.1227H73.8737v0.97301h2.44499v0.89816H73.8737v0.97301h2.8816v0.97301h-4.1041
						V0.14969H76.66798z"/>
				</g>
				<g>
					<path class="st3" d="M90.98866,0.14969h1.2225v4.71534h-1.2225V3.06872h-2.18303v1.87117h-1.2225V0.14969h1.2225v2.02086
						h2.18303V0.14969z"/>
				</g>
				<g>
					<path class="st3" d="M101.37988,0.14969V1.1227h-2.70696v0.97301h2.44499v0.89816h-2.44499v0.97301h2.8816v0.97301h-4.1041
						V0.14969H101.37988z"/>
				</g>
				<g>
					<path class="st3" d="M106.35718,4.93988V0.14969h1.2225v3.81718h2.35767v0.97301H106.35718z"/>
				</g>
				<g>
					<path class="st3" d="M118.14551,3.89204l0.52393,1.04785h1.22253l-2.35767-4.71533h-1.22253l-2.35767,4.71533h1.30981
						l0.52393-1.04785H118.14551z M116.31177,2.91902l0.69861-1.34729l0.69849,1.34729H116.31177z"/>
				</g>
				<g>
					<path class="st3" d="M129.40991,2.54487c0-0.74854-0.26196-1.27246-0.78589-1.72156s-1.22241-0.67358-2.35767-0.67358h-1.92102
						v4.79016h1.92102c1.04785,0,1.83374-0.22449,2.35767-0.67358C129.14795,3.89204,129.40991,3.29328,129.40991,2.54487z
						 M128.1875,2.54487c0,0.4491-0.17468,0.82324-0.43665,1.04785c-0.34924,0.29932-0.78589,0.37415-1.30981,0.4491h-0.78589
						V1.12275h0.69861c0.61121,0,1.13513,0.14966,1.39709,0.37427C128.01282,1.72151,128.1875,2.09577,128.1875,2.54487z"/>
				</g>
				<g>
					<path class="st3" d="M136.91956,4.93989c0.87329,0,1.57178-0.22449,2.0957-0.67358s0.78589-1.04785,0.87329-1.72144
						c0-0.67371-0.34937-1.27246-0.87329-1.72156c-0.61121-0.4491-1.30981-0.67358-2.0957-0.67358
						c-0.87317,0-1.57178,0.22449-2.0957,0.67358c-0.61121,0.4491-0.87317,1.04785-0.87317,1.72156
						c0,0.67358,0.34924,1.27234,0.87317,1.72144C135.43518,4.7154,136.13367,4.93989,136.91956,4.93989z M138.14209,1.4969
						c0.26196,0.29932,0.43665,0.59876,0.43665,1.04785c0,0.37427-0.17468,0.74841-0.43665,1.04785
						c-0.26196,0.29932-0.69849,0.4491-1.13513,0.4491s-0.78589-0.14978-1.13513-0.4491
						c-0.26196-0.29944-0.43665-0.59875-0.43665-1.04785c0-0.37427,0.08728-0.74854,0.43665-1.04785
						c0.26196-0.29944,0.69849-0.4491,1.13513-0.4491S137.79285,1.19746,138.14209,1.4969z"/>
				</g>
				<g>
					<path class="st3" d="M145.91367,1.1227c-0.08733,0.07485-0.17464,0.22454-0.17464,0.29939
						c0,0.14969,0.08731,0.22454,0.17464,0.29939c0.17464,0.07485,0.52393,0.14969,1.04785,0.29939
						c0.52393,0.07485,0.96054,0.29939,1.2225,0.52393c0.26196,0.22454,0.4366,0.52393,0.4366,0.97301
						s-0.17464,0.74847-0.52393,1.04785s-0.87321,0.37423-1.48447,0.37423c-0.8732,0-1.65909-0.29939-2.35767-0.82331
						l0.69858-0.74847c0.61124,0.44908,1.13516,0.67362,1.65909,0.67362c0.26196,0,0.43661-0.07485,0.52394-0.14969
						c0.08731-0.07485,0.17464-0.22454,0.17464-0.37423c0-0.14969-0.08733-0.22454-0.17464-0.37423
						c-0.17465-0.07485-0.43661-0.14969-0.7859-0.22454c-0.61124-0.14969-1.13516-0.29939-1.39713-0.52393
						c-0.26198-0.22454-0.43661-0.52393-0.43661-0.97301s0.17464-0.82331,0.52393-1.04785S145.91367,0,146.43759,0
						c0.34929,0,0.69858,0.07485,1.13518,0.14969c0.34929,0.07485,0.69856,0.29939,0.96053,0.44908l-0.61124,0.74847
						c-0.52393-0.29939-0.96054-0.44908-1.48447-0.44908C146.17563,0.97301,146.00099,1.04785,145.91367,1.1227L145.91367,1.1227z"
						/>
				</g>
			</g>
		</g>
	</g>
</g>
</svg>
