<?xml version="1.0" encoding="utf-8"?>
<!-- Generator: Adobe Illustrator 24.0.3, SVG Export Plug-In . SVG Version: 6.00 Build 0)  -->
<svg version="1.1" id="Layer_1" xmlns="http://www.w3.org/2000/svg" xmlns:xlink="http://www.w3.org/1999/xlink" x="0px" y="0px"
	 viewBox="0 0 177 72.80542" style="enable-background:new 0 0 177 72.80542;" xml:space="preserve">
<style type="text/css">
	.st0{filter:url(#Adobe_OpacityMaskFilter);}
	.st1{fill:#FFFFFF;}
	.st2{mask:url(#mask-2_1_);}
	.st3{fill-rule:evenodd;clip-rule:evenodd;fill:#FFFFFF;}
</style>
<defs>
	<filter id="Adobe_OpacityMaskFilter" filterUnits="userSpaceOnUse" x="0" y="0.00005" width="177" height="72.8053">
		<feColorMatrix  type="matrix" values="1 0 0 0 0  0 1 0 0 0  0 0 1 0 0  0 0 0 1 0"/>
	</filter>
</defs>
<mask maskUnits="userSpaceOnUse" x="0" y="0.00005" width="177" height="72.8053" id="mask-2_1_">
	<rect class="st0" width="177" height="72.80542"/>
	<g>
		<rect id="rect-1_1_" class="st1" width="177" height="72.73276"/>
	</g>
</mask>
<g class="st2">
	<g>
		<g>
			<g>
				<path class="st3" d="M41.28308,13.22417l15.4281-13.22412v48.60962h-15.4281V13.22417z M36.11206,13.22417l-0.08484,0.07275
					v-0.07275H36.11206z M36.02722,13.29692v35.31274h-15.4281V26.52092L36.02722,13.29692z M104.26721,42.7968
					c0.59338-1.1626,0.84766-2.47046,0.84766-3.92358c0-1.59851-0.33899-2.97913-1.10193-4.21436
					c-0.76294-1.08984-1.69543-1.96179-2.79749-2.68835c-1.10193-0.65393-2.37354-1.23523-3.81458-1.59851
					c-1.44116-0.3634-2.79749-0.72668-4.23853-1.01733c-1.35632-0.29065-2.54309-0.58118-3.47559-0.79919
					s-1.69543-0.43604-2.2041-0.72668c-0.50854-0.2179-0.84766-0.50854-1.10193-0.87183
					c-0.25439-0.36328-0.33911-0.72668-0.33911-1.23523c0-0.36328,0.08472-0.72668,0.25427-1.01721
					c0.16956-0.29065,0.42383-0.5813,0.84778-0.87195c0.42383-0.29065,0.93237-0.50867,1.6106-0.65393
					c0.59338-0.14539,1.44104-0.21802,2.37354-0.21802c1.6106,0,3.13647,0.29065,4.40808,0.79932
					c1.27148,0.50854,2.45837,1.30786,3.64514,2.32507l5.08618-4.28699c-1.69543-1.52588-3.5603-2.68835-5.67957-3.5603
					c-2.11926-0.79932-4.49292-1.23523-7.29028-1.23523c-1.69543,0-3.39075,0.14526-4.91663,0.5813
					c-1.61072,0.36328-2.8822,0.94458-4.06897,1.74377c-1.18677,0.79932-2.03455,1.7439-2.71265,2.83374
					c-0.67822,1.08997-1.01721,2.3252-1.01721,3.70569c0,1.52588,0.33899,2.76111,0.84766,3.77832
					c0.50867,1.01733,1.27148,1.88916,2.28882,2.54309c1.01721,0.65393,2.20398,1.23523,3.5603,1.67126
					c1.35632,0.43591,2.8822,0.87195,4.4928,1.16248c1.69543,0.3634,3.05176,0.65405,4.06897,0.94458
					c1.01721,0.29065,1.78015,0.65405,2.37354,0.94458c0.50867,0.29065,0.9325,0.65405,1.10205,1.01733
					c0.25427,0.36328,0.33911,0.79919,0.33911,1.30786c0,1.1626-0.50867,2.03442-1.52588,2.54309
					c-0.9325,0.50867-2.54309,0.79919-4.66235,0.79919c-1.78015,0-3.39087-0.29053-4.91663-0.79919
					c-1.52588-0.5813-2.8822-1.45325-4.15381-2.68848l-5.08618,3.92371c1.35632,1.74377,3.22131,3.05176,5.67957,4.06897
					c2.45837,0.94458,5.17102,1.45312,8.13794,1.45312c2.45837,0,4.4928-0.29053,6.27307-0.72656
					c1.69531-0.43591,3.13647-1.08984,4.32324-1.96179S103.75854,43.9594,104.26721,42.7968z M144.10913,42.50615
					c0.59338-1.23523,0.9325-2.61572,0.9325-4.21423c0-1.67126-0.50867-3.05176-1.44104-4.21436
					c-0.9325-1.08984-2.11926-1.88916-3.56042-2.47046c1.18677-0.65393,2.11926-1.45312,2.79749-2.47034
					c0.6781-1.01733,1.01721-2.17981,1.01721-3.48779c0-2.61572-1.01721-4.57751-3.05176-5.95813
					c-2.03442-1.38049-4.74707-2.03442-8.22266-2.03442h-16.27588v30.51721h16.10632c1.86499,0,3.64514-0.2179,5.17102-0.65393
					c1.52576-0.43591,2.88208-1.08984,3.98413-1.88916C142.66809,44.75859,143.51575,43.74138,144.10913,42.50615z
					 M166.57324,23.68718v24.48645h-7.12073V23.68718h-10.17236v-6.03076h27.55029v6.03076H166.57324z M136.64941,26.23027
					c0-0.94458-0.33899-1.67114-1.01721-2.17981c-0.6781-0.50854-1.78015-0.72656-3.39075-0.72656h-9.07043v5.81287h9.40942
					c1.52588,0,2.54321-0.29065,3.1366-0.79932C136.39514,27.75615,136.64941,27.02959,136.64941,26.23027z M0,39.74504
					l15.4281-13.22412v22.08862H0V39.74504z M132.66516,34.5136c3.39087,0,5.0863,1.30786,5.0863,3.92371
					c0,1.16248-0.42383,2.17969-1.27161,2.90637c-0.84766,0.72656-2.11926,1.08984-3.8147,1.08984h-9.40942V34.5136H132.66516z"/>
			</g>
			<g>
				<g>
					<path class="st3" d="M82.31178,60.38054c0,0.21798-0.08477,0.43596-0.16954,0.65394
						c-0.08477,0.21798-0.25431,0.3633-0.42385,0.50862s-0.42385,0.29064-0.76293,0.3633
						c-0.25431,0.07266-0.67816,0.14532-1.01724,0.14532c-0.42385,0-0.8477-0.07266-1.27155-0.21798
						s-0.67816-0.3633-1.01724-0.65394l0.67816-0.58128c0.16954,0.21798,0.42385,0.3633,0.76293,0.43596
						c0.25431,0.14532,0.59339,0.14532,0.93247,0.14532c0.8477,0,1.27155-0.29064,1.27155-0.79926
						c0-0.07266,0-0.21798-0.08477-0.29064l-0.25431-0.21798c-0.08477-0.07266-0.25431-0.14532-0.42385-0.21798
						c-0.16954-0.07266-0.42385-0.14532-0.67816-0.21798c-0.33908-0.07266-0.59339-0.14532-0.8477-0.29064
						c-0.25431-0.07266-0.42385-0.21798-0.59339-0.29064c-0.16954-0.14532-0.25431-0.29064-0.33908-0.43596
						s-0.08477-0.3633-0.08477-0.58128c0-0.21798,0.08477-0.43596,0.16954-0.65394s0.25431-0.3633,0.42385-0.50862
						s0.42385-0.21798,0.67816-0.29064c0.25431-0.07266,0.50862-0.07266,0.8477-0.07266c0.42385,0,0.8477,0.07266,1.18678,0.21798
						s0.67816,0.29064,0.93247,0.50862l-0.67816,0.58128c-0.16954-0.14532-0.42385-0.29064-0.67816-0.3633
						c-0.25431-0.07266-0.50862-0.14532-0.8477-0.14532s-0.67816,0.07266-0.8477,0.21798
						c-0.16954,0.14532-0.25431,0.29064-0.25431,0.50862c0,0.07266,0,0.14532,0.08477,0.21798
						c0,0.07266,0.08477,0.14532,0.25431,0.21798c0.08477,0.07266,0.25431,0.14532,0.42385,0.21798
						c0.16954,0.07266,0.42385,0.14532,0.67816,0.21798c0.33908,0.07266,0.59339,0.14532,0.8477,0.29064
						c0.25431,0.07266,0.42385,0.21798,0.67816,0.29064c0.16954,0.14532,0.33908,0.29064,0.42385,0.43596
						C82.22701,59.94458,82.31178,60.0899,82.31178,60.38054L82.31178,60.38054z"/>
				</g>
				<g>
					<path class="st3" d="M89.17822,60.16264v-0.3634c0-0.29053-0.08484-0.50854-0.08484-0.79919
						c-0.08472-0.21802-0.16956-0.43591-0.33911-0.65393c-0.16956-0.14539-0.33899-0.36328-0.59338-0.43604
						c-0.25427-0.07263-0.50854-0.14526-0.84766-0.14526s-0.59338,0.07263-0.84766,0.14526
						c-0.25439,0.14539-0.50867,0.29065-0.67822,0.43604c-0.16956,0.14526-0.33911,0.36328-0.42383,0.65393
						c-0.08484,0.29065-0.16956,0.5813-0.16956,0.94458c0,0.29065,0.08472,0.5813,0.16956,0.87195
						c0.08472,0.2179,0.25427,0.50854,0.42383,0.65393c0.16956,0.21802,0.42383,0.36328,0.67822,0.43591
						c0.25427,0.07263,0.50854,0.14539,0.76282,0.14539c0.33911,0,0.67822-0.07275,0.9325-0.14539
						c0.25439-0.07263,0.50867-0.2179,0.67822-0.36328l-0.59338-0.50867l-0.50867,0.21802
						c-0.16956,0.07263-0.33911,0.07263-0.50867,0.07263c-0.16943,0-0.25427,0-0.42383-0.07263
						c-0.08472-0.07263-0.25427-0.14526-0.33899-0.21802c-0.08484-0.07263-0.16956-0.2179-0.25439-0.36328
						c-0.08472-0.14526-0.16956-0.29065-0.16956-0.50854H89.17822z M88.16089,59.14531
						c0.08472,0.07263,0.08472,0.21802,0.08472,0.36328v0.07263h-2.20398c0-0.29065,0.16956-0.5813,0.33911-0.72656
						c0.16956-0.21802,0.42383-0.29065,0.76294-0.29065c0.16956,0,0.33899,0,0.50854,0.07263s0.25439,0.14539,0.33911,0.21802
						S88.07605,58.99992,88.16089,59.14531z"/>
				</g>
				<g>
					<path class="st3" d="M94.68822,58.70936c-0.08477-0.07266-0.16954-0.07266-0.33908-0.07266
						c-0.08477,0-0.25431-0.07266-0.42385-0.07266c-0.25431,0-0.50862,0.07266-0.67816,0.29064s-0.25431,0.43596-0.25431,0.79926
						v2.32512h-0.93246V57.9101h0.93246v0.3633c0.08477-0.14532,0.25431-0.21798,0.42385-0.3633
						c0.16954-0.07266,0.42385-0.14532,0.67816-0.14532c0.16954,0,0.33908,0,0.50862,0.07266
						c0.08477,0,0.25431,0.07266,0.33908,0.14532L94.68822,58.70936L94.68822,58.70936z"/>
				</g>
				<g>
					<path class="st3" d="M99.94396,61.9064H99.0115l-1.6954-4.06897h1.01724l0.8477,2.17981
						c0.08477,0.21798,0.16954,0.3633,0.25431,0.58128c0.08477,0.14532,0.08477,0.29064,0.16953,0.43596
						c0-0.14532,0.08477-0.29064,0.16954-0.43596s0.08477-0.3633,0.16954-0.58128l0.8477-2.17981h1.01724L99.94396,61.9064
						L99.94396,61.9064z"/>
				</g>
				<g>
					<path class="st3" d="M105.36926,57.18352c0.08484-0.07263,0.16956-0.21802,0.16956-0.36328
						c0-0.14539-0.08472-0.29065-0.16956-0.3634c-0.08472-0.07263-0.25427-0.14526-0.42383-0.14526
						s-0.33911,0.07263-0.42383,0.14526c-0.08484,0.07275-0.16956,0.21802-0.16956,0.3634
						c0,0.14526,0.08472,0.29065,0.16956,0.36328c0.08472,0.07263,0.25427,0.14526,0.42383,0.14526
						S105.28455,57.25615,105.36926,57.18352z M104.43677,57.83745v4.06897h0.9325v-4.06897H104.43677z"/>
				</g>
				<g>
					<path class="st3" d="M111.64224,59c-0.16954-0.14532-0.42385-0.29064-0.59339-0.3633s-0.42385-0.14532-0.59339-0.14532
						c-0.33908,0-0.59339,0.14532-0.8477,0.3633c-0.16954,0.21798-0.33908,0.58128-0.33908,1.01724
						c0,0.21798,0,0.3633,0.08477,0.58128c0.08477,0.14532,0.08477,0.29064,0.25431,0.43596
						c0.08477,0.14532,0.25431,0.21798,0.33908,0.29064c0.16954,0.07266,0.33908,0.07266,0.50862,0.07266
						c0.25431,0,0.42385-0.07266,0.59339-0.14532c0.16954-0.07266,0.33908-0.21798,0.50862-0.3633l0.59339,0.50862
						c-0.08477,0.07266-0.16954,0.21798-0.33908,0.29064c-0.08477,0.07266-0.25431,0.14532-0.33908,0.21798
						c-0.16954,0.07266-0.25431,0.14532-0.42385,0.14532c-0.16954,0.07266-0.33908,0.07266-0.59339,0.07266
						s-0.59339-0.07266-0.8477-0.14532s-0.50862-0.21798-0.67816-0.43596c-0.16954-0.21798-0.33908-0.43596-0.42385-0.65394
						c-0.08477-0.29064-0.16954-0.58128-0.16954-0.87192c0-0.3633,0.08477-0.65394,0.16954-0.87192
						c0.08477-0.29064,0.25431-0.50862,0.42385-0.65394c0.16954-0.21798,0.42385-0.29064,0.67816-0.43596
						c0.25431-0.07266,0.50862-0.14532,0.8477-0.14532s0.67816,0.07266,0.93247,0.14532
						c0.25431,0.14532,0.50862,0.29064,0.76293,0.50862L111.64224,59L111.64224,59z"/>
				</g>
				<g>
					<path class="st3" d="M118.84778,60.16264v-0.3634c0-0.29053,0-0.50854-0.08484-0.79919
						c-0.08472-0.21802-0.16956-0.43591-0.33911-0.65393c-0.16956-0.14539-0.33899-0.36328-0.59338-0.43604
						c-0.25427-0.07263-0.50854-0.14526-0.84766-0.14526s-0.59338,0.07263-0.84766,0.14526
						c-0.25439,0.14539-0.50867,0.29065-0.67822,0.43604c-0.16956,0.14526-0.33911,0.36328-0.42383,0.65393
						c-0.08484,0.29065-0.16956,0.5813-0.16956,0.94458c0,0.29065,0.08472,0.5813,0.16956,0.87195
						c0.08472,0.2179,0.25427,0.50854,0.42383,0.65393c0.16956,0.21802,0.42383,0.36328,0.67822,0.43591
						c0.25427,0.07263,0.50854,0.14539,0.76282,0.14539c0.33911,0,0.67822-0.07275,0.9325-0.14539
						c0.25439-0.07263,0.50867-0.2179,0.67822-0.36328l-0.59338-0.50867l-0.50867,0.21802
						c-0.08472,0.07263-0.33911,0.07263-0.50867,0.07263c-0.16943,0-0.25427,0-0.42383-0.07263
						c-0.08472-0.07263-0.25427-0.14526-0.33899-0.21802c-0.08484-0.07263-0.16956-0.2179-0.25439-0.36328
						c-0.08472-0.14526-0.16956-0.29065-0.16956-0.50854H118.84778z M117.83044,59.14531
						c0.08472,0.07263,0.08472,0.21802,0.08472,0.36328v0.07263h-2.20398c0-0.29065,0.16956-0.5813,0.33911-0.72656
						c0.16956-0.21802,0.42383-0.29065,0.76294-0.29065c0.16956,0,0.33899,0,0.50854,0.07263s0.25439,0.14539,0.33911,0.21802
						S117.74561,58.99992,117.83044,59.14531z"/>
				</g>
				<g>
					<path class="st3" d="M133.25854,60.23528c0,0.5813-0.16943,0.94458-0.59338,1.23523
						c-0.33899,0.29065-0.93237,0.43591-1.6106,0.43591h-2.54309v-5.44946h2.62793c0.59338,0,1.01721,0.14526,1.35632,0.36328
						c0.33899,0.21802,0.50854,0.5813,0.50854,1.01721c0,0.29065-0.08472,0.50867-0.25427,0.65393
						c-0.16956,0.14539-0.33911,0.29065-0.59338,0.43604c0.08472,0,0.25427,0.07263,0.33911,0.14526
						c0.08472,0.07275,0.25427,0.14539,0.33899,0.21802c0.08484,0.07263,0.16956,0.21802,0.25439,0.36328
						C133.25854,59.87199,133.25854,60.09001,133.25854,60.23528z M132.07178,57.98271c0-0.2179-0.08472-0.36328-0.16956-0.50854
						c-0.16956-0.14539-0.33911-0.21802-0.6781-0.21802h-1.69543v1.38049h1.69543c0.16956,0,0.25427,0,0.42383-0.07263
						c0.08472-0.07263,0.16956-0.07263,0.25427-0.14526c0.08484-0.07275,0.08484-0.14539,0.16956-0.21802V57.98271z
						 M132.07178,59.65398c0.16956,0.14526,0.25427,0.36328,0.25427,0.65393c0,0.2179-0.08472,0.43591-0.16943,0.72656
						c-0.25439,0.14539-0.50867,0.21802-0.9325,0.21802h-1.69543v-1.81653h1.69543
						C131.56311,59.43596,131.90222,59.50859,132.07178,59.65398z"/>
				</g>
				<g>
					<path class="st3" d="M139.10776,61.9064v-0.3633c-0.08476,0.14532-0.2543,0.29064-0.50862,0.3633
						c-0.2543,0.07266-0.42384,0.14532-0.67816,0.14532c-0.59338,0-1.01724-0.14532-1.27155-0.43596
						c-0.25432-0.29064-0.42386-0.7266-0.42386-1.38054V57.9101h0.93248v2.32512c0,0.43596,0.08476,0.7266,0.2543,0.87192
						s0.42386,0.21798,0.67816,0.21798c0.33908,0,0.5934-0.07266,0.67816-0.29064c0.16954-0.14532,0.25432-0.43596,0.25432-0.79926
						v-2.39779h0.93246v4.06897H139.10776L139.10776,61.9064z"/>
				</g>
				<g>
					<path class="st3" d="M146.56754,60.8165c0,0.21798-0.08478,0.43596-0.16954,0.58128
						c-0.08478,0.14532-0.25432,0.29064-0.42386,0.3633c-0.16954,0.07266-0.33908,0.14532-0.59338,0.21798
						c-0.25432,0.07266-0.42386,0.07266-0.67816,0.07266c-0.33908,0-0.67816-0.07266-0.93248-0.14532
						c-0.33908-0.07266-0.59338-0.21798-0.8477-0.3633l0.42386-0.58128c0.2543,0.14532,0.42384,0.21798,0.67816,0.29064
						c0.2543,0.07266,0.50862,0.07266,0.67816,0.07266c0.59338,0,0.8477-0.14532,0.8477-0.43596
						c0-0.14532-0.08478-0.29064-0.25432-0.3633c-0.16954-0.07266-0.42384-0.21798-0.8477-0.29064
						c-0.2543-0.07266-0.50862-0.14532-0.67816-0.21798c-0.16954-0.07266-0.33908-0.14532-0.42384-0.29064
						c-0.08478-0.07266-0.16954-0.21798-0.25432-0.3633c-0.08476-0.14532-0.08476-0.29064-0.08476-0.43596
						c0-0.14532,0-0.3633,0.08476-0.50862c0.08478-0.14532,0.16954-0.29064,0.33908-0.3633l0.50862-0.21798
						c0.16954-0.07266,0.42386-0.07266,0.67816-0.07266c0.33908,0,0.5934,0.07266,0.8477,0.14532
						c0.25432,0.07266,0.50862,0.21798,0.76294,0.29064l-0.42386,0.58128c-0.16954-0.14532-0.42384-0.21798-0.59338-0.29064
						c-0.16954-0.07266-0.42386-0.07266-0.67816-0.07266c-0.25432,0-0.42386,0-0.50862,0.07266
						c-0.08478,0.07266-0.16954,0.14532-0.16954,0.29064v0.14532c0,0.07266,0.08476,0.07266,0.16954,0.14532
						c0.08476,0.07266,0.16954,0.07266,0.2543,0.14532c0.08478,0.07266,0.25432,0.07266,0.42386,0.14532
						c0.2543,0.07266,0.50862,0.14532,0.67816,0.21798c0.16954,0.07266,0.33908,0.14532,0.50862,0.29064
						c0.16954,0.07266,0.2543,0.21798,0.33908,0.3633C146.48276,60.4532,146.56754,60.59852,146.56754,60.8165L146.56754,60.8165z"
						/>
				</g>
				<g>
					<path class="st3" d="M150.46692,57.18352c0.08484-0.07263,0.16956-0.21802,0.16956-0.36328
						c0-0.14539-0.08472-0.29065-0.16956-0.3634c-0.08472-0.07263-0.25427-0.14526-0.42383-0.14526
						s-0.33911,0.07263-0.42383,0.14526c-0.08484,0.07275-0.16956,0.21802-0.16956,0.3634
						c0,0.14526,0.08472,0.29065,0.16956,0.36328c0.08472,0.07263,0.25427,0.14526,0.42383,0.14526
						S150.3822,57.25615,150.46692,57.18352z M149.61926,57.83745v4.06897h0.9325v-4.06897H149.61926z"/>
				</g>
				<g>
					<path class="st3" d="M156.65517,61.9064v-2.32512c0-0.43596-0.08476-0.7266-0.2543-0.87192
						c-0.16954-0.14532-0.42386-0.21798-0.67816-0.21798c-0.33908,0-0.5934,0.07266-0.67816,0.29064
						c-0.16954,0.14532-0.2543,0.43596-0.2543,0.79926v2.39779h-0.93248V57.9101h0.93248v0.3633
						c0.08476-0.14532,0.2543-0.29064,0.50861-0.3633c0.25432-0.07266,0.42386-0.14532,0.67816-0.14532
						c0.5934,0,1.01724,0.14532,1.27156,0.43596c0.2543,0.29064,0.42384,0.7266,0.42384,1.38054v2.32512H156.65517
						L156.65517,61.9064z"/>
				</g>
				<g>
					<path class="st3" d="M164.53882,60.16264v-0.3634c0-0.29053,0-0.50854-0.08484-0.79919
						c-0.08472-0.21802-0.16956-0.43591-0.33911-0.65393c-0.16956-0.14539-0.33899-0.36328-0.59338-0.43604
						c-0.25427-0.07263-0.50854-0.14526-0.84766-0.14526s-0.59338,0.07263-0.84766,0.14526
						c-0.25439,0.14539-0.50867,0.29065-0.67822,0.43604c-0.16956,0.14526-0.33911,0.36328-0.42383,0.65393
						c-0.08484,0.29065-0.16956,0.5813-0.16956,0.94458c0,0.29065,0.08472,0.65393,0.16956,0.87195
						c0.08472,0.2179,0.25427,0.50854,0.42383,0.65393c0.16956,0.21802,0.42383,0.36328,0.67822,0.43591
						c0.25427,0.07263,0.50854,0.14539,0.76282,0.14539c0.33911,0,0.67822-0.07275,0.9325-0.14539
						c0.25439-0.07263,0.50867-0.2179,0.67822-0.36328l-0.59338-0.50867l-0.50867,0.21802
						c-0.08472,0.07263-0.33911,0.07263-0.50867,0.07263c-0.16943,0-0.25427,0-0.42383-0.07263
						c-0.08472-0.07263-0.25427-0.14526-0.33899-0.21802c-0.08484-0.07263-0.16956-0.2179-0.25439-0.36328
						c-0.08472-0.14526-0.16956-0.29065-0.16956-0.50854H164.53882z M163.52161,59.14531
						c0.08472,0.07263,0.08472,0.21802,0.08472,0.36328v0.07263h-2.20398c0-0.29065,0.16956-0.5813,0.33911-0.72656
						c0.16956-0.21802,0.42383-0.29065,0.76294-0.29065c0.16956,0,0.33899,0,0.50854,0.07263s0.25439,0.14539,0.33911,0.21802
						S163.43677,58.99992,163.52161,59.14531z"/>
				</g>
				<g>
					<path class="st3" d="M170.81178,60.8165c0,0.21798-0.08478,0.43596-0.16954,0.58128
						c-0.08478,0.14532-0.25432,0.29064-0.42386,0.3633c-0.16954,0.07266-0.33908,0.14532-0.59338,0.21798
						c-0.2543,0.07266-0.42384,0.07266-0.67816,0.07266c-0.33908,0-0.67816-0.07266-0.93246-0.14532
						c-0.33908-0.07266-0.5934-0.21798-0.8477-0.3633l0.42384-0.58128c0.25432,0.14532,0.42386,0.21798,0.67816,0.29064
						c0.25432,0.07266,0.50862,0.07266,0.67816,0.07266c0.5934,0,0.8477-0.14532,0.8477-0.43596
						c0-0.14532-0.08478-0.29064-0.2543-0.3633c-0.16954-0.07266-0.42386-0.21798-0.8477-0.29064
						c-0.25432-0.07266-0.50862-0.14532-0.67816-0.21798c-0.16954-0.07266-0.33908-0.14532-0.42386-0.29064
						c-0.08476-0.07266-0.16954-0.21798-0.2543-0.3633c-0.08478-0.14532-0.08478-0.29064-0.08478-0.43596
						c0-0.14532,0-0.3633,0.08478-0.50862c0.08476-0.14532,0.16954-0.29064,0.33908-0.3633l0.50862-0.21798
						c0.16954-0.07266,0.42384-0.07266,0.67816-0.07266c0.33908,0,0.59338,0.07266,0.84769,0.14532
						c0.25432,0.07266,0.50862,0.21798,0.76294,0.29064l-0.42386,0.58128c-0.16954-0.14532-0.42384-0.21798-0.59338-0.29064
						c-0.16954-0.07266-0.42384-0.07266-0.67816-0.07266c-0.2543,0-0.42384,0-0.50862,0.07266
						c-0.08476,0.07266-0.16954,0.14532-0.16954,0.29064v0.14532c0,0.07266,0.08478,0.07266,0.16954,0.14532
						c0.08478,0.07266,0.16954,0.07266,0.25432,0.14532c0.08476,0.07266,0.2543,0.07266,0.42384,0.14532
						c0.25432,0.07266,0.50862,0.14532,0.67816,0.21798c0.16954,0.07266,0.33908,0.14532,0.50862,0.29064
						c0.16954,0.07266,0.2543,0.21798,0.33908,0.3633C170.72701,60.4532,170.81178,60.59852,170.81178,60.8165L170.81178,60.8165z"
						/>
				</g>
				<g>
					<path class="st3" d="M177,60.8165c0,0.21798-0.08476,0.43596-0.16954,0.58128c-0.08476,0.14532-0.2543,0.29064-0.42384,0.3633
						c-0.16954,0.07266-0.33908,0.14532-0.5934,0.21798c-0.2543,0.07266-0.42384,0.07266-0.67816,0.07266
						c-0.33908,0-0.67816-0.07266-0.93246-0.14532c-0.33908-0.07266-0.5934-0.21798-0.8477-0.3633l0.42384-0.58128
						c0.25432,0.14532,0.42386,0.21798,0.67816,0.29064c0.25432,0.07266,0.50862,0.07266,0.67816,0.07266
						c0.5934,0,0.8477-0.14532,0.8477-0.43596c0-0.14532-0.08476-0.29064-0.2543-0.3633
						c-0.16954-0.07266-0.42386-0.21798-0.8477-0.29064c-0.25432-0.07266-0.50862-0.14532-0.67816-0.21798
						c-0.16954-0.07266-0.33908-0.14532-0.42386-0.29064c-0.08476-0.07266-0.16954-0.21798-0.2543-0.3633
						c-0.08478-0.14532-0.08478-0.29064-0.08478-0.43596c0-0.14532,0-0.3633,0.08478-0.50862
						c0.08476-0.14532,0.16954-0.29064,0.33908-0.3633l0.50862-0.21798c0.16954-0.07266,0.42384-0.07266,0.67816-0.07266
						c0.33908,0,0.59338,0.07266,0.8477,0.14532c0.2543,0.07266,0.50862,0.21798,0.76292,0.29064l-0.42384,0.58128
						c-0.16954-0.14532-0.42386-0.21798-0.5934-0.29064c-0.16954-0.07266-0.42384-0.07266-0.67816-0.07266
						c-0.2543,0-0.42384,0-0.50862,0.07266c-0.08476,0.07266-0.16954,0.14532-0.16954,0.29064v0.14532
						c0,0.07266,0.08478,0.07266,0.16954,0.14532c0.08478,0.07266,0.16954,0.07266,0.25432,0.14532
						c0.08476,0.07266,0.2543,0.07266,0.42384,0.14532c0.25432,0.07266,0.50862,0.14532,0.67816,0.21798
						c0.16954,0.07266,0.33908,0.14532,0.50862,0.29064c0.16954,0.07266,0.25432,0.21798,0.33908,0.3633
						C177,60.4532,177,60.59852,177,60.8165L177,60.8165z"/>
				</g>
				<g>
					<path class="st3" d="M80.44684,66.62931v4.57758h-0.93247v-4.65025h-1.86494v-0.79926h4.66236v0.79926h-1.86494V66.62931z"/>
				</g>
				<g>
					<path class="st3" d="M86.88937,68.00985c-0.08477-0.07265-0.16954-0.07265-0.33908-0.07265s-0.25431-0.07266-0.42385-0.07266
						c-0.25431,0-0.50862,0.07266-0.67816,0.29064c-0.16954,0.14532-0.25431,0.43596-0.25431,0.79926v2.25246H84.2615v-4.06896
						h0.93246v0.43596c0.08477-0.14532,0.25431-0.21798,0.42385-0.3633c0.16954-0.07266,0.42385-0.14532,0.67816-0.14532
						c0.16954,0,0.33908,0,0.50862,0.07266c0.08477,0,0.25431,0.07266,0.33908,0.14532L86.88937,68.00985L86.88937,68.00985z"/>
				</g>
				<g>
					<path class="st3" d="M91.72131,71.13432c0.25427-0.07263,0.42383-0.21802,0.59338-0.36328v0.43591h0.84766v-2.68848
						c0-0.43591-0.16956-0.79919-0.50867-1.01721c-0.33899-0.21802-0.76282-0.36328-1.27148-0.36328
						c-0.33911,0-0.67822,0-0.9325,0.07263s-0.50867,0.14539-0.76294,0.29065l0.33911,0.5813
						c0.16956-0.14526,0.42383-0.14526,0.59338-0.21802c0.16956-0.07263,0.42383-0.07263,0.6781-0.07263
						c0.33911,0,0.50867,0,0.67822,0.14539c0.16956,0.14526,0.25427,0.29053,0.25427,0.50854v0.29065
						c-0.25427-0.07263-0.59338-0.14526-1.01721-0.14526c-0.25427,0-0.50867,0-0.76294,0.07263
						c-0.25427,0-0.42383,0.14526-0.59338,0.21802c-0.16956,0.14526-0.33911,0.29053-0.42383,0.43591
						c-0.08484,0.14526-0.16956,0.36328-0.16956,0.5813c0,0.29065,0.08472,0.50854,0.16956,0.65393
						c0.16956,0.21802,0.25427,0.36328,0.42383,0.43591l0.50867,0.21802c0.16956,0.07263,0.42383,0.07263,0.59338,0.07263
						C91.29736,71.27959,91.46692,71.20695,91.72131,71.13432z M91.89075,69.31767c0.16956,0.07263,0.33911,0.07263,0.42383,0.14539
						v0.5813c-0.08472,0.14526-0.25427,0.29053-0.42383,0.36328c-0.16956,0.07263-0.42383,0.14526-0.6781,0.14526
						c-0.33911,0-0.50867-0.07263-0.67822-0.21802c-0.16956-0.14526-0.25427-0.29053-0.25427-0.50854
						c0-0.14539,0.08472-0.36328,0.25427-0.43604c0.16956-0.07263,0.33911-0.14526,0.67822-0.14526
						C91.46692,69.24504,91.72119,69.31767,91.89075,69.31767z"/>
				</g>
				<g>
					<path class="st3" d="M99.26581,71.20689v-2.32512c0-0.43596-0.08477-0.7266-0.25431-0.87193
						c-0.16954-0.14532-0.42385-0.21798-0.67816-0.21798c-0.33908,0-0.59339,0.07266-0.67816,0.29064
						c-0.16954,0.14532-0.25431,0.43596-0.25431,0.79926v2.32512h-0.93247v-4.06896h0.93247v0.3633
						c0.08477-0.14532,0.25431-0.29063,0.50862-0.3633s0.42385-0.14532,0.67816-0.14532c0.59339,0,1.01723,0.14532,1.27155,0.43597
						s0.42385,0.7266,0.42385,1.38054v2.39778H99.26581L99.26581,71.20689z"/>
				</g>
				<g>
					<path class="st3" d="M106.64081,70.117c0,0.21798-0.08477,0.43596-0.16954,0.58128
						c-0.08477,0.14532-0.25431,0.29064-0.42385,0.3633s-0.33908,0.14532-0.59339,0.21798s-0.42385,0.07266-0.67816,0.07266
						c-0.33908,0-0.67816-0.07266-0.93247-0.14532c-0.33908-0.07265-0.59339-0.21798-0.8477-0.3633l0.42385-0.58128
						c0.25431,0.14532,0.42385,0.21798,0.67816,0.29064s0.50862,0.07266,0.67816,0.07266c0.59339,0,0.8477-0.14532,0.8477-0.43597
						c0-0.14532-0.08477-0.29063-0.25431-0.3633s-0.42385-0.21798-0.8477-0.29064c-0.25431-0.07266-0.50862-0.14532-0.67816-0.21798
						s-0.33908-0.14532-0.42385-0.29064c-0.08477-0.07265-0.16954-0.21798-0.25431-0.3633
						c-0.08477-0.14532-0.08477-0.29064-0.08477-0.43597c0-0.14532,0-0.3633,0.08477-0.50861
						c0.08477-0.14532,0.16954-0.29064,0.33908-0.3633l0.50862-0.21798c0.16954-0.07266,0.42385-0.07266,0.67816-0.07266
						c0.33908,0,0.59339,0.07266,0.8477,0.14532c0.25431,0.07265,0.50862,0.21798,0.76293,0.29063l-0.42385,0.58128
						c-0.16954-0.14532-0.42385-0.21798-0.59339-0.29064c-0.16954-0.07265-0.42385-0.07265-0.67816-0.07265
						s-0.42385,0-0.50862,0.07265c-0.08477,0.07266-0.16954,0.14532-0.16954,0.29064v0.14532
						c0,0.07266,0.08477,0.07266,0.16954,0.14532s0.16954,0.07266,0.25431,0.14532c0.08477,0.07266,0.25431,0.07266,0.42385,0.14532
						c0.25431,0.07265,0.50862,0.14532,0.67816,0.21798s0.33908,0.14532,0.50862,0.29064
						c0.16954,0.14532,0.25431,0.21798,0.33908,0.3633C106.64081,69.75369,106.64081,69.89902,106.64081,70.117L106.64081,70.117z"
						/>
				</g>
				<g>
					<path class="st3" d="M113.5072,70.18962c0.08472-0.29065,0.16956-0.5813,0.16956-0.94458s-0.08484-0.72656-0.08484-1.01721
						c-0.16956-0.21802-0.25427-0.50867-0.42383-0.65393c-0.16956-0.14539-0.33911-0.29065-0.59338-0.3634
						c-0.16956-0.07263-0.42383-0.14526-0.67822-0.14526c-0.25427,0-0.50854,0.07263-0.6781,0.14526
						c-0.25427,0.14539-0.42383,0.21802-0.59338,0.3634v-0.3634h-0.9325v5.59485l0.9325-0.43591v-1.45325
						c0.08472,0.07275,0.33911,0.21802,0.50854,0.29065c0.16956,0.07263,0.42395,0.14539,0.67822,0.14539
						s0.42383-0.07275,0.6781-0.14539c0.25439-0.07263,0.42395-0.2179,0.59338-0.36328
						C113.25281,70.62553,113.42236,70.48027,113.5072,70.18962z M112.48987,68.1552
						c0.16956,0.21802,0.25427,0.5813,0.25427,1.08997c0,0.43591-0.08472,0.79919-0.16943,1.08984
						c-0.16956,0.21802-0.42395,0.29065-0.76294,0.29065c-0.08484,0-0.25439-0.07263-0.33911-0.07263
						c-0.16956-0.07263-0.25427-0.14539-0.33911-0.14539c-0.08472,0-0.16956-0.07263-0.25427-0.14526
						c-0.08484-0.07263-0.08484-0.14539-0.16956-0.21802v-1.74377c0.08472-0.14539,0.25427-0.29065,0.42383-0.3634
						c0.16956-0.07263,0.33911-0.14526,0.59338-0.14526C112.06604,67.79192,112.32031,67.93718,112.48987,68.1552z"/>
				</g>
				<g>
					<path class="st3" d="M120.45837,70.04424c0.08472-0.2179,0.16956-0.50854,0.16956-0.87183c0-0.29065,0-0.5813-0.16956-0.87195
						c-0.08472-0.21802-0.25427-0.50867-0.42383-0.65393c-0.16956-0.21802-0.42383-0.36328-0.67822-0.43604
						c-0.25427-0.07263-0.50854-0.14526-0.84766-0.14526s-0.59338,0.07263-0.84766,0.14526
						c-0.25439,0.14539-0.50867,0.21802-0.67822,0.43604c-0.16956,0.14526-0.33911,0.36328-0.42383,0.65393
						c-0.08484,0.21802-0.16956,0.50867-0.16956,0.87195c0,0.29065,0.08472,0.5813,0.16956,0.87183
						c0.08472,0.21802,0.25427,0.43604,0.42383,0.65405c0.16956,0.2179,0.42383,0.36328,0.67822,0.43591
						c0.25427,0.07263,0.50854,0.14526,0.84766,0.14526s0.59338-0.07263,0.84766-0.14526
						c0.25439-0.14526,0.50867-0.21802,0.67822-0.43591C120.2041,70.5529,120.37366,70.33488,120.45837,70.04424z
						 M119.35632,68.1552c0.25427,0.29065,0.33911,0.5813,0.33911,1.01721c0,0.21802,0,0.3634-0.16956,0.50867l-0.25439,0.43591
						c-0.08472,0.14539-0.16943,0.21802-0.33899,0.29065c-0.16956,0-0.33911,0.07275-0.50867,0.07275
						c-0.33911,0-0.59338-0.14539-0.84766-0.3634c-0.25439-0.2179-0.33911-0.58118-0.33911-1.01721
						c0-0.36328,0.16956-0.72656,0.33911-0.94458c0.25427-0.21802,0.50854-0.36328,0.84766-0.36328
						C118.84766,67.79192,119.10205,67.93718,119.35632,68.1552z"/>
				</g>
				<g>
					<path class="st3" d="M126.2227,68.00985c-0.08477-0.07265-0.16954-0.07265-0.33908-0.07265s-0.25431-0.07266-0.42385-0.07266
						c-0.25431,0-0.50862,0.07266-0.67816,0.29064c-0.16954,0.14532-0.25431,0.43596-0.25431,0.79926v2.25246h-0.93247v-4.06896
						h0.93247v0.43596c0.08477-0.14532,0.25431-0.21798,0.42385-0.3633c0.16954-0.07266,0.42385-0.14532,0.67816-0.14532
						c0.16954,0,0.33908,0,0.50862,0.07266c0.08477,0,0.25431,0.07266,0.33908,0.14532L126.2227,68.00985L126.2227,68.00985z"/>
				</g>
				<g>
					<path class="st3" d="M131.56322,71.13424c-0.08476,0.07265-0.2543,0.07265-0.42384,0.14532
						c-0.16954,0-0.33908,0.07266-0.50862,0.07266c-0.33908,0-0.5934-0.07266-0.76294-0.29064
						c-0.16954-0.14532-0.2543-0.43596-0.2543-0.79926v-2.32512h-0.67816v-0.7266h0.67816v-1.16257l0.93246-0.43596v1.59853h1.18678
						v0.7266h-1.18678v2.1798c0,0.21798,0,0.29064,0.08478,0.3633c0.08476,0.07266,0.16954,0.07266,0.33908,0.07266
						c0.08476,0,0.2543,0,0.33908-0.07266c0.08476,0,0.2543-0.07265,0.33908-0.07265L131.56322,71.13424L131.56322,71.13424z"/>
				</g>
				<g>
					<path class="st3" d="M136.73425,71.13432c0.25427-0.07263,0.42383-0.21802,0.59338-0.36328v0.43591h0.84766v-2.68848
						c0-0.43591-0.16956-0.79919-0.50867-1.01721c-0.33899-0.21802-0.76282-0.36328-1.27148-0.36328
						c-0.33911,0-0.67822,0-0.9325,0.07263s-0.50867,0.14539-0.76294,0.29065l0.33911,0.5813
						c0.16956-0.14526,0.42383-0.14526,0.59338-0.21802c0.16956-0.07263,0.42383-0.07263,0.6781-0.07263
						c0.33911,0,0.50867,0,0.67822,0.14539c0.16956,0.14526,0.25427,0.29053,0.25427,0.50854v0.29065
						c-0.25427-0.07263-0.59338-0.14526-1.01721-0.14526c-0.25427,0-0.50867,0.07263-0.76294,0.07263
						s-0.42383,0.14526-0.59338,0.21802c-0.16956,0.14526-0.33911,0.29053-0.42383,0.43591
						c-0.08484,0.14526-0.16956,0.36328-0.16956,0.5813c0,0.29065,0.08472,0.50854,0.16956,0.65393
						c0.16956,0.21802,0.25427,0.36328,0.42383,0.43591l0.50867,0.21802c0.16956,0.07263,0.42383,0.07263,0.59338,0.07263
						C136.3103,71.27959,136.47986,71.20695,136.73425,71.13432z M136.90369,69.31767
						c0.16956,0.07263,0.33911,0.07263,0.42383,0.14539v0.5813c-0.08472,0.14526-0.25427,0.29053-0.42383,0.36328
						c-0.16956,0.07263-0.42383,0.14526-0.6781,0.14526c-0.33911,0-0.50867-0.07263-0.67822-0.21802
						c-0.16956-0.14526-0.25427-0.29053-0.25427-0.50854c0-0.14539,0.08472-0.36328,0.25427-0.43604
						c0.16956-0.07263,0.33911-0.14526,0.67822-0.14526C136.47986,69.24504,136.73413,69.31767,136.90369,69.31767z"/>
				</g>
				<g>
					<path class="st3" d="M143.68535,71.13424c-0.08478,0.07265-0.25432,0.07265-0.42386,0.14532
						c-0.16954,0-0.33908,0.07266-0.50862,0.07266c-0.33908,0-0.59338-0.07266-0.76292-0.29064
						c-0.16954-0.14532-0.25432-0.43596-0.25432-0.79926v-2.32512h-0.67816v-0.7266h0.67816v-1.16257l0.93248-0.43596v1.59853
						h1.18678v0.7266h-1.18678v2.1798c0,0.21798,0,0.29064,0.08476,0.3633c0.08478,0.07266,0.16954,0.07266,0.33908,0.07266
						c0.08478,0,0.25432,0,0.33908-0.07266c0.08478,0,0.25432-0.07265,0.33908-0.07265L143.68535,71.13424L143.68535,71.13424z"/>
				</g>
				<g>
					<path class="st3" d="M147.75427,66.48405c0.08484-0.07263,0.16956-0.21802,0.16956-0.36328c0-0.14539,0-0.29065-0.16956-0.3634
						c-0.08472-0.07263-0.25427-0.14526-0.42383-0.14526s-0.33911,0.07263-0.42383,0.14526
						c-0.08484,0.07275-0.16956,0.21802-0.16956,0.3634c0,0.14526,0.08472,0.29065,0.16956,0.36328
						c0.08472,0.07263,0.25427,0.14526,0.42383,0.14526S147.66956,66.55669,147.75427,66.48405z M146.90662,67.13799v4.06897h0.9325
						v-4.06897H146.90662z"/>
				</g>
				<g>
					<path class="st3" d="M154.875,70.04424c0.08472-0.2179,0.16956-0.50854,0.16956-0.87183
						c0-0.29065-0.08484-0.5813-0.16956-0.87195c-0.08472-0.21802-0.25427-0.50867-0.42383-0.65393
						c-0.16956-0.21802-0.42383-0.36328-0.67822-0.43604c-0.25427-0.07263-0.50854-0.14526-0.84766-0.14526
						s-0.59338,0.07263-0.84766,0.14526c-0.25439,0.14539-0.50867,0.21802-0.67822,0.43604
						c-0.16956,0.14526-0.33911,0.36328-0.42383,0.65393c-0.08484,0.21802-0.16956,0.50867-0.16956,0.87195
						c0,0.29065,0.08472,0.5813,0.16956,0.87183c0.08472,0.21802,0.25427,0.43604,0.42383,0.65405
						c0.16956,0.2179,0.42383,0.36328,0.67822,0.43591c0.25427,0.07263,0.50854,0.14526,0.84766,0.14526
						s0.59338-0.07263,0.84766-0.14526c0.25439-0.14526,0.50867-0.21802,0.67822-0.43591
						C154.62073,70.5529,154.79028,70.33488,154.875,70.04424z M153.77295,68.1552c0.25427,0.29065,0.33911,0.5813,0.33911,1.01721
						c0,0.21802,0,0.3634-0.16956,0.50867l-0.25439,0.43591c-0.08472,0.14539-0.16943,0.21802-0.33899,0.29065
						c-0.16956,0-0.33911,0.07275-0.50867,0.07275c-0.33911,0-0.59338-0.14539-0.84766-0.3634
						c-0.25439-0.2179-0.33911-0.58118-0.33911-1.01721c0-0.36328,0.16956-0.72656,0.33911-0.94458
						c0.25427-0.21802,0.50854-0.36328,0.84766-0.36328C153.26428,67.79192,153.51868,67.93718,153.77295,68.1552z"/>
				</g>
				<g>
					<path class="st3" d="M160.89368,71.20689v-2.32512c0-0.43596-0.08476-0.7266-0.2543-0.87193
						c-0.16954-0.14532-0.42386-0.21798-0.67816-0.21798c-0.33908,0-0.5934,0.07266-0.67816,0.29064
						c-0.16954,0.14532-0.25432,0.43596-0.25432,0.79926v2.32512h-0.93246v-4.06896h0.93246v0.3633
						c0.08478-0.14532,0.25432-0.29063,0.50862-0.3633c0.25432-0.07266,0.42386-0.14532,0.67816-0.14532
						c0.5934,0,1.01724,0.14532,1.27156,0.43597c0.2543,0.29064,0.42384,0.7266,0.42384,1.38054v2.39778H160.89368
						L160.89368,71.20689z"/>
				</g>
			</g>
		</g>
	</g>
</g>
</svg>
