<?xml version="1.0" encoding="utf-8"?>
<!-- Generator: Adobe Illustrator 24.0.3, SVG Export Plug-In . SVG Version: 6.00 Build 0)  -->
<svg version="1.1" id="Layer_1" xmlns="http://www.w3.org/2000/svg" xmlns:xlink="http://www.w3.org/1999/xlink" x="0px" y="0px"
	 viewBox="0 0 94.93736 20.28238" style="enable-background:new 0 0 94.93736 20.28238;" xml:space="preserve">
<style type="text/css">
	.st0{filter:url(#Adobe_OpacityMaskFilter);}
	.st1{fill:#FFFFFF;}
	.st2{mask:url(#mask-2_1_);}
	.st3{fill-rule:evenodd;clip-rule:evenodd;fill:#FFFFFF;}
</style>
<defs>
	<filter id="Adobe_OpacityMaskFilter" filterUnits="userSpaceOnUse" x="0.00458" y="0" width="94.93277" height="19.9985">
		<feColorMatrix  type="matrix" values="1 0 0 0 0  0 1 0 0 0  0 0 1 0 0  0 0 0 1 0"/>
	</filter>
</defs>
<mask maskUnits="userSpaceOnUse" x="0.00458" y="0" width="94.93277" height="19.9985" id="mask-2_1_">
	<rect class="st0" width="94.93736" height="20.28238"/>
	<g>
		<rect id="rect-1_1_" x="0.00463" class="st1" width="94.93271" height="20"/>
	</g>
</mask>
<g class="st2">
	<g>
		<g>
			<g>
				<path class="st3" d="M9.11328,6.92515c0,0.64545,0.52301,1.17436,1.17098,1.17436c0.64797,0,1.17098-0.52443,1.17098-1.17436
					c0-0.64545-0.52301-1.16988-1.17098-1.16988C9.63629,5.75527,9.11328,6.2797,9.11328,6.92515"/>
			</g>
		</g>
		<g>
			<g>
				<path class="st3" d="M14.47757,6.92515c0,0.64545,0.52301,1.17436,1.17098,1.17436c0.64797,0,1.17098-0.52443,1.17098-1.17436
					c0-0.64545-0.52301-1.16988-1.17098-1.16988C15.00058,5.75527,14.47757,6.2797,14.47757,6.92515"/>
			</g>
		</g>
		<g>
			<g>
				<path class="st3" d="M9.3123,9.39937c-0.32399,0.06275-0.54152,0.36755-0.47672,0.68131
					c0.32399,1.62707,2.0874,2.86867,4.0452,2.86867h0.11571c1.00436-0.02689,1.93466-0.32273,2.68446-0.85164
					c0.72203-0.51098,1.22189-1.20574,1.4024-1.95428c0.07405-0.31376-0.12497-0.62752-0.44895-0.69924
					c-0.32399-0.07172-0.64797,0.12102-0.72203,0.43478c-0.22216,0.91887-1.30983,1.86912-2.94828,1.90946
					c-1.57828,0.04034-2.75851-0.96818-2.94828-1.9229C9.95565,9.54729,9.64092,9.3411,9.3123,9.39937"/>
			</g>
		</g>
		<g>
			<path class="st3" d="M21.23496,4.03418c0.7915,1.04883,1.31909,2.25879,1.5459,3.54102
				c0.24066,1.35791,0.12036,2.75195-0.34711,4.13232c-0.41656,1.22852-1.20337,2.40723-2.27716,3.40674
				c-0.76373,0.71289-1.63385,1.3042-2.58264,1.75244c0.09253,0.22412,0.14349,0.46631,0.15735,0.7085
				c0.06482,1.27295-0.94421,2.35303-2.25403,2.42041c-1.31445,0.0625-2.42987-0.91455-2.49933-2.18311
				c-0.2962,0.00928-2.95288,0.00439-3.51294-0.02686c-0.00922,0.21533-0.04626,0.43506-0.1203,0.64111
				c-0.41656,1.20557-1.76807,1.85547-3.01312,1.45215c-1.245-0.40332-1.91614-1.7124-1.49957-2.91797
				c-1.71252-0.58252-3.34167-1.55518-4.58673-3.16016c-0.15735-0.20166-0.24066-0.44824-0.24066-0.69922
				c-0.00464-0.64062,0.53223-1.16504,1.19873-1.16504c0.82849,0,1.13397-0.28271,1.33759-0.7041
				c0.30084-0.61816,0.37494-1.56836,0.44434-2.48291C3.03159,8.1665,3.07786,7.56152,3.18894,7.01465
				c0.37024-1.8374,1.45331-3.4917,3.12878-4.77344c1.52271-1.15186,3.3324-1.896,5.24396-2.15137
				C12.01523,0.03125,12.47349,0,12.93168,0c1.63379,0.00439,3.24915,0.37646,4.70703,1.09375
				C19.0828,1.79736,20.3278,2.81494,21.23496,4.03418z M16.86124,15.90332c1.92999-0.85596,3.73969-2.53223,4.42932-4.55859
				c1.86523-5.49512-2.94824-10.1792-8.35883-10.18359c-0.40271,0-0.80536,0.02686-1.20801,0.08057
				C8.42832,1.67676,5.04032,3.91309,4.36924,7.24365c-0.09656,0.47949-0.13977,1.03076-0.18433,1.6001
				c-0.15845,2.02148-0.33398,4.2627-2.98151,4.2627c1.14783,1.479,2.68445,2.34863,4.30902,2.85986
				c0.13885-0.12109,0.2962-0.22852,0.46283-0.31396c1.16174-0.59619,2.59656-0.17041,3.2121,0.9502
				c0.65259,0.04053,3.64252,0.05371,4.04523,0.03613c0.07867-0.15234,0.17126-0.2915,0.28229-0.42139
				C14.35264,15.23535,15.84757,15.09668,16.86124,15.90332z M6.30387,17.69189c0,0.4165,0.35175,0.75732,0.7868,0.75732
				s0.78687-0.34082,0.78687-0.76221c0-0.4165-0.35181-0.75732-0.78687-0.75732S6.30387,17.27051,6.30387,17.69189z
				 M15.35233,18.44922c-0.43506,0-0.7868-0.34082-0.7868-0.75732c0-0.42139,0.35175-0.76221,0.7868-0.76221
				s0.78687,0.34082,0.78687,0.75732C16.1392,18.1084,15.78739,18.44922,15.35233,18.44922z"/>
		</g>
		<g>
			<g>
				<path class="st3" d="M37.48525,1.72568c-1.18024,0-2.01797,0.7351-2.3651,1.80188l-2.57338,7.86643l-2.50396-7.93366
					c-0.2777-1.06679-1.04138-1.73465-2.22625-1.73465c-1.39314,0-2.22625,0.99955-2.22625,1.9991
					c0,0.39892,0.13885,0.79785,0.20828,1.06679l3.96652,10.99955c0.48598,1.33572,1.39314,1.93187,2.57338,2.13357h0.13885
					c1.11081,0,2.0874-0.60063,2.50396-1.86912l2.6428-7.86643l2.57338,7.86643c0.41655,1.26849,1.39314,1.86912,2.50396,1.86912
					h0.13885c1.11081,0,2.0874-0.60063,2.57338-1.9991l4.10537-11.13402c0.06942-0.26894,0.13885-0.66786,0.13885-0.93232
					c0-1.13402-0.90253-2.06634-2.15683-2.06634s-1.94855,0.7351-2.22625,1.66741l-2.57338,8.0009l-2.57338-7.93366
					c-0.34713-1.06679-1.18024-1.80188-2.3651-1.80188H37.48525L37.48525,1.72568z"/>
			</g>
		</g>
		<g>
			<g>
				<path class="st3" d="M50.34757,4.2627c0-0.80225,0.4906-1.46582,1.25427-1.73486
					c1.46259-0.5332,3.06396-0.80225,5.20691-0.80225c2.50397,0,4.31366,0.66797,5.4939,1.73486
					c1.18488,1.13379,1.7403,2.86865,1.7403,5.00195v7.14502c0,1.20117-0.97199,2.1333-2.22626,2.1333
					c-1.32373,0-2.22626-0.93652-2.22626-1.86914c-1.11084,1.20117-2.64282,1.99902-4.93848,1.99902
					c-2.98993-0.13428-5.4939-1.80176-5.4939-4.86768c0-3.46924,2.71222-5.06934,6.53992-5.06934
					c1.67084,0,2.85571,0.26904,3.96649,0.66797V8.33252c0-1.86914-1.18024-2.86865-3.47589-2.86865
					c-1.08307,0-2.16144,0.15674-3.19824,0.46631c-0.27765,0.06689-0.48596,0.13428-0.69421,0.13428
					C51.2501,6.06445,50.34757,5.26221,50.34757,4.2627z M53.61979,12.7251c0,1.20117,1.04138,1.86914,2.50397,1.86914
					c0.06018,0.00439,0.1203,0.00439,0.17584,0c2.05963,0,3.4389-1.11621,3.4389-2.67139V11.125
					c-0.92102-0.39453-1.91614-0.59619-2.92053-0.60059c-1.94391,0-3.19818,0.73486-3.19818,2.13379V12.7251z"/>
			</g>
		</g>
		<g>
			<g>
				<path class="st3" d="M66.97729,1.86015c-1.0275-0.00896-1.86524,0.78888-1.87913,1.78395s0.8146,1.80636,1.84209,1.81981
					h6.50751l-7.58129,8.0009c-0.76368,0.7351-1.04138,1.26849-1.04138,2.13357v0.06723c0,1.06679,0.97196,1.80188,2.22625,1.80188
					h10.36295c1.0275,0.00896,1.86523-0.78888,1.87912-1.78395c0.00925-0.99507-0.81459-1.80637-1.84209-1.81981h-6.7852
					l7.58128-8.0009c0.76368-0.7351,1.04139-1.26849,1.04139-2.13357V3.66203c0-1.06679-0.90253-1.80188-2.22626-1.80188H66.97729
					L66.97729,1.86015z"/>
			</g>
		</g>
		<g>
			<g>
				<path class="st3" d="M79.01109,9.73096V9.66357c0-4.46875,3.33704-8.13525,8.06726-8.13965
					c5.42444,0,7.85901,4.26709,7.85901,7.53467c0,1.26855-0.97662,2.13379-2.15686,2.13379h-9.18268
					c0.4906,1.99902,1.94855,3.06592,3.96649,3.06592c1.18024,0.00439,2.32812-0.37207,3.26764-1.06689
					c0.34717-0.19727,0.62488-0.33154,1.11084-0.33154c1.04602,0,1.80969,0.73486,1.80969,1.73438
					c0,0.60059-0.27771,1.00391-0.62482,1.33594c-1.38855,1.13379-3.26764,1.86914-5.63275,1.86914
					C82.62583,17.79932,79.01109,14.53174,79.01109,9.73096z M90.48484,8.46289c-0.27771-1.99902-1.45795-3.33496-3.40649-3.33496
					s-3.12878,1.33594-3.54999,3.33496H90.48484z"/>
			</g>
		</g>
	</g>
</g>
</svg>
